<svg width="22" height="22" viewBox="0 0 22 22" fill="none" xmlns="http://www.w3.org/2000/svg">
    <path d="M11.0001 14.4375C12.0848 14.4375 13.0053 14.0593 13.7615 13.3031C14.5178 12.5468 14.8959 11.6263 14.8959 10.5416C14.8959 9.4569 14.5178 8.53642 13.7615 7.78017C13.0053 7.02392 12.0848 6.64579 11.0001 6.64579C9.91536 6.64579 8.99487 7.02392 8.23862 7.78017C7.48237 8.53642 7.10425 9.4569 7.10425 10.5416C7.10425 11.6263 7.48237 12.5468 8.23862 13.3031C8.99487 14.0593 9.91536 14.4375 11.0001 14.4375ZM11.0001 13.1083C10.282 13.1083 9.67473 12.86 9.17821 12.3635C8.68168 11.867 8.43341 11.2597 8.43341 10.5416C8.43341 9.82357 8.68168 9.21628 9.17821 8.71975C9.67473 8.22322 10.282 7.97496 11.0001 7.97496C11.7181 7.97496 12.3254 8.22322 12.822 8.71975C13.3185 9.21628 13.5667 9.82357 13.5667 10.5416C13.5667 11.2597 13.3185 11.867 12.822 12.3635C12.3254 12.86 11.7181 13.1083 11.0001 13.1083ZM11.0001 17.4166C8.76953 17.4166 6.75286 16.7826 4.95008 15.5145C3.1473 14.2465 1.80286 12.5888 0.916748 10.5416C1.80286 8.4944 3.1473 6.83676 4.95008 5.56871C6.75286 4.30065 8.76953 3.66663 11.0001 3.66663C13.2306 3.66663 15.2473 4.30065 17.0501 5.56871C18.8529 6.83676 20.1973 8.4944 21.0834 10.5416C20.1973 12.5888 18.8529 14.2465 17.0501 15.5145C15.2473 16.7826 13.2306 17.4166 11.0001 17.4166ZM11.0001 16.0416C12.8487 16.0416 14.5483 15.5413 16.099 14.5406C17.6497 13.5399 18.8299 12.2069 19.6397 10.5416C18.8299 8.87635 17.6497 7.54336 16.099 6.54267C14.5483 5.54197 12.8487 5.04163 11.0001 5.04163C9.15147 5.04163 7.45182 5.54197 5.90112 6.54267C4.35043 7.54336 3.16258 8.87635 2.33758 10.5416C3.16258 12.2069 4.35043 13.5399 5.90112 14.5406C7.45182 15.5413 9.15147 16.0416 11.0001 16.0416Z" fill="#D9D9D9"/>
</svg>
