<svg width="80" height="80" viewBox="0 0 80 80" fill="none" xmlns="http://www.w3.org/2000/svg">
    <path d="M28.8335 75L22.5002 64.1667L9.91683 61.5833L11.3335 49.3333L3.3335 40L11.3335 30.75L9.91683 18.5L22.5002 15.9167L28.8335 5L40.0002 10.1667L51.1668 5L57.5835 15.9167L70.0835 18.5L68.6668 30.75L76.6668 40L68.6668 49.3333L70.0835 61.5833L57.5835 64.1667L51.1668 75L40.0002 69.8333L28.8335 75ZM31.0835 68.4167L40.0002 64.6667L49.1668 68.4167L54.7502 60.0833L64.5002 57.5833L63.5002 47.6667L70.2502 40L63.5002 32.1667L64.5002 22.25L54.7502 19.9167L49.0002 11.5833L40.0002 15.3333L30.8335 11.5833L25.2502 19.9167L15.5002 22.25L16.5002 32.1667L9.75016 40L16.5002 47.6667L15.5002 57.75L25.2502 60.0833L31.0835 68.4167ZM36.4168 51.0833L55.3335 32.3333L51.5835 28.9167L36.4168 43.9167L28.5002 35.6667L24.6668 39.4167L36.4168 51.0833Z" fill="#33B44A"/>
</svg>
