<svg width="23" height="24" viewBox="0 0 23 24" fill="none" xmlns="http://www.w3.org/2000/svg">
    <mask id="path-1-inside-1_645_2442" fill="white">
        <path d="M14.7955 11.8707L8.91322 17.9759L7.85931 16.8821L12.7122 11.8707L7.88382 6.85926L8.93773 5.7654L14.7955 11.8707Z"/>
    </mask>
    <path d="M14.7955 11.8707L8.91322 17.9759L7.85931 16.8821L12.7122 11.8707L7.88382 6.85926L8.93773 5.7654L14.7955 11.8707Z" fill="#858585"/>
    <path d="M14.7955 11.8707L19.1163 16.0337L23.1189 11.8793L19.125 7.71668L14.7955 11.8707ZM8.91322 17.9759L4.5924 22.1389L8.91322 26.6235L13.234 22.1389L8.91322 17.9759ZM7.85931 16.8821L3.54904 12.7081L-0.48261 16.8715L3.5385 21.0451L7.85931 16.8821ZM12.7122 11.8707L17.0225 16.0446L21.0541 11.8812L17.033 7.70766L12.7122 11.8707ZM7.88382 6.85926L3.563 2.69626L-0.447932 6.85926L3.56301 11.0223L7.88382 6.85926ZM8.93773 5.7654L13.2672 1.61142L8.94675 -2.8916L4.61691 1.6024L8.93773 5.7654ZM10.4747 7.70766L4.5924 13.8129L13.234 22.1389L19.1163 16.0337L10.4747 7.70766ZM13.234 13.8129L12.1801 12.7191L3.5385 21.0451L4.5924 22.1389L13.234 13.8129ZM12.1696 21.056L17.0225 16.0446L8.40191 7.69674L3.54904 12.7081L12.1696 21.056ZM17.033 7.70766L12.2046 2.69626L3.56301 11.0223L8.39136 16.0337L17.033 7.70766ZM12.2046 11.0222L13.2585 9.92839L4.61691 1.6024L3.563 2.69626L12.2046 11.0222ZM4.60824 9.91937L10.466 16.0246L19.125 7.71668L13.2672 1.61142L4.60824 9.91937Z" fill="#858585" mask="url(#path-1-inside-1_645_2442)"/>
</svg>
