<svg width="112" height="110" viewBox="0 0 112 110" fill="none" xmlns="http://www.w3.org/2000/svg">
    <path d="M112 110H2.99997L2.99998 7.62939e-06L112 8.09388e-06V110Z" fill="#FFC361"/>
    <path fill-rule="evenodd" clip-rule="evenodd" d="M7 6.16663C7 8.09962 5.433 9.66663 3.5 9.66663C1.567 9.66663 0 8.09962 0 6.16663C0 4.23363 1.567 2.66663 3.5 2.66663C5.433 2.66663 7 4.23363 7 6.16663ZM7 15.8223C7 17.7553 5.433 19.3223 3.5 19.3223C1.567 19.3223 0 17.7553 0 15.8223C0 13.8893 1.567 12.3223 3.5 12.3223C5.433 12.3223 7 13.8893 7 15.8223ZM3.5 28.9775C5.433 28.9775 7 27.4105 7 25.4775C7 23.5445 5.433 21.9775 3.5 21.9775C1.567 21.9775 0 23.5445 0 25.4775C0 27.4105 1.567 28.9775 3.5 28.9775ZM7 35.1332C7 37.0662 5.433 38.6332 3.5 38.6332C1.567 38.6332 0 37.0662 0 35.1332C0 33.2002 1.567 31.6332 3.5 31.6332C5.433 31.6332 7 33.2002 7 35.1332ZM3.5 48.2886C5.433 48.2886 7 46.7216 7 44.7886C7 42.8556 5.433 41.2886 3.5 41.2886C1.567 41.2886 0 42.8556 0 44.7886C0 46.7216 1.567 48.2886 3.5 48.2886ZM7 54.444C7 56.377 5.433 57.944 3.5 57.944C1.567 57.944 0 56.377 0 54.444C0 52.511 1.567 50.944 3.5 50.944C5.433 50.944 7 52.511 7 54.444ZM3.5 67.5995C5.433 67.5995 7 66.0325 7 64.0995C7 62.1665 5.433 60.5995 3.5 60.5995C1.567 60.5995 0 62.1665 0 64.0995C0 66.0325 1.567 67.5995 3.5 67.5995ZM7 73.7551C7 75.6881 5.433 77.2551 3.5 77.2551C1.567 77.2551 0 75.6881 0 73.7551C0 71.8221 1.567 70.2551 3.5 70.2551C5.433 70.2551 7 71.8221 7 73.7551ZM3.5 86.9106C5.433 86.9106 7 85.3436 7 83.4106C7 81.4776 5.433 79.9106 3.5 79.9106C1.567 79.9106 0 81.4776 0 83.4106C0 85.3436 1.567 86.9106 3.5 86.9106ZM7 93.0662C7 94.9992 5.433 96.5662 3.5 96.5662C1.567 96.5662 0 94.9992 0 93.0662C0 91.1332 1.567 89.5662 3.5 89.5662C5.433 89.5662 7 91.1332 7 93.0662ZM3.5 106.833C5.433 106.833 7 105.266 7 103.333C7 101.4 5.433 99.8333 3.5 99.8333C1.567 99.8333 0 101.4 0 103.333C0 105.266 1.567 106.833 3.5 106.833Z" fill="white"/>
</svg>
