<svg width="22" height="23" viewBox="0 0 22 23" fill="none" xmlns="http://www.w3.org/2000/svg">
    <path d="M4.125 20.2283C3.75833 20.2283 3.4375 20.0908 3.1625 19.8158C2.8875 19.5408 2.75 19.2199 2.75 18.8533V5.10327C2.75 4.7366 2.8875 4.41577 3.1625 4.14077C3.4375 3.86577 3.75833 3.72827 4.125 3.72827H17.875C18.2417 3.72827 18.5625 3.86577 18.8375 4.14077C19.1125 4.41577 19.25 4.7366 19.25 5.10327V18.8533C19.25 19.2199 19.1125 19.5408 18.8375 19.8158C18.5625 20.0908 18.2417 20.2283 17.875 20.2283H4.125ZM4.125 18.8533H17.875V5.10327H4.125V18.8533Z" fill="#D9D9D9"/>
    <rect x="3.6665" y="4.64496" width="14.6667" height="14.6667" fill="white"/>
</svg>