<svg width="23" height="23" viewBox="0 0 23 23" fill="none" xmlns="http://www.w3.org/2000/svg">
    <path d="M7.9113 15.5332L11.3488 12.0957L14.7863 15.5332L15.7488 14.5707L12.3113 11.1332L15.7488 7.69572L14.7863 6.73322L11.3488 10.1707L7.9113 6.73322L6.9488 7.69572L10.3863 11.1332L6.9488 14.5707L7.9113 15.5332ZM11.3488 20.2999C10.0502 20.2999 8.84324 20.0669 7.72796 19.6009C6.61268 19.135 5.64255 18.4895 4.81755 17.6645C3.99255 16.8395 3.34706 15.8693 2.88109 14.7541C2.41512 13.6388 2.18213 12.4318 2.18213 11.1332C2.18213 9.84989 2.41512 8.65058 2.88109 7.5353C3.34706 6.42002 3.99255 5.44989 4.81755 4.62489C5.64255 3.79989 6.61268 3.15058 7.72796 2.67697C8.84324 2.20336 10.0502 1.96655 11.3488 1.96655C12.6321 1.96655 13.8314 2.20336 14.9467 2.67697C16.062 3.15058 17.0321 3.79989 17.8571 4.62489C18.6821 5.44989 19.3314 6.42002 19.805 7.5353C20.2787 8.65058 20.5155 9.84989 20.5155 11.1332C20.5155 12.4318 20.2787 13.6388 19.805 14.7541C19.3314 15.8693 18.6821 16.8395 17.8571 17.6645C17.0321 18.4895 16.062 19.135 14.9467 19.6009C13.8314 20.0669 12.6321 20.2999 11.3488 20.2999ZM11.3488 18.9249C13.4877 18.9249 15.321 18.161 16.8488 16.6332C18.3766 15.1054 19.1405 13.2721 19.1405 11.1332C19.1405 8.99433 18.3766 7.161 16.8488 5.63322C15.321 4.10544 13.4877 3.34155 11.3488 3.34155C9.20991 3.34155 7.37657 4.10544 5.8488 5.63322C4.32102 7.161 3.55713 8.99433 3.55713 11.1332C3.55713 13.2721 4.32102 15.1054 5.8488 16.6332C7.37657 18.161 9.20991 18.9249 11.3488 18.9249Z" fill="#D9D9D9"/>
</svg>
