<svg width="18" height="18" viewBox="0 0 18 18" fill="none" xmlns="http://www.w3.org/2000/svg">
    <path d="M14.625 15H4.875C4.575 15 4.3125 14.8875 4.0875 14.6625C3.8625 14.4375 3.75 14.175 3.75 13.875V1.875C3.75 1.575 3.8625 1.3125 4.0875 1.0875C4.3125 0.8625 4.575 0.75 4.875 0.75H11.4L15.75 5.1V13.875C15.75 14.175 15.6375 14.4375 15.4125 14.6625C15.1875 14.8875 14.925 15 14.625 15ZM10.8375 5.5875V1.875H4.875V13.875H14.625V5.5875H10.8375ZM2.625 17.25C2.325 17.25 2.0625 17.1375 1.8375 16.9125C1.6125 16.6875 1.5 16.425 1.5 16.125V4.51875H2.625V16.125H11.9625V17.25H2.625Z" fill="#FFBF4A"/>
</svg>
