<svg width="26" height="26" viewBox="0 0 26 26" fill="none" xmlns="http://www.w3.org/2000/svg">
    <path d="M11.7813 18.2812C11.7813 18.6045 11.9097 18.9145 12.1382 19.143C12.3668 19.3716 12.6768 19.5 13 19.5C13.3233 19.5 13.6333 19.3716 13.8618 19.143C14.0904 18.9145 14.2188 18.6045 14.2188 18.2812C14.2188 17.958 14.0904 17.648 13.8618 17.4195C13.6333 17.1909 13.3233 17.0625 13 17.0625C12.6768 17.0625 12.3668 17.1909 12.1382 17.4195C11.9097 17.648 11.7813 17.958 11.7813 18.2812ZM12.1875 10.5625V15.2344C12.1875 15.3461 12.2789 15.4375 12.3907 15.4375H13.6094C13.7211 15.4375 13.8125 15.3461 13.8125 15.2344V10.5625C13.8125 10.4508 13.7211 10.3594 13.6094 10.3594H12.3907C12.2789 10.3594 12.1875 10.4508 12.1875 10.5625ZM24.2659 21.7344L13.7034 3.45312C13.5459 3.18145 13.2743 3.04688 13 3.04688C12.7258 3.04688 12.4516 3.18145 12.2967 3.45312L1.73421 21.7344C1.42191 22.2777 1.81292 22.9531 2.43753 22.9531H23.5625C24.1871 22.9531 24.5782 22.2777 24.2659 21.7344ZM4.3723 21.026L13 6.09121L21.6278 21.026H4.3723Z" fill="#EB5757"/>
</svg>
