<svg width="108" height="152" viewBox="0 0 108 152" fill="none" xmlns="http://www.w3.org/2000/svg">
    <path d="M14.7905 137.564C16.3816 120.958 15.1088 12.087 15.6656 11.3423C16.4612 10.2998 19.4843 8.06576 21.155 7.47002C24.8145 6.20408 29.1105 6.05514 33.327 5.90621C52.7385 5.38494 72.3092 6.27855 91.4026 8.4381C93.3914 8.6615 95.619 8.95937 96.7328 10.0019C97.5283 10.7466 97.4488 10.1508 97.4488 10.97C97.4488 35.6186 97.4488 120.735 97.4488 136.522C97.4488 140.468 85.595 142.702 79.0714 143.298C74.9346 143.671 70.7977 143.968 66.6608 144.117C60.3759 144.266 54.0114 143.819 47.7265 143.373C36.9865 142.628 25.8488 139.798 14.7905 137.564Z" fill="white"/>
    <path d="M64.1944 144.49C58.6255 144.49 53.1362 144.117 47.7264 143.745C39.4527 143.149 30.8607 141.287 22.5073 139.5C19.9615 138.979 17.3362 138.383 14.7904 137.862C14.6313 137.862 14.5518 137.713 14.5518 137.564C15.586 127.064 15.4269 80.2988 15.3473 46.1184C15.2678 16.7783 15.2678 11.5656 15.5064 11.2677C16.3815 10.1507 19.4046 7.91671 21.1549 7.32097C24.8144 6.05503 29.19 5.83163 33.4064 5.75716C52.818 5.23589 72.3887 6.1295 91.5616 8.28905C93.7096 8.51245 95.8576 8.88478 97.0509 9.92733C97.2896 10.1507 97.4487 10.2252 97.5282 10.2997C97.7669 10.4486 97.8465 10.5975 97.7669 10.8209C97.7669 10.8954 97.7669 10.9699 97.7669 11.1188V136.671C97.7669 140.99 85.5153 143.149 79.0713 143.745C75.014 144.117 70.7976 144.415 66.6607 144.564C65.8651 144.415 64.99 144.49 64.1944 144.49ZM16.0244 137.564C18.4906 138.085 20.1206 138.383 22.5869 138.905C30.9402 140.692 39.5322 142.553 47.7264 143.075C53.9318 143.521 60.2962 143.968 66.5811 143.819C70.718 143.745 74.9344 143.373 78.9122 143C85.9131 142.404 96.3918 140.245 96.3918 136.671V11.1188C95.3488 10.0018 96.9275 8.04669 97.0509 10.7465V10.672C96.9713 10.5975 96.7327 10.5231 96.4144 10.2252C95.3007 9.25712 93.1527 8.95925 91.2433 8.73585C72.15 6.5763 52.6589 5.6827 33.2473 6.20397C29.1104 6.27843 24.7349 6.50183 21.2344 7.76778C19.6433 8.28905 17.8915 10.2252 17.0959 11.2677C16.9368 12.3103 16.0244 27.2796 16.5602 46.1184C16.7193 80.001 16.5602 126.481 16.0244 137.564Z" fill="#232F3E"/>
    <path d="M16.3815 11.4165C43.6691 10.4485 70.6384 10.4485 97.5282 11.0442C97.4487 10.5229 97.4487 10.0017 97.3691 9.48039C96.7327 3.67195 94.2664 0.0975257 80.1056 0.395395C70.0816 0.618796 53.7727 -0.125876 31.5766 0.395395C19.882 0.395395 16.6202 6.65064 15.6655 11.3421C15.9042 11.3421 16.1429 11.4165 16.3815 11.4165Z" fill="#D5F1FF"/>
    <path d="M16.3814 11.7144C16.3019 11.7144 16.3019 11.7144 16.3814 11.7144C16.1428 11.7144 15.9041 11.6399 15.745 11.6399C15.6654 11.6399 15.5859 11.5655 15.5063 11.5655C15.4268 11.491 15.4268 11.4165 15.4268 11.3421C16.0632 8.2889 17.4156 5.75702 19.4045 3.9698C22.189 1.43792 26.3259 0.171975 31.5765 0.171975C44.8623 -0.125894 56.0001 0.0230402 64.9899 0.171975C70.9566 0.246442 76.0481 0.320909 80.1055 0.246442C93.9481 -0.051427 96.9712 3.2996 97.6077 9.55484C97.6872 10.0761 97.6872 10.5229 97.7668 11.0442V11.1187C97.7668 11.1931 97.7668 11.2676 97.6872 11.3421C97.6077 11.4165 97.5281 11.4165 97.4486 11.4165C68.2517 10.6719 41.6801 10.7463 16.3814 11.7144ZM16.0632 11.1187C16.1428 11.1187 16.9367 10.5773 17.0958 10.5773C42.4563 9.02369 67.8101 9.90709 96.9275 10.5773C96.9275 10.205 97.1304 9.92718 97.0508 9.55484C96.4144 3.44853 92.1054 0.754348 80.854 0.960854C76.7966 1.03532 71.2034 1.03532 65.3163 0.960854C56.3265 0.811919 45.9193 0.737452 32.6335 0.960854C23.8029 1.03532 17.5748 4.1932 16.0632 11.1187Z" fill="#232F3E"/>
    <path d="M14.7905 137.713C14.7905 137.862 14.7905 137.936 14.7905 138.085C14.8701 140.915 14.9496 143.745 16.4612 146.351C17.9728 148.883 26.0079 151.564 29.9061 151.564C48.363 151.713 61.8874 151.489 80.3443 151.489C91.4821 151.489 95.5395 145.681 96.5737 142.255C97.1306 140.543 97.3692 138.83 97.4488 137.117C69.9226 137.266 42.3963 137.49 14.7905 137.713Z" fill="#D5F1FF"/>
    <path d="M43.7487 151.787C39.3731 151.787 34.8384 151.787 29.9855 151.713C26.0873 151.713 17.8135 149.106 16.2224 146.351C14.6313 143.67 14.6313 140.617 14.5518 138.011V137.638C14.5518 137.564 14.5518 137.489 14.6313 137.415C14.7109 137.34 14.7904 137.34 14.87 137.34L97.6078 136.745C97.6874 136.745 97.7669 136.745 97.8465 136.819C97.926 136.894 97.926 136.968 97.926 137.043C97.7669 139.053 97.5282 140.692 97.0509 142.255C95.6985 146.798 90.6069 151.638 80.5033 151.638C73.582 151.638 67.2971 151.638 61.1713 151.713C55.2842 151.787 49.6358 151.787 43.7487 151.787ZM15.4886 138.628C15.5681 141.309 16.1997 143.745 17.6317 146.351C18.9842 148.66 26.4332 150.269 30.4905 150.269C41.9465 150.343 51.0678 150.849 61.1713 150.775C67.2176 150.775 74.389 150.269 81.3898 150.269C91.0956 150.269 93.7128 146.726 95.856 142.255C96.2538 140.84 96.1758 139.403 96.3349 137.616L15.4886 138.628Z" fill="#232F3E"/>
    <path d="M47.6355 143.689C47.5447 143.068 47.4082 143.149 47.4082 143C47.4082 142.851 47.5673 142.702 47.7264 142.702C53.1362 142.628 58.7051 142.553 64.1149 142.553C64.274 142.553 64.4331 142.702 64.4331 142.851C64.4331 143 64.2448 143.689 64.2448 143.689C58.835 143.689 53.0453 143.615 47.6355 143.689Z" fill="#232F3E"/>
    <g opacity="0.1294">
        <path d="M90.6864 10.9696C82.1739 11.1186 73.6615 10.8207 65.149 10.8952C56.9548 10.8952 48.8401 11.2675 40.7255 11.2675C32.6904 11.1186 24.7348 11.4164 16.6997 11.5654C16.2223 11.5654 15.8246 11.6398 15.5063 11.7888C15.6655 12.0122 15.8246 12.31 15.8246 12.6824C15.8246 13.0547 15.8246 13.5015 15.745 13.8739C15.9837 13.9483 16.3019 14.0228 16.6997 14.0228C24.337 13.9483 32.0539 13.576 39.6912 13.6505C45.817 13.7249 51.8632 13.3526 57.9095 13.3526C69.1268 13.3526 80.3442 13.6505 91.5615 13.576C92.4366 13.576 93.2322 13.5015 94.1073 13.5015H94.1868C94.3459 13.5015 94.3459 13.576 94.3459 13.5015C94.4255 13.5015 94.4255 13.5015 94.505 13.5015C95.6984 13.7249 97.0508 13.2781 97.369 12.5335C97.8464 10.2994 93.6299 10.8207 90.6864 10.9696Z" fill="#232F3E"/>
    </g>
    <path d="M43.8282 122.969C42.9531 122.671 41.9189 122.894 41.2029 123.415C40.5665 123.937 40.3278 124.756 40.4073 125.501C40.4869 125.947 40.646 126.394 41.0438 126.692C41.2825 126.915 41.6802 127.064 42.078 127.139C42.8736 127.362 43.7487 127.362 44.5442 127.064C45.3398 126.766 45.8967 126.245 46.0558 125.575C46.2945 124.607 45.3398 123.564 43.8282 122.969Z" fill="white"/>
    <path d="M43.2712 127.585C42.8735 127.585 42.4757 127.511 42.0779 127.436C41.6006 127.288 41.2824 127.139 40.9641 126.99C40.5664 126.692 40.2481 126.245 40.1686 125.649C40.0095 124.756 40.3277 123.862 41.0437 123.341C41.8392 122.671 43.0326 122.447 43.9077 122.82C45.6579 123.415 46.6126 124.532 46.3739 125.724C46.2148 126.468 45.5784 127.139 44.7032 127.436C44.2259 127.511 43.7486 127.585 43.2712 127.585ZM42.953 123.117C42.3961 123.117 41.8392 123.341 41.3619 123.639C40.805 124.085 40.5663 124.756 40.6459 125.5C40.7255 125.798 40.805 126.245 41.2028 126.468C41.4415 126.617 41.6801 126.766 42.0779 126.841C42.8735 127.064 43.669 126.99 44.385 126.766C45.101 126.543 45.5784 126.022 45.7375 125.5C45.8966 124.607 45.101 123.713 43.669 123.192C43.5099 123.192 43.1917 123.117 42.953 123.117Z" fill="#232F3E"/>
    <path d="M56.9552 122.969C56.0801 122.671 55.0459 122.894 54.3299 123.415C53.6934 123.937 53.4547 124.756 53.5343 125.501C53.6139 125.947 53.773 126.394 54.1707 126.692C54.4094 126.915 54.8072 127.064 55.205 127.139C56.0005 127.362 56.8756 127.362 57.6712 127.064C58.4667 126.766 59.0236 126.245 59.1827 125.575C59.3419 124.607 58.4667 123.564 56.9552 122.969Z" fill="white"/>
    <path d="M56.3982 127.585C56.0004 127.585 55.6026 127.511 55.2049 127.436C54.7275 127.288 54.4093 127.139 54.0911 126.99C53.6933 126.692 53.3751 126.245 53.2955 125.649C53.1364 124.756 53.4546 123.862 54.1706 123.341C54.9662 122.671 56.1595 122.447 57.0346 122.82C58.7849 123.415 59.7395 124.532 59.5009 125.724C59.3417 126.468 58.7053 127.139 57.8302 127.436C57.3529 127.511 56.8755 127.585 56.3982 127.585ZM56.08 123.117C55.5231 123.117 54.9662 123.341 54.4889 123.639C53.932 124.085 53.6933 124.756 53.7729 125.5C53.8524 125.798 53.932 126.245 54.3297 126.468C54.5684 126.617 54.8071 126.766 55.2049 126.841C56.0004 127.064 56.796 126.99 57.512 126.766C58.228 126.543 58.7053 126.022 58.8644 125.5C59.0235 124.607 58.228 123.713 56.796 123.192C56.5573 123.192 56.3186 123.117 56.08 123.117Z" fill="#232F3E"/>
    <path d="M70.0817 122.969C69.2065 122.671 68.1723 122.894 67.4563 123.415C66.8199 123.937 66.5812 124.756 66.6608 125.501C66.7403 125.947 66.8994 126.394 67.2972 126.692C67.5359 126.915 67.9337 127.064 68.3314 127.139C69.127 127.362 70.0021 127.362 70.7977 127.064C71.5932 126.766 72.1501 126.245 72.3092 125.575C72.4683 124.607 71.5932 123.564 70.0817 122.969Z" fill="white"/>
    <path d="M69.5247 127.585C69.1269 127.585 68.7291 127.511 68.3313 127.436C67.854 127.288 67.5358 127.139 67.2175 126.99C66.8198 126.692 66.5015 126.245 66.422 125.649C66.2629 124.756 66.5811 123.862 67.2971 123.341C68.0927 122.671 69.286 122.447 70.1611 122.82C71.9113 123.415 72.866 124.532 72.6273 125.724C72.4682 126.468 71.8318 127.139 70.9567 127.436C70.4793 127.511 70.002 127.585 69.5247 127.585ZM69.2064 123.117C68.6495 123.117 68.0927 123.341 67.6153 123.639C67.0584 124.085 66.8198 124.756 66.8993 125.5C66.9789 125.798 67.0584 126.245 67.4562 126.468C67.6949 126.617 67.9335 126.766 68.3313 126.841C69.1269 127.064 69.9224 126.99 70.6384 126.766C71.3544 126.543 71.8318 126.022 71.9909 125.5C72.15 124.607 71.3544 123.713 69.9224 123.192C69.6838 123.192 69.4451 123.117 69.2064 123.117Z" fill="#232F3E"/>
    <g opacity="0.1294">
        <path d="M46.5331 127.66C46.374 127.213 45.658 126.99 45.1011 127.064C44.8624 127.139 44.5442 127.213 44.3056 127.213C44.1464 127.213 43.9078 127.213 43.8282 127.213C43.5896 127.213 43.3509 127.139 43.1918 127.064C43.0327 126.99 42.9531 126.915 42.794 126.915C42.7144 126.841 42.6349 126.841 42.5553 126.766C42.2371 126.543 41.9984 126.245 41.6007 126.096C40.1687 125.575 38.8958 127.139 40.0096 127.958C40.8847 128.703 41.9189 129.373 43.2713 129.373C44.4647 129.373 47.1696 129.075 46.5331 127.66Z" fill="#232F3E"/>
    </g>
    <g opacity="0.1294">
        <path d="M59.7393 127.511C59.5802 127.213 59.262 126.99 58.8642 126.915C58.3869 126.766 57.9096 126.99 57.5118 127.064C56.8753 127.139 57.114 127.213 56.0798 127.139C56.0002 127.139 56.0002 127.139 55.9207 127.139C54.8865 126.915 55.3638 126.841 54.3296 126.692C52.818 126.469 52.102 128.256 53.3749 128.851C54.3296 129.224 55.2842 129.447 56.3185 129.373C57.7505 129.298 60.4553 129.075 59.7393 127.511Z" fill="#232F3E"/>
    </g>
    <g opacity="0.1294">
        <path d="M70.7182 126.99C70.4795 127.064 69.5248 127.064 69.0475 126.915C68.1724 126.766 68.1724 126.766 67.9337 126.617C67.6155 126.468 67.3768 126.32 66.979 126.245C65.4675 126.022 64.6719 127.809 66.0244 128.405C67.3768 129.149 69.127 129.224 70.7182 128.926C71.3546 128.777 72.1502 128.777 72.5479 128.256C73.2639 127.362 71.9115 126.543 70.7182 126.99Z" fill="#232F3E"/>
    </g>
    <path d="M31.1787 26.5334C31.0991 26.5334 31.0991 26.4589 31.0991 26.4589C31.0991 26.3845 31.1787 26.3845 31.1787 26.3845C36.9067 26.1611 42.6347 26.1611 48.3627 26.3845C48.4422 26.3845 48.4422 26.4589 48.4422 26.4589C48.4422 26.5334 48.3627 26.5334 48.3627 26.5334C42.6347 26.3845 36.8271 26.3845 31.1787 26.5334Z" fill="#232F3E"/>
    <path d="M31.497 31.1504C31.4175 31.1504 31.4175 31.076 31.4175 31.076C31.4175 31.0015 31.497 31.0015 31.497 31.0015L55.3637 30.5547C55.4433 30.5547 55.4433 30.6292 55.4433 30.6292C55.4433 30.7036 55.3637 30.7036 55.3637 30.7036L31.497 31.1504Z" fill="#232F3E"/>
    <path d="M31.5766 35.9909C31.4971 35.9909 31.4971 35.9164 31.4971 35.9164C31.4971 35.8419 31.5766 35.8419 31.5766 35.8419L48.3629 35.693C48.4424 35.693 48.4424 35.7675 48.4424 35.7675C48.4424 35.8419 48.3629 35.8419 48.3629 35.8419L31.5766 35.9909Z" fill="#232F3E"/>
    <path d="M72.5348 22.211C73.203 21.905 74.4651 27.4136 74.4651 27.4136C74.4651 27.4136 79.4393 27.031 79.8105 27.7961C80.256 28.6377 75.7272 31.545 75.7272 31.545C75.7272 31.545 77.5833 37.1301 76.9893 37.4361C76.0984 37.8952 72.4605 34.3758 72.4605 34.3758C72.4605 34.3758 68.5999 37.8187 67.9318 37.4361C67.6348 37.2831 69.3424 31.698 69.3424 31.698C69.3424 31.698 65.1105 29.0202 65.4075 28.2552C65.6302 27.5666 70.5302 27.6431 70.5302 27.6431C70.5302 27.6431 71.6439 22.5936 72.5348 22.211Z" fill="white"/>
    <path d="M76.8409 37.8187C75.8015 37.8187 73.5742 35.8295 72.4606 34.7584C70.6787 36.2886 68.4515 38.0482 67.8575 37.7422C67.6348 37.5892 67.3378 37.5127 69.0454 31.9276C68.6742 31.6981 67.8575 31.1625 67.1151 30.5505C65.1848 29.0203 64.9621 28.5612 65.1106 28.1787C65.1848 27.8727 65.6303 27.5666 68.006 27.4136C68.9712 27.3371 69.8621 27.3371 70.3075 27.3371C70.6045 25.8835 71.4954 22.2876 72.3863 21.905C72.5348 21.8285 72.609 21.8285 72.7575 21.905C73.4999 22.2876 74.3166 25.6539 74.6878 27.0311C76.3212 26.8781 79.6621 26.8016 80.1075 27.6431C80.553 28.5612 77.8802 30.5505 76.1727 31.6981C76.3212 32.1571 76.6924 33.2282 76.9151 34.2993C77.6575 37.1301 77.509 37.5127 77.2121 37.6657C77.0636 37.8187 76.9893 37.8187 76.8409 37.8187ZM72.5348 34.0698C72.609 34.0698 72.6833 34.0698 72.7575 34.1463C74.5393 35.906 76.4696 37.2832 76.9151 37.2067C77.0636 36.6711 76.3212 33.9933 75.5787 31.6216C75.5045 31.4685 75.5787 31.392 75.7272 31.3155C77.8803 29.9384 79.7363 28.3317 79.6621 27.9492C79.4393 27.6431 77.0636 27.4901 74.6136 27.7197C74.4651 27.7197 74.3166 27.6431 74.3166 27.4901C73.7969 25.3479 73.0545 22.8996 72.6833 22.5171C72.2378 22.8996 71.4212 25.5009 70.9757 27.7197C70.9757 27.8727 70.8272 27.9492 70.6787 27.9492C68.6 27.8727 66.1499 28.0257 65.7787 28.3317C65.9272 28.7908 67.8575 30.3209 69.6393 31.4685C69.7136 31.5451 69.7878 31.6981 69.7878 31.7746C69.1196 33.9168 68.4515 36.3651 68.3772 37.1301C69.0454 36.9006 70.9015 35.447 72.4606 34.0698C72.3863 34.1463 72.4606 34.0698 72.5348 34.0698Z" fill="#232F3E"/>
    <path d="M32.8896 97.801C28.5835 97.801 24.2032 97.7245 19.9714 97.648C15.8138 97.5715 11.5078 97.495 7.35019 97.495C7.20171 97.495 7.05322 97.342 7.05322 97.189C7.05322 97.0359 7.20171 96.8829 7.35019 96.8829C11.5078 96.8829 15.8138 96.9594 19.9714 97.0359C27.8411 97.189 35.9335 97.342 43.8775 96.9594C45.5108 96.8829 47.3669 96.7299 48.7775 95.6588C49.5199 95.1232 50.0396 94.1286 50.1881 93.2105C50.2623 92.7515 50.1881 92.0629 49.7426 91.4509C49.1487 90.7623 44.5456 89.4616 42.7638 89.5381C42.6153 89.5381 42.4669 89.4616 42.4669 89.3086C42.4669 89.1556 42.5411 89.0026 42.6896 89.0026C44.5456 88.8496 49.4456 90.2267 50.1138 91.0683C50.6335 91.6804 50.8563 92.4455 50.7078 93.287C50.5593 94.3582 49.9653 95.4293 49.0744 96.1178C47.5896 97.2655 45.585 97.4185 43.8775 97.495C40.2396 97.7245 36.6017 97.801 32.8896 97.801Z" fill="#232F3E"/>
    <path d="M14.4027 97.6481C12.9178 97.2656 11.2103 97.8011 10.1709 98.9487C9.13148 100.096 8.68602 101.933 9.13148 103.463C9.27996 103.922 9.50269 104.457 9.79966 104.84C10.1709 105.222 10.6163 105.528 11.136 105.681C12.4724 106.217 14.1057 106.217 15.3678 105.452C16.63 104.687 17.5209 103.157 17.3724 101.627C17.2981 100.096 16.4815 98.1837 14.4027 97.6481Z" fill="#FFA500"/>
    <path d="M13.1408 106.37C12.4726 106.37 11.7302 106.217 11.062 105.987C10.4681 105.758 9.94837 105.452 9.65141 105.069C9.28019 104.687 9.05747 104.228 8.90898 103.616C8.46353 101.933 8.90898 100.096 10.0226 98.7957C11.1363 97.5715 12.9181 96.9595 14.5514 97.4185C16.7787 97.9541 17.6696 100.02 17.8181 101.703C17.9666 103.31 17.0756 104.993 15.665 105.834C14.8484 106.14 13.9575 106.37 13.1408 106.37ZM13.4378 97.8011C12.3241 97.8011 11.2105 98.2601 10.3938 99.1782C9.42868 100.326 8.98322 101.933 9.42868 103.463C9.57716 103.998 9.79989 104.381 10.0969 104.687C10.3938 104.993 10.765 105.299 11.2847 105.452C12.6211 105.987 14.1802 105.911 15.2938 105.222C16.556 104.534 17.2984 103.004 17.2241 101.626C17.0756 100.096 16.259 98.3366 14.4029 97.8776C14.0317 97.8776 13.7347 97.8011 13.4378 97.8011Z" fill="#232F3E"/>
    <path d="M43.5799 97.6481C42.0951 97.2656 40.3875 97.8011 39.3481 98.9487C38.3087 100.096 37.8633 101.933 38.3087 103.463C38.4572 103.922 38.6799 104.457 38.9769 104.84C39.3481 105.222 39.7936 105.528 40.3133 105.681C41.6496 106.217 43.283 106.217 44.5451 105.452C45.8072 104.687 46.6981 103.157 46.5496 101.627C46.4754 100.096 45.6587 98.1837 43.5799 97.6481Z" fill="#FFA500"/>
    <path d="M42.318 106.37C41.6499 106.37 40.9074 106.217 40.2393 105.987C39.6453 105.758 39.1256 105.452 38.8287 105.069C38.4574 104.687 38.2347 104.228 38.0862 103.616C37.6408 101.933 38.0862 100.096 39.1999 98.7957C40.3135 97.5715 42.0953 96.9595 43.7287 97.4185C45.9559 97.9541 46.8468 100.02 46.9953 101.703C47.1438 103.31 46.2529 104.993 44.8423 105.834C44.0256 106.14 43.209 106.37 42.318 106.37ZM42.615 97.8011C41.5014 97.8011 40.3877 98.2601 39.5711 99.1782C38.6059 100.326 38.1605 101.933 38.6059 103.463C38.7544 103.998 38.9771 104.381 39.2741 104.687C39.5711 104.993 39.9423 105.299 40.462 105.452C41.7983 105.987 43.3574 105.911 44.4711 105.222C45.7332 104.534 46.4756 103.004 46.4014 101.626C46.2529 100.096 45.4362 98.3366 43.5802 97.8776C43.209 97.8776 42.912 97.8011 42.615 97.8011Z" fill="#232F3E"/>
    <path d="M55.0878 60.3121C53.4545 70.4877 50.1136 88.8496 41.5015 89.5382C33.9287 90.1503 27.0984 89.9973 17.7439 89.9973C14.106 89.9973 10.1712 89.2322 7.72116 86.0189C6.3848 84.3357 5.71662 82.0404 5.04844 79.8982C3.11813 73.6245 1.18783 67.4274 0.148438 61.0772C19.2287 61.0772 37.8636 60.3121 55.0878 60.3121Z" fill="white"/>
    <path d="M26.2076 90.3032C24.9455 90.3032 23.6833 90.3032 22.347 90.3032C20.9364 90.3032 19.4515 90.3032 17.8924 90.3032C13.2152 90.3032 9.72576 88.9261 7.64697 86.2483C6.31061 84.4886 5.56818 82.1169 4.9 80.0512C3.04394 73.9305 1.03939 67.5803 0 61.2302C0 61.1537 0 61.0772 0.0742424 61.0007C0.148485 60.9241 0.222727 60.9241 0.29697 60.9241C10.0227 60.9241 19.7485 60.6946 29.103 60.5416C38.2348 60.3886 46.847 60.1591 55.2364 60.1591C55.3106 60.1591 55.3848 60.1591 55.4591 60.2356C55.5333 60.3121 55.5333 60.3886 55.5333 60.4651C54.5682 66.2797 53.3803 73.0124 51.3015 78.674C48.7773 85.8658 45.5106 89.6147 41.65 89.9207C36.453 90.2267 31.7015 90.3032 26.2076 90.3032ZM0.519697 61.3832C1.55909 67.5803 3.48939 73.7775 5.34545 79.8216C5.93939 81.8874 6.68182 84.1826 8.01818 85.8658C10.0227 88.4671 13.2894 89.7677 17.8182 89.7677C19.3773 89.7677 20.8621 89.7677 22.2727 89.7677C29.4742 89.7677 35.1909 89.7677 41.5015 89.3086C45.1394 89.0026 48.1833 85.4067 50.6333 78.4445C52.6379 72.8594 53.8258 66.3562 54.7167 60.6181C46.4015 60.6181 37.9379 60.7711 28.9545 61.0007C19.7485 61.1537 10.1712 61.3832 0.519697 61.3832Z" fill="#232F3E"/>
    <path d="M55.088 61.0006C55.0137 61.0006 55.088 61.0006 55.088 61.0006C54.8653 61.0006 54.791 60.8476 54.791 60.6946C55.088 58.0168 55.6077 55.339 56.2016 52.7378C56.2759 52.4317 56.3501 52.0492 56.6471 51.8197C56.944 51.5901 57.241 51.5901 57.4637 51.5136L72.6834 49.8304C72.8319 49.8304 72.9804 49.907 72.9804 50.06C72.9804 50.213 72.9062 50.366 72.7577 50.366L57.6122 52.0492C57.3895 52.0492 57.1668 52.1257 57.0183 52.2022C56.8698 52.3552 56.7956 52.5847 56.7213 52.8143C56.1274 55.4155 55.6077 58.0933 55.3107 60.6946C55.3107 60.8476 55.2365 61.0006 55.088 61.0006Z" fill="#232F3E"/>
    <path d="M62.8089 53.7324C61.6952 53.2733 61.4725 51.7431 62.5119 51.0546C63.0316 50.7485 63.6998 50.5955 64.2937 50.519C66.0755 50.213 67.9316 49.9835 69.7134 49.6774C70.827 49.5244 71.9407 49.3714 72.9801 49.6774C74.0195 49.9835 74.8361 50.9781 74.4649 51.8196C74.0937 52.6612 72.9801 52.9673 71.9407 53.1203C68.971 53.6558 65.5558 54.88 62.8089 53.7324Z" fill="#FFA500"/>
    <path d="M65.4818 54.4974C64.5166 54.4974 63.6257 54.3444 62.7348 53.9619C62.0666 53.6558 61.6212 53.1203 61.6212 52.4317C61.5469 51.7431 61.8439 51.1311 62.3636 50.825C62.9575 50.4425 63.6999 50.366 64.2939 50.213L69.7136 49.3714C70.753 49.2184 72.0151 49.0654 73.1287 49.3714C73.8712 49.6009 74.5393 50.1365 74.7621 50.7485C74.9106 51.1311 74.9848 51.5901 74.7621 51.9727C74.3166 52.8908 73.1287 53.2733 72.0893 53.4263C71.4954 53.5028 70.8272 53.6558 70.159 53.8089C68.5257 54.1914 66.9666 54.4974 65.4818 54.4974ZM62.8833 53.5028C64.9621 54.4209 67.4863 53.8089 69.9363 53.2733C70.6045 53.1203 71.2727 52.9673 71.8666 52.8908C72.6833 52.7377 73.8712 52.4317 74.1681 51.7431C74.2424 51.5136 74.2424 51.2841 74.1681 51.0546C73.9454 50.5955 73.4257 50.213 72.8318 49.9835C71.7924 49.6774 70.6787 49.8304 69.6393 49.9835L64.2196 50.825C63.6257 50.9016 63.0318 50.9781 62.5121 51.2841C62.1409 51.5136 61.9924 51.9727 61.9924 52.3552C62.1408 52.8908 62.4378 53.2733 62.8833 53.5028Z" fill="#232F3E"/>
    <path d="M11.4334 88.8496C10.9137 82.576 10.7652 76.2258 10.691 70.1051C10.6167 67.1978 10.6167 64.1375 10.4683 61.1537H10.691C10.7652 64.1375 10.8395 67.1978 10.9137 70.1051C10.988 76.2258 11.1364 82.576 11.6561 88.8496H11.4334Z" fill="#232F3E"/>
    <path d="M20.0456 89.9972C19.8228 85.1772 19.8228 80.2807 19.8228 75.5372C19.8228 70.7937 19.8228 65.8972 19.6001 61.0771H19.7486C19.9713 65.8972 19.9713 70.7937 19.9713 75.5372C19.9713 80.2807 19.9713 85.1772 20.194 89.9972H20.0456Z" fill="#232F3E"/>
    <path d="M28.9544 89.9972H28.7316C28.7316 84.6417 28.5832 79.1331 28.4347 73.854C28.3604 69.7226 28.2119 65.3616 28.1377 61.1537H28.3604C28.4347 65.3616 28.5089 69.7226 28.6574 73.854C28.8059 79.1331 28.9544 84.5652 28.9544 89.9972Z" fill="#232F3E"/>
    <path d="M37.7151 89.3852C37.3439 79.9747 37.0469 70.3347 36.9727 60.8477H37.1954C37.3439 70.3347 37.5666 79.9747 38.012 89.3852H37.7151Z" fill="#232F3E"/>
    <path d="M46.4758 86.8604H46.253C46.253 82.576 46.1788 78.215 46.0303 74.0071C46.0303 69.7226 45.9561 65.2851 45.9561 60.8477H46.1788C46.1788 65.2851 46.253 69.7226 46.4015 74.0836C46.4015 78.2915 46.4758 82.576 46.4758 86.8604Z" fill="#232F3E"/>
    <path d="M2.74709 70.8702L2.67285 70.6407C2.67285 70.6407 2.67285 70.6407 2.74709 70.6407C18.1153 70.6407 36.0077 70.5642 53.5289 69.5696V69.7226C36.0077 70.7937 18.1153 70.8702 2.74709 70.8702Z" fill="#232F3E"/>
    <path d="M5.271 80.4337V80.2042C19.8225 80.2042 35.4134 80.0512 50.8558 79.2096V79.3626C35.4134 80.2807 19.8225 80.4337 5.271 80.4337Z" fill="#232F3E"/>
    <g opacity="0.1294">
        <path d="M74.0941 50.519C73.9456 50.4425 73.7229 50.519 73.5744 50.5955C73.5002 50.5955 73.5002 50.672 73.4259 50.672C72.7578 50.9015 72.0896 51.1311 71.3471 51.2841C69.9365 51.5136 68.6002 51.8196 67.1896 52.1257C66.4471 52.2022 65.7047 52.1257 64.9623 52.2022C64.3684 52.2022 63.7744 52.2022 63.2547 52.1257C62.9578 52.0492 62.5865 51.9727 62.2896 51.9727C61.3987 52.0492 61.3244 53.5028 62.1411 53.7323C63.7002 54.1149 65.3335 53.8854 66.8926 53.8088C67.932 53.6558 68.9714 53.3498 70.0108 53.1968C71.1987 52.9673 72.3865 52.8142 73.5744 52.3552C73.6487 52.3552 73.8714 52.2787 74.0199 52.2022C74.2426 52.1257 74.4653 52.0492 74.6138 51.7431C74.9108 51.2841 74.6138 50.5955 74.0941 50.519Z" fill="#232F3E"/>
    </g>
    <g opacity="0.1294">
        <path d="M16.4078 103.08C16.1108 103.233 16.0366 103.31 15.9624 103.386C15.8139 103.463 15.7396 103.616 15.5911 103.692C15.6654 103.616 15.6654 103.616 15.7396 103.616L15.6654 103.692C14.626 104.457 14.5517 104.304 14.1805 104.457C13.0669 104.534 12.176 104.534 11.7305 104.304H11.6563C11.5078 104.228 11.3593 104.151 11.2851 104.075C11.2108 104.075 11.2108 103.998 11.1366 103.998C10.9139 103.845 10.6169 103.386 10.5427 103.31C10.3942 103.08 10.2457 102.851 9.94872 102.774C9.28054 102.544 8.6866 103.386 9.05781 103.998C10.1714 105.758 11.4336 106.446 13.4381 106.523C14.7745 106.599 16.1851 105.987 17.0017 104.84C17.076 104.687 17.2987 104.381 17.076 104.687C17.1502 104.61 17.2245 104.457 17.2987 104.381C17.373 104.304 17.4472 104.151 17.4472 103.998C17.373 103.386 16.8533 102.927 16.4078 103.08Z" fill="#232F3E"/>
    </g>
    <g opacity="0.1294">
        <path d="M46.55 103.769C46.4015 103.31 45.8818 103.08 45.5106 103.31C45.1393 103.616 45.3621 103.463 45.1393 103.692C44.3227 104.228 44.3227 104.228 43.3575 104.457C43.209 104.457 43.0606 104.534 42.8378 104.534C42.6893 104.534 42.1697 104.534 42.0212 104.534C41.2045 104.457 40.4621 104.075 40.2393 103.998C39.7196 103.845 39.2742 103.31 38.6803 103.463C38.0121 103.616 37.8636 104.61 38.4575 104.993C39.2 105.375 39.9424 105.758 40.759 105.987C42.0212 106.293 43.3575 106.293 44.5454 105.758C45.2878 105.375 46.6984 104.763 46.55 103.769Z" fill="#232F3E"/>
    </g>
    <g opacity="0.1294">
        <path d="M46.8472 85.1007C46.4759 85.1007 46.2532 85.4067 45.9562 85.5597C45.2881 86.0188 45.2138 86.0188 44.7684 86.1718C43.3578 86.6308 41.9472 87.2429 40.5365 87.3959C39.7199 87.5489 36.5275 87.5489 34.8941 87.5489C31.6275 87.6255 28.3608 87.702 25.0941 87.4724C23.2381 87.3194 21.382 87.4724 19.5259 87.3194C18.3381 87.2429 16.185 87.1664 15.8138 87.0899C14.6259 86.8604 13.4381 86.6309 12.2502 86.3248C11.582 86.0953 10.9138 85.8658 10.2456 85.6362C10.1714 85.5597 10.1714 85.5597 10.1714 85.6362C9.6517 85.4832 9.20624 84.9477 8.68655 85.1007C7.94412 85.2537 7.79564 86.4778 8.46382 86.8604C8.90927 87.0899 9.42897 87.3959 9.87442 87.5489C9.87442 87.7785 10.0229 87.9315 10.2456 88.0845C12.4729 89.5382 15.2199 89.7677 17.7441 89.9207C19.3775 90.0737 21.0108 90.1502 22.6441 89.9972C23.535 89.9207 24.5002 90.0737 25.3911 89.9207C25.6138 89.8442 25.6881 89.6912 25.7623 89.4616C26.579 89.5382 27.3956 89.5382 28.2123 89.5382C29.9941 89.5382 31.7017 89.4617 33.4093 89.3851C34.9684 89.3851 36.5275 89.3851 38.0865 89.3086C38.3093 89.3086 38.4578 89.3086 38.6805 89.3086C38.6805 89.5382 38.829 89.7677 39.0517 89.8442C39.2744 89.9972 39.4972 89.9972 39.7199 89.9207C40.2396 89.9207 40.685 89.8442 41.1305 89.6912C42.3926 89.3851 43.729 89.0791 44.7684 88.2375C45.0653 88.008 45.3623 87.855 45.4365 87.4724C45.4365 87.4724 45.4365 87.4724 45.4365 87.3959C46.179 87.0899 46.8472 86.7074 47.4411 86.1718C47.8123 85.9423 47.4411 85.1007 46.8472 85.1007Z" fill="#232F3E"/>
    </g>
    <path d="M105.327 84.6415C105.847 93.899 106.589 103.08 107.628 112.261C99.3876 112.108 86.8406 112.261 78.3027 112.108C78.9709 103.003 79.6391 93.8225 80.233 84.718C88.4739 85.2535 96.7149 85.3301 105.327 84.6415Z" fill="#FFA500"/>
    <path d="M107.703 112.49C103.619 112.414 98.4225 112.414 93.374 112.414C88.1028 112.414 82.6831 112.414 78.377 112.337C78.3028 112.337 78.2286 112.337 78.1543 112.261C78.0801 112.184 78.0801 112.108 78.0801 112.031C78.7483 103.156 79.4164 93.899 80.0104 84.6415C80.0104 84.565 80.0846 84.4885 80.0846 84.412C80.1589 84.3354 80.2331 84.3354 80.3074 84.3354C88.8452 84.9475 97.0119 84.9475 105.327 84.3354C105.401 84.3354 105.476 84.3354 105.55 84.412C105.624 84.4885 105.624 84.565 105.624 84.6415C106.069 93.8224 106.886 103.08 107.926 112.184C107.926 112.261 107.926 112.337 107.851 112.414C107.851 112.49 107.777 112.49 107.703 112.49ZM96.121 111.878C100.13 111.878 104.065 111.878 107.332 111.955C106.292 103.003 105.55 93.9755 105.03 84.9475C96.8634 85.5596 88.8452 85.5596 80.4558 84.9475C79.8619 94.052 79.1937 103.08 78.5255 111.802C82.8316 111.878 88.1028 111.878 93.2255 111.878C94.2649 111.878 95.2301 111.878 96.121 111.878Z" fill="#232F3E"/>
    <path d="M88.771 88.9259C88.474 88.2374 87.7316 87.7783 86.9892 87.7783C86.2467 87.7783 85.5786 88.3139 85.3558 89.079C85.2073 89.538 85.2074 89.9971 85.5043 90.4561C85.727 90.8386 86.0983 91.0682 86.4695 91.1447C86.9892 91.2977 87.6574 91.2212 88.1028 90.9152C88.6225 90.6091 89.2164 89.844 88.771 88.9259Z" fill="white"/>
    <path d="M87.0633 91.5272C86.8405 91.5272 86.6178 91.5272 86.3951 91.4507C85.8754 91.2977 85.5042 90.9917 85.2072 90.6092C84.9102 90.1501 84.836 89.538 85.0587 89.0025C85.3557 88.1609 86.0981 87.5488 86.989 87.5488C87.8057 87.5488 88.6966 88.0079 88.9936 88.8495C89.439 89.8441 88.8451 90.7622 88.2511 91.1447C87.9542 91.3742 87.5087 91.5272 87.0633 91.5272ZM87.0633 88.0844C86.3951 88.0844 85.8011 88.5434 85.5784 89.1555C85.4299 89.538 85.5042 89.9971 85.6526 90.2266C85.8011 90.4561 86.0981 90.6857 86.4693 90.7622C86.989 90.9152 87.5087 90.8387 87.8799 90.6092C88.1026 90.4561 88.8451 89.8441 88.3996 89.0025C88.2511 88.4669 87.6572 88.0844 87.0633 88.0844Z" fill="#232F3E"/>
    <path d="M101.021 89.232C100.724 88.5434 99.9816 88.0844 99.2392 88.0844C98.4967 88.0844 97.8286 88.6199 97.6058 89.385C97.4573 89.844 97.4574 90.3031 97.7543 90.7621C97.977 91.1447 98.3483 91.3742 98.7195 91.4507C99.2392 91.6037 99.9074 91.5272 100.353 91.2212C100.873 90.8386 101.392 90.1501 101.021 89.232Z" fill="white"/>
    <path d="M99.3133 91.7567C99.0905 91.7567 98.8678 91.7567 98.6451 91.6802C98.1254 91.5272 97.7542 91.2212 97.4572 90.8386C97.1602 90.3796 97.086 89.7675 97.3087 89.232C97.6057 88.3904 98.3481 87.7783 99.239 87.7783C100.056 87.7783 100.947 88.2374 101.244 89.079C101.689 90.0736 101.095 90.9917 100.501 91.3742C100.204 91.6037 99.7587 91.7567 99.3133 91.7567ZM99.3133 88.3904C99.239 88.3904 99.3133 88.3904 99.3133 88.3904C98.6451 88.3904 98.0511 88.8494 97.8284 89.4615C97.6799 89.844 97.7542 90.3031 97.9026 90.5326C98.0511 90.7621 98.3481 90.9917 98.7193 91.0682C99.239 91.2212 99.7587 91.1447 100.13 90.9152C100.353 90.7621 101.095 90.1501 100.65 89.3085C100.501 88.7729 99.9072 88.3904 99.3133 88.3904Z" fill="#232F3E"/>
    <path d="M99.1652 89.9206C99.0167 89.9206 98.8682 89.7676 98.8682 89.6145C99.0909 87.3958 98.7939 85.0241 98.0515 82.8818C97.6803 81.7342 97.2349 81.0456 96.6409 80.5101C96.047 79.9745 95.3046 79.592 94.2652 79.3625C93.2258 79.1329 92.1864 79.2094 91.3697 79.439C89.8106 79.9745 88.4743 81.5047 87.8061 83.4939C87.2121 85.3301 87.1379 87.3958 87.1379 89.3085C87.1379 89.4615 86.9894 89.6145 86.8409 89.6145C86.6924 89.6145 86.5439 89.4615 86.5439 89.3085C86.5439 87.3193 86.6182 85.2536 87.2121 83.3409C87.9546 81.1221 89.3652 79.5155 91.147 78.9034C92.1121 78.5974 93.2258 78.5209 94.3394 78.8269C95.453 79.0564 96.2697 79.5155 96.9379 80.1275C97.7546 80.8926 98.2 81.9637 98.497 82.7288C99.3136 84.9475 99.6106 87.3193 99.3879 89.6911C99.4621 89.7676 99.3136 89.9206 99.1652 89.9206Z" fill="#232F3E"/>
    <path d="M80.1587 110.807C80.0845 110.807 80.0845 110.731 80.0845 110.731C80.3072 106.37 80.6784 102.009 81.0496 97.7245C81.0496 97.648 81.1239 97.6479 81.1239 97.6479C81.1981 97.6479 81.1981 97.7245 81.1981 97.7245C80.8269 102.009 80.4557 106.446 80.233 110.731C80.3072 110.731 80.233 110.807 80.1587 110.807Z" fill="#232F3E"/>
    <path d="M82.312 110.119C82.2378 110.119 82.2378 110.042 82.2378 110.042V106.905C82.2378 106.829 82.312 106.829 82.312 106.829C82.3863 106.829 82.3863 106.905 82.3863 106.905V110.042C82.4605 110.042 82.3863 110.119 82.312 110.119Z" fill="#232F3E"/>
</svg>
