<svg width="80" height="24" viewBox="0 0 80 24" fill="none" xmlns="http://www.w3.org/2000/svg">
<g clip-path="url(#clip0_2769_3543)">
<path d="M38.6014 16.0562H36.2704C36.0839 16.0562 35.8974 16.0562 35.8042 15.9612C35.711 15.8662 35.711 15.7711 35.711 15.5811V5.32041C35.711 5.13039 35.711 4.94038 35.8042 4.94038C35.9907 4.84537 36.0839 4.75037 36.2704 4.75037H38.7879C38.9744 4.75037 39.0676 4.75037 39.2541 4.84537C39.3473 4.94038 39.4406 5.03539 39.5338 5.2254L40.9324 7.79058C40.9324 7.88559 41.0256 7.9806 41.0256 7.9806C41.0256 7.9806 41.1189 8.0756 41.2121 8.0756H41.3054C41.3986 8.0756 41.3986 8.0756 41.4918 7.9806C41.4918 7.9806 41.5851 7.88559 41.5851 7.79058L42.9837 5.2254C43.0769 5.03539 43.1702 4.94038 43.2634 4.84537C43.4499 4.84537 43.5431 4.75037 43.7296 4.75037H46.2471C46.4336 4.75037 46.62 4.75037 46.7133 4.84537C46.8065 4.94038 46.8065 5.03539 46.8065 5.2254V15.3911C46.8065 15.5811 46.8065 15.7711 46.7133 15.7711C46.62 15.8662 46.5268 15.8662 46.2471 15.8662H43.8228C43.6364 15.8662 43.4499 15.8662 43.3566 15.7711C43.2634 15.6761 43.2634 15.5811 43.2634 15.3911V9.88073L42.331 11.5909C42.2378 11.7809 42.1445 11.8759 41.958 11.9709C41.8648 12.0659 41.6783 12.0659 41.4918 12.0659H40.8392C40.6527 12.0659 40.4662 12.0659 40.373 11.9709C40.2797 11.8759 40.0932 11.7809 40 11.5909L39.0676 9.88073V15.3911C39.0676 15.5811 39.0676 15.7711 38.9744 15.7711C38.9744 16.0562 38.7879 16.0562 38.6014 16.0562Z" fill="#232F3E"/>
<path d="M52.1212 15.4861C52.1212 15.6761 52.1212 15.8662 52.028 15.8662C51.9347 15.9612 51.8415 15.9612 51.5618 15.9612H49.324C49.1375 15.9612 48.951 15.9612 48.8578 15.8662C48.7646 15.7711 48.7646 15.6761 48.7646 15.4861V11.4008C48.7646 11.1158 48.7646 10.7358 48.951 10.3558C49.0443 9.97574 49.2308 9.5007 49.4172 8.93066L50.7226 5.41541C50.8158 5.2254 50.9091 5.13039 51.0023 5.03539C51.0956 4.84537 51.282 4.75037 51.4685 4.75037H55.6643C55.8508 4.75037 56.0373 4.75037 56.1305 4.84537C56.2238 4.94038 56.317 5.03539 56.4102 5.2254L57.8088 8.83566C57.9953 9.4057 58.1818 9.88073 58.275 10.2608C58.3683 10.6408 58.4615 11.0208 58.4615 11.3058V15.4861C58.4615 15.6761 58.4615 15.8662 58.3683 15.8662C58.275 15.9612 58.1818 15.9612 57.9021 15.9612H55.5711C55.3846 15.9612 55.1981 15.9612 55.1049 15.8662C55.0116 15.7711 54.9184 15.6761 54.9184 15.4861V13.301H52.2144L52.1212 15.4861ZM52.9604 8.0756L52.2144 10.4508H54.6387L53.8928 8.0756C53.8928 7.9806 53.7995 7.88559 53.7995 7.88559C53.7995 7.88559 53.7063 7.79058 53.613 7.79058H53.2401C53.1468 7.79058 53.1468 7.79058 53.0536 7.88559C53.0536 7.88559 53.0536 7.9806 52.9604 8.0756Z" fill="#232F3E"/>
<path d="M63.2168 16.0562H60.7925C60.6061 16.0562 60.4196 16.0562 60.3263 15.9612C60.2331 15.8662 60.2331 15.7711 60.2331 15.5811V5.32041C60.2331 5.13039 60.2331 4.94038 60.3263 4.94038C60.5128 4.84537 60.6061 4.75037 60.7925 4.75037H66.014C67.1329 4.75037 67.972 5.03539 68.4382 5.51042C68.9044 5.98545 69.0909 6.6505 69.0909 7.41056V8.17061C69.0909 8.64564 68.9977 8.93066 68.9044 9.31069C68.8112 9.59571 68.5315 9.88073 68.2518 9.97574C68.8112 10.0707 69.2774 10.2608 69.5571 10.6408C69.9301 11.0208 70.1166 11.5909 70.1166 12.2559V15.5811C70.1166 15.7711 70.1166 15.9612 70.0233 15.9612C69.9301 16.0562 69.8368 16.0562 69.5571 16.0562H67.1329C66.9464 16.0562 66.7599 16.0562 66.6667 15.9612C66.5734 15.8662 66.5734 15.7711 66.5734 15.5811V13.206C66.5734 13.016 66.5734 12.8259 66.4802 12.7309C66.387 12.6359 66.2005 12.5409 66.014 12.5409H63.8695V15.5811C63.8695 15.7711 63.8695 15.9612 63.7762 15.9612C63.5898 16.0562 63.4033 16.0562 63.2168 16.0562ZM63.7762 7.60057V9.59571H64.9884C65.2681 9.59571 65.4546 9.5007 65.5478 9.4057C65.641 9.31069 65.641 9.12068 65.641 8.83566V8.36062C65.641 8.17061 65.641 7.9806 65.5478 7.79058C65.3613 7.69558 65.2681 7.60057 64.9884 7.60057H63.7762Z" fill="#232F3E"/>
<path d="M76.6433 16.0562H74.1259C73.9394 16.0562 73.7529 16.0562 73.6597 15.9612C73.5664 15.8662 73.5664 15.7711 73.5664 15.5811V7.79058H71.3287C71.1422 7.79058 70.9557 7.79058 70.8625 7.69558C70.7692 7.60057 70.7692 7.50556 70.7692 7.31555V5.41541C70.7692 5.2254 70.7692 5.03539 70.8625 5.03539C70.9557 4.84537 71.0489 4.75037 71.2354 4.75037H79.4406C79.627 4.75037 79.8135 4.75037 79.9068 4.84537C80 4.94038 80 5.03539 80 5.2254V7.12553C80 7.31555 80 7.50556 79.9068 7.50556C79.8135 7.60057 79.7203 7.60057 79.4406 7.60057H77.2028V15.2961C77.2028 15.4861 77.2028 15.6761 77.1095 15.6761C76.9231 16.0562 76.8298 16.0562 76.6433 16.0562Z" fill="#232F3E"/>
<path d="M9.41725 7.12553L10.2564 4.75037H0.559441C0.37296 4.75037 0.18648 4.75037 0.0932401 4.84537C0 5.03539 0 5.13039 0 5.32041V7.22054C0 7.41055 0 7.60057 0.0932401 7.69558C0.18648 7.79058 0.27972 7.79058 0.559441 7.79058H2.7972V15.4861C2.7972 15.6761 2.7972 15.8662 2.89044 15.8662C2.98368 15.9612 3.07692 15.9612 3.35664 15.9612H5.87413C6.06061 15.9612 6.24709 15.9612 6.34033 15.8662C6.43357 15.7711 6.43357 15.6761 6.43357 15.4861V7.79058H9.04429C9.23077 7.60057 9.32401 7.31555 9.41725 7.12553Z" fill="white"/>
<path d="M25.3613 7.12553L24.4289 4.75037H34.1259C34.3124 4.75037 34.4988 4.75037 34.5921 4.84537C34.6853 4.94038 34.6853 5.03539 34.6853 5.2254V7.12553C34.6853 7.31555 34.6853 7.50556 34.5921 7.50556C34.4988 7.60057 34.4056 7.60057 34.1259 7.60057H31.8881V15.2961C31.8881 15.4861 31.8881 15.6761 31.7949 15.6761C31.7016 15.7711 31.6084 15.7711 31.3287 15.7711H28.8112C28.6247 15.7711 28.4382 15.7711 28.345 15.6761C28.2518 15.5811 28.2518 15.4861 28.2518 15.2961V7.79058H25.641C25.4545 7.60057 25.4546 7.31555 25.3613 7.12553Z" fill="white"/>
<path d="M24.8951 8.83563C24.7086 8.17058 24.5222 7.41053 24.1492 6.55547L21.9114 0.760054C21.8182 0.475034 21.6317 0.28502 21.4452 0.0950067C21.352 0.0950067 21.0723 0 20.6993 0H13.986C13.6131 0 13.4266 0.0950067 13.1469 0.190013C12.9604 0.28502 12.7739 0.57004 12.6807 0.855061L10.5361 6.65047C10.1632 7.50553 9.9767 8.26559 9.79022 8.93063C9.60374 9.59568 9.5105 10.1657 9.5105 10.6408V17.2912C9.5105 17.5762 9.60374 17.8613 9.69698 17.9563C9.79022 18.0513 10.0699 18.1463 10.3497 18.1463H12.2145H13.986H15.1049V11.1158C13.2401 9.97571 12.5874 7.31552 13.8928 5.41538C13.986 5.22537 14.1725 5.13036 14.2657 4.94035C14.4522 4.75034 14.6387 4.65533 14.8252 4.75034C15.0117 4.84534 15.1049 5.03536 15.1049 5.22537C15.1049 5.98542 15.1049 6.74548 15.1049 7.50553C15.1049 7.60054 15.1049 7.60054 15.1049 7.69555C16.5035 7.69555 17.8089 7.69555 19.1142 7.69555C19.1142 7.69555 19.1142 7.60054 19.1142 7.50553C19.1142 6.74548 19.1142 5.98542 19.1142 5.22537C19.1142 5.03536 19.2075 4.84534 19.3939 4.75034C19.5804 4.65533 19.7669 4.75034 19.9534 4.84534C20.0466 4.94035 20.2331 5.13036 20.3264 5.32038C21.352 6.74548 21.352 8.55061 20.3264 9.97571C19.9534 10.4507 19.5804 10.8308 19.021 11.1158V18.0513H20.1399H21.4452H24.2424C24.5222 18.0513 24.8019 17.9563 24.8951 17.8613C24.9884 17.7663 25.0816 17.4812 25.0816 17.1962V10.5457C25.1748 10.1657 25.0816 9.59568 24.8951 8.83563Z" fill="white"/>
<path d="M63.8695 23.3716H62.3776C62.2844 23.3716 62.1911 23.3716 62.1911 23.2766C62.1911 23.2766 62.0979 23.1816 62.0979 23.0866V21.5665C62.0979 21.4715 62.0979 21.3765 62.1911 21.3765C62.1911 21.3765 62.2844 21.2815 62.3776 21.2815H63.8695C63.9627 21.2815 64.0559 21.2815 64.0559 21.3765C64.0559 21.3765 64.1492 21.4715 64.1492 21.5665V23.0866C64.1492 23.1816 64.1492 23.2766 64.0559 23.2766C64.0559 23.2766 63.9627 23.3716 63.8695 23.3716Z" fill="white"/>
<path d="M68.4382 23.3716H66.6667C66.1072 23.3716 65.641 23.2766 65.3613 22.9916C65.0816 22.7066 64.8951 22.3266 64.8951 21.8515V19.5714C64.8951 19.0963 65.0816 18.7163 65.3613 18.4313C65.641 18.1463 66.1072 18.0513 66.6667 18.0513H68.4382C68.5315 18.0513 68.6247 18.0513 68.6247 18.1463C68.6247 18.1463 68.718 18.2413 68.718 18.3363V19.1914C68.718 19.2864 68.718 19.3814 68.6247 19.3814C68.6247 19.3814 68.5315 19.4764 68.4382 19.4764H66.9464C66.7599 19.4764 66.6667 19.4764 66.5734 19.5714C66.4802 19.6664 66.4802 19.7614 66.4802 19.8564V21.5665C66.4802 21.6615 66.4802 21.7565 66.5734 21.8515C66.6667 21.9465 66.7599 21.9465 66.9464 21.9465H68.4382C68.5315 21.9465 68.6247 21.9465 68.6247 22.0416C68.6247 22.0416 68.718 22.1366 68.718 22.2316V23.0866C68.718 23.1816 68.718 23.2766 68.6247 23.2766C68.6247 23.2766 68.6247 23.3716 68.4382 23.3716Z" fill="white"/>
<path d="M73.9394 21.9465C73.9394 22.1366 73.9394 22.3266 73.8461 22.5166C73.7529 22.7066 73.6597 22.8966 73.4732 22.9916C73.2867 23.0866 73.1002 23.1816 72.8205 23.2766C72.5408 23.3716 72.1678 23.3716 71.7016 23.3716C71.2354 23.3716 70.8625 23.3716 70.5827 23.2766C70.303 23.1816 70.0233 23.0866 69.9301 22.9916C69.7436 22.8966 69.6503 22.7066 69.5571 22.5166C69.4639 22.3266 69.4639 22.1366 69.4639 21.9465V19.4764C69.4639 19.2864 69.4639 19.0963 69.5571 18.9063C69.6503 18.7163 69.7436 18.5263 69.9301 18.4313C70.1165 18.3363 70.303 18.2413 70.5827 18.1463C70.8625 18.0513 71.2354 18.0513 71.7016 18.0513C72.1678 18.0513 72.5408 18.0513 72.8205 18.1463C73.1002 18.2413 73.38 18.3363 73.4732 18.4313C73.6597 18.5263 73.7529 18.7163 73.8461 18.9063C73.9394 19.0963 73.9394 19.2864 73.9394 19.4764V21.9465ZM71.1422 21.6615C71.1422 21.7565 71.1422 21.8515 71.2354 21.9465C71.3287 22.0416 71.5152 22.0416 71.7016 22.0416C71.9814 22.0416 72.1678 22.0416 72.1678 21.9465C72.2611 21.8515 72.2611 21.7565 72.2611 21.6615V19.6664C72.2611 19.5714 72.2611 19.4764 72.1678 19.3814C72.0746 19.2864 71.8881 19.2864 71.7016 19.2864C71.4219 19.2864 71.2354 19.2864 71.2354 19.3814C71.1422 19.4764 71.1422 19.4764 71.1422 19.6664V21.6615Z" fill="white"/>
<path d="M76.1772 23.3716H75.0583C74.965 23.3716 74.8718 23.3716 74.8718 23.2766C74.8718 23.2766 74.7785 23.1816 74.7785 23.0866V18.3363C74.7785 18.2413 74.7786 18.1463 74.8718 18.1463C74.8718 18.1463 74.965 18.0513 75.0583 18.0513H76.2704C76.3636 18.0513 76.3636 18.0513 76.4569 18.0513C76.5501 18.0513 76.5501 18.1463 76.5501 18.2413L77.2028 19.3814C77.2028 19.3814 77.2028 19.4764 77.296 19.4764C77.296 19.4764 77.296 19.4764 77.3893 19.4764H77.4825C77.4825 19.4764 77.4825 19.4764 77.5758 19.4764C77.5758 19.4764 77.5758 19.4764 77.669 19.3814L78.3217 18.2413C78.3217 18.1463 78.4149 18.1463 78.4149 18.0513C78.4149 18.0513 78.5082 18.0513 78.6014 18.0513H79.8135C79.9068 18.0513 80 18.0513 80 18.1463C80 18.1463 80.0932 18.2413 80.0932 18.3363V23.0866C80.0932 23.1816 80.0932 23.2766 80 23.2766C80 23.2766 79.9068 23.3716 79.8135 23.3716H78.6946C78.6014 23.3716 78.5082 23.3716 78.5082 23.2766C78.5082 23.2766 78.4149 23.1816 78.4149 23.0866V20.5214L77.9487 21.2815C77.9487 21.3765 77.8555 21.3765 77.7622 21.4715C77.669 21.4715 77.669 21.4715 77.5758 21.4715H77.296C77.2028 21.4715 77.1096 21.4715 77.1096 21.4715C77.0163 21.4715 77.0163 21.3765 76.9231 21.2815L76.4569 20.5214V23.0866C76.4569 23.1816 76.4569 23.2766 76.3636 23.2766C76.3636 23.2766 76.2704 23.3716 76.1772 23.3716Z" fill="white"/>
</g>
<defs>
<clipPath id="clip0_2769_3543">
<rect width="80" height="23.4667" fill="white"/>
</clipPath>
</defs>
</svg>
