<svg width="35" height="24" viewBox="0 0 35 24" fill="none" xmlns="http://www.w3.org/2000/svg">
    <path d="M6.2478 5.00096C6.2478 4.72482 6.47166 4.50096 6.7478 4.50096H28.9691C29.2452 4.50096 29.4691 4.72482 29.4691 5.00096V8.20292C29.4691 8.40529 29.3403 8.62002 29.112 8.74247C28.7152 8.95529 28.1874 9.28438 27.7505 9.72387C27.3163 10.1608 26.9243 10.7562 26.9145 11.4929C26.9046 12.2353 27.288 12.8263 27.7222 13.2553C28.1569 13.6848 28.6878 13.999 29.0909 14.2013C29.332 14.3224 29.4691 14.544 29.4691 14.7524V18.1393C29.4691 18.4154 29.2452 18.6393 28.9691 18.6393H6.7478C6.47166 18.6393 6.2478 18.4154 6.2478 18.1393V14.7694C6.2478 14.5582 6.39072 14.3282 6.64553 14.1991C7.01303 14.0129 7.47841 13.7299 7.86378 13.3372C8.25128 12.9423 8.58463 12.4076 8.61273 11.7319C8.64296 11.0049 8.301 10.4167 7.89773 9.98334C7.49588 9.55146 6.99836 9.23349 6.61701 9.02714L6.38811 9.45018L6.61701 9.02714C6.38004 8.89891 6.2478 8.67878 6.2478 8.47472V5.00096Z" stroke="#EB5757"/>
    <path d="M13.2539 4.22153V19.0129" stroke="#EB5757" stroke-dasharray="4 4"/>
    <path d="M22.0884 14.6008V14.1022C22.0884 13.7452 22.1622 13.419 22.3099 13.1235C22.4608 12.825 22.6793 12.5865 22.9655 12.408C23.2548 12.2264 23.6041 12.1356 24.0134 12.1356C24.432 12.1356 24.7828 12.2248 25.066 12.4033C25.3491 12.5819 25.563 12.8204 25.7077 13.1189C25.8554 13.4174 25.9293 13.7452 25.9293 14.1022V14.6008C25.9293 14.9578 25.8554 15.2856 25.7077 15.5841C25.5599 15.8796 25.343 16.1181 25.0568 16.2997C24.7736 16.4782 24.4258 16.5674 24.0134 16.5674C23.5979 16.5674 23.2471 16.4782 22.9609 16.2997C22.6746 16.1181 22.4577 15.8796 22.3099 15.5841C22.1622 15.2856 22.0884 14.9578 22.0884 14.6008ZM23.164 14.1022V14.6008C23.164 14.8655 23.2271 15.1055 23.3533 15.321C23.4795 15.5364 23.6995 15.6441 24.0134 15.6441C24.3243 15.6441 24.5412 15.5364 24.6644 15.321C24.7875 15.1055 24.849 14.8655 24.849 14.6008V14.1022C24.849 13.8375 24.789 13.5975 24.669 13.382C24.552 13.1666 24.3335 13.0589 24.0134 13.0589C23.7057 13.0589 23.4871 13.1666 23.3579 13.382C23.2286 13.5975 23.164 13.8375 23.164 14.1022ZM17.3334 9.19028V8.6917C17.3334 8.33469 17.4072 8.00692 17.555 7.70839C17.7058 7.40986 17.9243 7.17134 18.2105 6.99284C18.4998 6.81433 18.8491 6.72508 19.2585 6.72508C19.677 6.72508 20.0279 6.81433 20.311 6.99284C20.5942 7.17134 20.8081 7.40986 20.9527 7.70839C21.0974 8.00692 21.1697 8.33469 21.1697 8.6917V9.19028C21.1697 9.54729 21.0958 9.87506 20.9481 10.1736C20.8034 10.469 20.588 10.7076 20.3018 10.8891C20.0186 11.0676 19.6709 11.1569 19.2585 11.1569C18.8399 11.1569 18.4875 11.0676 18.2013 10.8891C17.9181 10.7076 17.7027 10.469 17.555 10.1736C17.4072 9.87506 17.3334 9.54729 17.3334 9.19028ZM18.4136 8.6917V9.19028C18.4136 9.45496 18.4752 9.69502 18.5983 9.91045C18.7245 10.1259 18.9445 10.2336 19.2585 10.2336C19.5662 10.2336 19.7817 10.1259 19.9048 9.91045C20.0309 9.69502 20.094 9.45496 20.094 9.19028V8.6917C20.094 8.42702 20.034 8.18697 19.914 7.97153C19.794 7.7561 19.5755 7.64838 19.2585 7.64838C18.9507 7.64838 18.7322 7.7561 18.6029 7.97153C18.4767 8.18697 18.4136 8.42702 18.4136 8.6917ZM17.772 16.3735L24.272 6.91897H25.3753L18.8753 16.3735H17.772Z" fill="#EB5757"/>
</svg>
