<svg width="26" height="26" viewBox="0 0 26 26" fill="none" xmlns="http://www.w3.org/2000/svg">
    <path d="M9.93417 7.58331C9.73239 7.78628 9.61914 8.06086 9.61914 8.34706C9.61914 8.63326 9.73239 8.90783 9.93417 9.11081L13.7692 13L9.93417 16.835C9.73239 17.038 9.61914 17.3125 9.61914 17.5987C9.61914 17.8849 9.73239 18.1595 9.93417 18.3625C10.0349 18.464 10.1547 18.5446 10.2867 18.5996C10.4187 18.6546 10.5603 18.6829 10.7033 18.6829C10.8463 18.6829 10.9879 18.6546 11.12 18.5996C11.252 18.5446 11.3718 18.464 11.4725 18.3625L16.0658 13.7691C16.1674 13.6684 16.248 13.5486 16.303 13.4166C16.358 13.2846 16.3863 13.143 16.3863 13C16.3863 12.857 16.358 12.7154 16.303 12.5833C16.248 12.4513 16.1674 12.3315 16.0658 12.2308L11.4725 7.58331C11.3718 7.48177 11.252 7.40117 11.12 7.34618C10.9879 7.29118 10.8463 7.26286 10.7033 7.26286C10.5603 7.26286 10.4187 7.29118 10.2867 7.34618C10.1547 7.40117 10.0349 7.48177 9.93417 7.58331Z" fill="#858585"/>
</svg>
