<svg width="26" height="26" viewBox="0 0 26 26" fill="none" xmlns="http://www.w3.org/2000/svg">
    <path d="M15.9995 0.919922C15.8378 0.919922 15.6734 0.968285 15.5227 1.08012L5.81041 8.08365H1.31726C1.07617 8.08365 0.878906 8.30128 0.878906 8.56728V17.2726C0.878906 17.5386 1.07617 17.7562 1.31726 17.7562H5.81041L15.5227 24.7597C15.6734 24.8685 15.8406 24.9199 15.9995 24.9199C16.457 24.9199 16.8789 24.5179 16.8789 23.9496V1.8902C16.8789 1.32194 16.457 0.919922 15.9995 0.919922ZM15.9474 23.5597L7.36814 17.3417L6.39671 16.5817H1.68256V9.18908H6.39671L7.36814 8.56728L15.9474 2.28012V23.5597ZM24.4405 11.8318H20.9337C20.6926 11.8318 20.4953 12.0494 20.4953 12.3154V13.5245C20.4953 13.7905 20.6926 14.0081 20.9337 14.0081H24.4405C24.6816 14.0081 24.8789 13.7905 24.8789 13.5245V12.3154C24.8789 12.0494 24.6816 11.8318 24.4405 11.8318ZM23.2926 19.7451L20.2707 17.8197C20.221 17.7883 20.1663 17.768 20.1095 17.76C20.0528 17.752 19.9952 17.7564 19.9399 17.773C19.8847 17.7895 19.833 17.8179 19.7878 17.8565C19.7425 17.8952 19.7046 17.9432 19.6762 17.998L19.131 19.0408C19.0104 19.2706 19.0816 19.5668 19.2899 19.6998L22.3118 21.6252C22.3614 21.6566 22.4162 21.6768 22.4729 21.6849C22.5297 21.6929 22.5873 21.6885 22.6425 21.6719C22.6977 21.6553 22.7494 21.6269 22.7947 21.5883C22.84 21.5497 22.8779 21.5017 22.9063 21.4469L23.4515 20.4041C23.5721 20.1743 23.4981 19.8781 23.2926 19.7451ZM19.6734 7.84184C19.7018 7.89662 19.7398 7.94469 19.785 7.9833C19.8303 8.02191 19.882 8.05031 19.9372 8.06687C19.9924 8.08343 20.05 8.08783 20.1068 8.07981C20.1635 8.0718 20.2183 8.05154 20.2679 8.02017L23.2899 6.09473C23.4981 5.96174 23.5693 5.66551 23.4488 5.43579L22.9063 4.39599C22.8779 4.34121 22.84 4.29314 22.7947 4.25453C22.7494 4.21592 22.6977 4.18752 22.6425 4.17096C22.5873 4.1544 22.5297 4.15 22.4729 4.15801C22.4162 4.16603 22.3614 4.18629 22.3118 4.21766L19.2899 6.1431C19.1898 6.20745 19.1169 6.3129 19.0871 6.43638C19.0574 6.55987 19.0731 6.69134 19.131 6.80204L19.6734 7.84184Z" fill="#FFBF4A"/>
</svg>
