<svg width="26" height="26" viewBox="0 0 26 26" fill="none" xmlns="http://www.w3.org/2000/svg">
    <path d="M13.11 19.4075C13.4033 19.4075 13.6508 19.3067 13.8525 19.105C14.0542 18.9033 14.155 18.6558 14.155 18.3625C14.155 18.0692 14.0542 17.8217 13.8525 17.62C13.6508 17.4183 13.4033 17.3175 13.11 17.3175C12.8167 17.3175 12.5692 17.4183 12.3675 17.62C12.1658 17.8217 12.065 18.0692 12.065 18.3625C12.065 18.6558 12.1658 18.9033 12.3675 19.105C12.5692 19.3067 12.8167 19.4075 13.11 19.4075ZM12.1475 15.3925H13.77C13.77 14.9158 13.8296 14.4804 13.9487 14.0863C14.0679 13.6921 14.4392 13.2383 15.0625 12.725C15.6308 12.2483 16.0342 11.7808 16.2725 11.3225C16.5108 10.8642 16.63 10.36 16.63 9.81C16.63 8.83833 16.3137 8.05917 15.6812 7.4725C15.0487 6.88583 14.21 6.5925 13.165 6.5925C12.2667 6.5925 11.4737 6.81708 10.7863 7.26625C10.0988 7.71542 9.59917 8.33417 9.2875 9.1225L10.745 9.6725C10.9467 9.15917 11.2492 8.76042 11.6525 8.47625C12.0558 8.19208 12.5325 8.05 13.0825 8.05C13.7058 8.05 14.21 8.21958 14.595 8.55875C14.98 8.89792 15.1725 9.33333 15.1725 9.865C15.1725 10.2683 15.0533 10.6487 14.815 11.0062C14.5767 11.3637 14.2283 11.735 13.77 12.12C13.22 12.5967 12.8121 13.0687 12.5462 13.5363C12.2804 14.0037 12.1475 14.6225 12.1475 15.3925ZM13 24C11.4967 24 10.0758 23.7112 8.7375 23.1337C7.39917 22.5562 6.23042 21.7679 5.23125 20.7687C4.23208 19.7696 3.44375 18.6008 2.86625 17.2625C2.28875 15.9242 2 14.5033 2 13C2 11.4783 2.28875 10.0483 2.86625 8.71C3.44375 7.37167 4.23208 6.2075 5.23125 5.2175C6.23042 4.2275 7.39917 3.44375 8.7375 2.86625C10.0758 2.28875 11.4967 2 13 2C14.5217 2 15.9517 2.28875 17.29 2.86625C18.6283 3.44375 19.7925 4.2275 20.7825 5.2175C21.7725 6.2075 22.5562 7.37167 23.1337 8.71C23.7112 10.0483 24 11.4783 24 13C24 14.5033 23.7112 15.9242 23.1337 17.2625C22.5562 18.6008 21.7725 19.7696 20.7825 20.7687C19.7925 21.7679 18.6283 22.5562 17.29 23.1337C15.9517 23.7112 14.5217 24 13 24ZM13 22.35C15.6033 22.35 17.8125 21.4379 19.6275 19.6138C21.4425 17.7896 22.35 15.585 22.35 13C22.35 10.3967 21.4425 8.1875 19.6275 6.3725C17.8125 4.5575 15.6033 3.65 13 3.65C10.415 3.65 8.21042 4.5575 6.38625 6.3725C4.56208 8.1875 3.65 10.3967 3.65 13C3.65 15.585 4.56208 17.7896 6.38625 19.6138C8.21042 21.4379 10.415 22.35 13 22.35Z" fill="#FFBF4A"/>
</svg>
