<svg width="26" height="26" viewBox="0 0 26 26" fill="none" xmlns="http://www.w3.org/2000/svg">
    <path d="M15.2353 17.9918V17.9998L15.2355 18.0078L15.344 22.0568C15.285 21.9928 15.22 21.918 15.1486 21.8308L15.1482 21.8302L12.1882 18.2182C11.6944 17.6156 10.9563 17.2662 10.1772 17.2662H4C3.2268 17.2662 2.6 16.6394 2.6 15.8662V5C2.6 4.2268 3.2268 3.6 4 3.6H22C22.7732 3.6 23.4 4.2268 23.4 5V15.8662C23.4 16.6394 22.7732 17.2662 22 17.2662H15.9608C15.5601 17.2662 15.2353 17.591 15.2353 17.9918Z" stroke="#FFBF4A" stroke-width="1.2"/>
    <path d="M7.95835 7.53227L8.61307 9.62579L8.72276 9.97655H9.09028H11.261L9.48861 11.3144L9.20752 11.5266L9.31264 11.8627L9.97955 13.9952L8.25959 12.6969L7.95835 12.4695L7.65712 12.6969L5.93716 13.9952L6.60407 11.8627L6.70919 11.5266L6.4281 11.3144L4.65574 9.97655H6.82643H7.19394L7.30364 9.62579L7.95835 7.53227Z" stroke="#FFBF4A"/>
    <rect x="13.9167" y="7.7619" width="5.03038" height="0.901099" rx="0.450549" fill="#FFBF4A"/>
    <rect x="13.9167" y="13.4762" width="5.72423" height="0.901099" rx="0.450549" fill="#FFBF4A"/>
    <rect x="13.9167" y="10.619" width="6.41667" height="0.952381" rx="0.47619" fill="#FFBF4A"/>
    <ellipse cx="21.6837" cy="11.0696" rx="0.433654" ry="0.450549" fill="#FFBF4A"/>
</svg>
