<svg width="26" height="26" viewBox="0 0 26 26" fill="none" xmlns="http://www.w3.org/2000/svg">
    <path d="M13.8571 7.90002C13.8571 9.01313 12.9732 9.90002 11.9018 9.90002C10.8303 9.90002 9.94641 9.01313 9.94641 7.90002C9.94641 6.78692 10.8303 5.90002 11.9018 5.90002C12.9732 5.90002 13.8571 6.78692 13.8571 7.90002Z" fill="white" stroke="#FFBF4A"/>
    <path d="M6.70543 13.5474L11.819 21.4L15.6983 15.3423C19.4453 10.0025 19.1493 7.48962 18.4314 5.78448C16.1832 0.444686 11.6427 0.609218 9.65897 1.43187C3.24054 4.2319 5.0156 10.6755 6.70543 13.5474Z" stroke="#FFBF4A"/>
    <path d="M7.67544 17.4C6.35405 17.4148 3.28843 17.7997 1.59705 19.2208C1.05382 19.6649 0.390184 20.7218 2.08156 21.3969L3.29284 21.8619C5.63698 22.7412 10.8957 23.6365 19.3037 22.3739C22.6512 21.4413 26.7563 19.1408 16.3966 17.4" stroke="#FFBF4A"/>
</svg>
