<svg width="26" height="26" viewBox="0 0 26 26" fill="none" xmlns="http://www.w3.org/2000/svg">
    <path d="M5.62866 16.8125V22.0833" stroke="#FFBF4A" stroke-width="1.3"/>
    <ellipse cx="5.62856" cy="15.8542" rx="0.514301" ry="0.479167" fill="#FFBF4A"/>
    <path d="M1.65 13.15H6.20021C6.9458 13.15 7.55021 13.7544 7.55021 14.5V22C7.55021 22.7456 6.9458 23.35 6.20021 23.35H1.65V13.15Z" stroke="#FFBF4A" stroke-width="1.3"/>
    <path d="M19.138 21.3011C19.7295 21.822 20.4393 23.0341 18.5465 23.7159H11.7445L7.75195 22.7216V13.6306C9.82214 13.2991 14.14 11.8976 14.8498 8.94304C14.8005 8.09075 15.0568 6.35778 16.4763 6.24414C17.0185 6.29149 18.0733 6.89756 17.955 8.94304C17.9057 9.98472 17.6593 12.2101 17.0678 12.7783" stroke="#FFBF4A" stroke-width="1.3"/>
    <path d="M14.9976 12.7783H21.5039C21.7475 12.8076 22.1303 12.9633 22.3595 13.3461C22.7091 13.9301 22.675 14.8243 22.1026 15.1925C21.5318 15.5598 20.3279 15.8542 17.9718 15.8542" stroke="#FFBF4A" stroke-width="1.3"/>
    <path d="M20.7647 15.6193C21.4282 16.0973 22.2312 17.1182 21.0607 17.9038C20.5209 18.2661 19.8417 18.3182 19.1916 18.3182H17.2158" stroke="#FFBF4A" stroke-width="1.3"/>
    <path d="M20.1734 18.3182C20.7467 18.8689 21.4289 19.9948 20.4223 20.751C19.9258 21.1241 19.2658 21.1591 18.6447 21.1591H16.6245" stroke="#FFBF4A" stroke-width="1.3"/>
    <rect x="10.55" y="6.95432" width="2.68497" height="0.568189" rx="0.284094" fill="#FFBF4A" stroke="#FFBF4A" stroke-width="0.568189"/>
    <rect x="0.0148226" y="0.400922" width="2.61538" height="0.579092" rx="0.289546" transform="matrix(0.746231 0.665687 -0.695038 0.718973 12.9269 2.63527)" fill="#FFBF4A" stroke="#FFBF4A" stroke-width="0.579092"/>
    <rect x="-0.30266" y="0.289198" width="2.53363" height="0.591471" rx="0.295736" transform="matrix(-0.0236513 0.99972 -0.999762 -0.021826 17.157 1.62396)" fill="#FFBF4A" stroke="#FFBF4A" stroke-width="0.591471"/>
    <rect x="-0.417741" y="-0.009534" width="2.61324" height="0.579421" rx="0.28971" transform="matrix(-0.73677 0.676144 -0.705156 -0.709052 20.6188 3.58153)" fill="#FFBF4A" stroke="#FFBF4A" stroke-width="0.579421"/>
    <rect x="-0.279654" y="-0.288135" width="2.68494" height="0.568194" rx="0.284097" transform="matrix(-0.999897 -0.0143356 0.0155349 -0.999879 22.4274 7.2729)" fill="#FFBF4A" stroke="#FFBF4A" stroke-width="0.568194"/>
</svg>
