<svg width="26" height="26" viewBox="0 0 26 26" fill="none" xmlns="http://www.w3.org/2000/svg">
    <path d="M11.3425 20.9863H4C2.89543 20.9863 2 20.0909 2 18.9863V4C2 2.89543 2.89543 2 4 2H15.6712C16.7758 2 17.6712 2.89543 17.6712 4V10.2877" stroke="#FFBF4A"/>
    <circle cx="17.9727" cy="17.9726" r="5.5274" stroke="#FFBF4A"/>
    <circle cx="9.53429" cy="6.5205" r="1.30822" stroke="#FFBF4A"/>
    <path d="M6.36987 12.8493V11.1918C6.36987 10.7397 6.70138 9.80548 8.02741 9.68494H11.3425C11.895 9.73516 13 10.1069 13 11.1918V12.8493" stroke="#FFBF4A"/>
    <rect x="4.41089" y="14.6575" width="6.93151" height="0.90411" rx="0.452055" fill="#FFBF4A"/>
    <rect x="4.41089" y="17.3698" width="6.93151" height="0.90411" rx="0.452055" fill="#FFBF4A"/>
    <path d="M14.8082 17.6712L16.9178 19.9315L20.3836 15.7123" stroke="#FFBF4A"/>
</svg>
