<svg width="26" height="26" viewBox="0 0 26 26" fill="none" xmlns="http://www.w3.org/2000/svg">
    <path d="M13 17.0625C14.2819 17.0625 15.3698 16.6156 16.2635 15.7219C17.1573 14.8281 17.6041 13.7403 17.6041 12.4583C17.6041 11.1764 17.1573 10.0885 16.2635 9.19477C15.3698 8.30102 14.2819 7.85415 13 7.85415C11.718 7.85415 10.6302 8.30102 9.73644 9.19477C8.84269 10.0885 8.39581 11.1764 8.39581 12.4583C8.39581 13.7403 8.84269 14.8281 9.73644 15.7219C10.6302 16.6156 11.718 17.0625 13 17.0625ZM13 15.4916C12.1514 15.4916 11.4337 15.1982 10.8469 14.6114C10.26 14.0246 9.96665 13.3069 9.96665 12.4583C9.96665 11.6097 10.26 10.892 10.8469 10.3052C11.4337 9.71838 12.1514 9.42498 13 9.42498C13.8486 9.42498 14.5663 9.71838 15.1531 10.3052C15.7399 10.892 16.0333 11.6097 16.0333 12.4583C16.0333 13.3069 15.7399 14.0246 15.1531 14.6114C14.5663 15.1982 13.8486 15.4916 13 15.4916ZM13 20.5833C10.3639 20.5833 7.98054 19.834 5.84998 18.3354C3.71942 16.8368 2.13054 14.8778 1.08331 12.4583C2.13054 10.0389 3.71942 8.07984 5.84998 6.58123C7.98054 5.08262 10.3639 4.33331 13 4.33331C15.6361 4.33331 18.0194 5.08262 20.15 6.58123C22.2805 8.07984 23.8694 10.0389 24.9166 12.4583C23.8694 14.8778 22.2805 16.8368 20.15 18.3354C18.0194 19.834 15.6361 20.5833 13 20.5833ZM13 18.9583C15.1847 18.9583 17.1934 18.367 19.026 17.1844C20.8587 16.0017 22.2535 14.4264 23.2104 12.4583C22.2535 10.4903 20.8587 8.91491 19.026 7.73227C17.1934 6.54963 15.1847 5.95831 13 5.95831C10.8153 5.95831 8.80658 6.54963 6.97394 7.73227C5.1413 8.91491 3.73748 10.4903 2.76248 12.4583C3.73748 14.4264 5.1413 16.0017 6.97394 17.1844C8.80658 18.367 10.8153 18.9583 13 18.9583Z" fill="#FFBF4A"/>
</svg>
