<svg width="22" height="22" viewBox="0 0 22 22" fill="none" xmlns="http://www.w3.org/2000/svg">
    <path d="M9.81458 14.3375L16.3 7.85208L15.2458 6.82083L9.81458 12.2521L7.06458 9.50208L6.03333 10.5333L9.81458 14.3375ZM11.1667 19.3333C9.91389 19.3333 8.72986 19.0927 7.61458 18.6115C6.49931 18.1302 5.52535 17.4733 4.69271 16.6406C3.86007 15.808 3.20312 14.834 2.72187 13.7188C2.24062 12.6035 2 11.4194 2 10.1667C2 8.89861 2.24062 7.70694 2.72187 6.59167C3.20312 5.47639 3.86007 4.50625 4.69271 3.68125C5.52535 2.85625 6.49931 2.20312 7.61458 1.72187C8.72986 1.24062 9.91389 1 11.1667 1C12.4347 1 13.6264 1.24062 14.7417 1.72187C15.8569 2.20312 16.8271 2.85625 17.6521 3.68125C18.4771 4.50625 19.1302 5.47639 19.6115 6.59167C20.0927 7.70694 20.3333 8.89861 20.3333 10.1667C20.3333 11.4194 20.0927 12.6035 19.6115 13.7188C19.1302 14.834 18.4771 15.808 17.6521 16.6406C16.8271 17.4733 15.8569 18.1302 14.7417 18.6115C13.6264 19.0927 12.4347 19.3333 11.1667 19.3333Z" fill="#2780F3"/>
</svg>
