<svg width="32" height="32" viewBox="0 0 32 32" fill="none" xmlns="http://www.w3.org/2000/svg">
    <path d="M11 22.4001L16 17.4001L21 22.4001L22.4 21.0001L17.4 16.0001L22.4 11.0001L21 9.60008L16 14.6001L11 9.60008L9.6 11.0001L14.6 16.0001L9.6 21.0001L11 22.4001ZM16 29.3334C14.1111 29.3334 12.3556 28.9945 10.7333 28.3167C9.11111 27.639 7.7 26.7001 6.5 25.5001C5.3 24.3001 4.36111 22.889 3.68333 21.2667C3.00556 19.6445 2.66667 17.889 2.66667 16.0001C2.66667 14.1334 3.00556 12.389 3.68333 10.7667C4.36111 9.14453 5.3 7.73342 6.5 6.53341C7.7 5.33342 9.11111 4.38897 10.7333 3.70008C12.3556 3.01119 14.1111 2.66675 16 2.66675C17.8667 2.66675 19.6111 3.01119 21.2333 3.70008C22.8556 4.38897 24.2667 5.33342 25.4667 6.53341C26.6667 7.73342 27.6111 9.14453 28.3 10.7667C28.9889 12.389 29.3333 14.1334 29.3333 16.0001C29.3333 17.889 28.9889 19.6445 28.3 21.2667C27.6111 22.889 26.6667 24.3001 25.4667 25.5001C24.2667 26.7001 22.8556 27.639 21.2333 28.3167C19.6111 28.9945 17.8667 29.3334 16 29.3334ZM16 27.3334C19.1111 27.3334 21.7778 26.2223 24 24.0001C26.2222 21.7779 27.3333 19.1112 27.3333 16.0001C27.3333 12.889 26.2222 10.2223 24 8.00008C21.7778 5.77786 19.1111 4.66675 16 4.66675C12.8889 4.66675 10.2222 5.77786 8 8.00008C5.77778 10.2223 4.66667 12.889 4.66667 16.0001C4.66667 19.1112 5.77778 21.7779 8 24.0001C10.2222 26.2223 12.8889 27.3334 16 27.3334Z" fill="#FFA500"/>
</svg>
