<svg width="18" height="18" viewBox="0 0 18 18" fill="none" xmlns="http://www.w3.org/2000/svg">
    <circle cx="9" cy="9" r="9" fill="#FFA500"/>
    <path d="M5.0625 13.6875H5.75L12.6719 6.76562L11.9844 6.07812L5.0625 13V13.6875ZM14.6562 6.09375L12.6562 4.09375L13.3125 3.4375C13.4896 3.26042 13.7083 3.17188 13.9688 3.17188C14.2292 3.17188 14.4479 3.26042 14.625 3.4375L15.3125 4.125C15.4896 4.30208 15.5781 4.52083 15.5781 4.78125C15.5781 5.04167 15.4896 5.26042 15.3125 5.4375L14.6562 6.09375ZM14 6.75L6.125 14.625H4.125V12.625L12 4.75L14 6.75ZM12.3281 6.42188L11.9844 6.07812L12.6719 6.76562L12.3281 6.42188Z" fill="white"/>
</svg>
