<svg width="22" height="22" viewBox="0 0 22 22" fill="none" xmlns="http://www.w3.org/2000/svg">
    <path d="M11 20.1666C9.7472 20.1666 8.56317 19.926 7.4479 19.4447C6.33262 18.9635 5.35866 18.3065 4.52602 17.4739C3.69338 16.6412 3.03644 15.6673 2.55519 14.552C2.07394 13.4367 1.83331 12.2527 1.83331 10.9999C1.83331 9.73186 2.07394 8.5402 2.55519 7.42492C3.03644 6.30964 3.69338 5.3395 4.52602 4.5145C5.35866 3.6895 6.33262 3.03638 7.4479 2.55513C8.56317 2.07388 9.7472 1.83325 11 1.83325C12.268 1.83325 13.4597 2.07388 14.575 2.55513C15.6903 3.03638 16.6604 3.6895 17.4854 4.5145C18.3104 5.3395 18.9635 6.30964 19.4448 7.42492C19.926 8.5402 20.1666 9.73186 20.1666 10.9999C20.1666 12.2527 19.926 13.4367 19.4448 14.552C18.9635 15.6673 18.3104 16.6412 17.4854 17.4739C16.6604 18.3065 15.6903 18.9635 14.575 19.4447C13.4597 19.926 12.268 20.1666 11 20.1666ZM11 18.7916C13.1694 18.7916 15.0104 18.0315 16.5229 16.5114C18.0354 14.9912 18.7916 13.1541 18.7916 10.9999C18.7916 8.83047 18.0354 6.9895 16.5229 5.477C15.0104 3.9645 13.1694 3.20825 11 3.20825C8.84581 3.20825 7.00866 3.9645 5.48852 5.477C3.96838 6.9895 3.20831 8.83047 3.20831 10.9999C3.20831 13.1541 3.96838 14.9912 5.48852 16.5114C7.00866 18.0315 8.84581 18.7916 11 18.7916Z" fill="#EDEDED"/>
</svg>
