<svg width="32" height="32" viewBox="0 0 32 32" fill="none" xmlns="http://www.w3.org/2000/svg">
    <path d="M11.0001 22.4L16.0001 17.4L21.0001 22.4L22.4001 21L17.4001 16L22.4001 11L21.0001 9.59996L16.0001 14.6L11.0001 9.59996L9.60008 11L14.6001 16L9.60008 21L11.0001 22.4ZM16.0001 29.3333C14.1112 29.3333 12.3556 28.9944 10.7334 28.3166C9.11119 27.6388 7.70008 26.7 6.50008 25.5C5.30008 24.3 4.36119 22.8888 3.68341 21.2666C3.00564 19.6444 2.66675 17.8888 2.66675 16C2.66675 14.1333 3.00564 12.3888 3.68341 10.7666C4.36119 9.1444 5.30008 7.73329 6.50008 6.53329C7.70008 5.33329 9.11119 4.38885 10.7334 3.69996C12.3556 3.01107 14.1112 2.66663 16.0001 2.66663C17.8667 2.66663 19.6112 3.01107 21.2334 3.69996C22.8556 4.38885 24.2667 5.33329 25.4667 6.53329C26.6667 7.73329 27.6112 9.1444 28.3001 10.7666C28.989 12.3888 29.3334 14.1333 29.3334 16C29.3334 17.8888 28.989 19.6444 28.3001 21.2666C27.6112 22.8888 26.6667 24.3 25.4667 25.5C24.2667 26.7 22.8556 27.6388 21.2334 28.3166C19.6112 28.9944 17.8667 29.3333 16.0001 29.3333ZM16.0001 27.3333C19.1112 27.3333 21.7779 26.2222 24.0001 24C26.2223 21.7777 27.3334 19.1111 27.3334 16C27.3334 12.8888 26.2223 10.2222 24.0001 7.99996C21.7779 5.77774 19.1112 4.66663 16.0001 4.66663C12.889 4.66663 10.2223 5.77774 8.00008 7.99996C5.77786 10.2222 4.66675 12.8888 4.66675 16C4.66675 19.1111 5.77786 21.7777 8.00008 24C10.2223 26.2222 12.889 27.3333 16.0001 27.3333Z" fill="white"/>
</svg>
