<svg width="21" height="22" viewBox="0 0 21 22" fill="none" xmlns="http://www.w3.org/2000/svg">
    <path fill-rule="evenodd" clip-rule="evenodd" d="M13.1408 13.1073V20.5211C13.1618 20.9102 12.9767 21.6505 12.0681 21.4991L8.09308 20.0478C7.92482 19.9848 7.58831 19.6819 7.58831 18.9752V13.3597C7.60935 12.9601 7.53784 12.0347 7.08355 11.5299L1.40492 3.64292L0.395383 2.19171C0.227127 1.75004 0.155619 0.866699 1.21563 0.866699H19.5134C19.9551 0.908763 20.7249 1.24527 20.2706 2.25481L13.6455 11.593C13.4562 11.8033 13.0903 12.4006 13.1408 13.1073ZM1.468 1.93933H19.261L12.6991 11.1513C12.3836 11.593 12.0681 12.224 12.0681 13.2966V20.4264L8.59783 19.1014V13.2966C8.59783 12.8549 8.49688 11.8201 8.09307 11.2144L1.468 1.93933Z" fill="#858585"/>
</svg>
