<svg width="26" height="26" viewBox="0 0 26 26" fill="none" xmlns="http://www.w3.org/2000/svg">
    <path d="M19.9868 21.2229L16.2921 17.6292C15.6605 18.1756 14.9237 18.6012 14.0816 18.9059C13.2395 19.2106 12.3447 19.363 11.3974 19.363C9.12368 19.363 7.19737 18.5749 5.61842 16.9987C4.03947 15.4226 3.25 13.5206 3.25 11.293C3.25 9.06528 4.03947 7.16336 5.61842 5.58717C7.19737 4.01099 9.11316 3.2229 11.3658 3.2229C13.5974 3.2229 15.4974 4.01099 17.0658 5.58717C18.6342 7.16336 19.4184 9.06528 19.4184 11.293C19.4184 12.1966 19.2711 13.0688 18.9763 13.9094C18.6816 14.7501 18.2395 15.5381 17.65 16.2737L21.25 19.962L19.9868 21.2229ZM11.3658 17.4716C13.0711 17.4716 14.5237 16.8674 15.7237 15.659C16.9237 14.4506 17.5237 12.9952 17.5237 11.293C17.5237 9.59068 16.9237 8.13534 15.7237 6.92693C14.5237 5.71852 13.0711 5.11432 11.3658 5.11432C9.63947 5.11432 8.17105 5.71852 6.96053 6.92693C5.75 8.13534 5.14474 9.59068 5.14474 11.293C5.14474 12.9952 5.75 14.4506 6.96053 15.659C8.17105 16.8674 9.63947 17.4716 11.3658 17.4716Z" fill="#DEDEDE"/>
</svg>
