<svg width="20" height="20" viewBox="0 0 20 20" fill="none" xmlns="http://www.w3.org/2000/svg">
    <path d="M10 19C8.77 19 7.6075 18.7638 6.5125 18.2913C5.4175 17.8188 4.46125 17.1737 3.64375 16.3563C2.82625 15.5388 2.18125 14.5825 1.70875 13.4875C1.23625 12.3925 1 11.23 1 10C1 8.755 1.23625 7.585 1.70875 6.49C2.18125 5.395 2.82625 4.4425 3.64375 3.6325C4.46125 2.8225 5.4175 2.18125 6.5125 1.70875C7.6075 1.23625 8.77 1 10 1C11.245 1 12.415 1.23625 13.51 1.70875C14.605 2.18125 15.5575 2.8225 16.3675 3.6325C17.1775 4.4425 17.8188 5.395 18.2913 6.49C18.7638 7.585 19 8.755 19 10C19 11.23 18.7638 12.3925 18.2913 13.4875C17.8188 14.5825 17.1775 15.5388 16.3675 16.3563C15.5575 17.1737 14.605 17.8188 13.51 18.2913C12.415 18.7638 11.245 19 10 19Z" fill="#EB5757"/>
    <path d="M5.5 8.875H14.5V10.5625H5.5V8.875Z" fill="white"/>
</svg>
