<svg width="26" height="26" viewBox="0 0 26 26" fill="none" xmlns="http://www.w3.org/2000/svg">
    <path d="M15.806 8.87281L15.9223 9.10861L16.1825 9.14643L22.3458 10.0422C22.3461 10.0422 22.3463 10.0422 22.3465 10.0423C22.5027 10.0658 22.6031 10.2078 22.5808 10.3527L22.5807 10.3527L22.5799 10.3583C22.5715 10.4172 22.5437 10.4724 22.4995 10.5159C22.4993 10.516 22.4992 10.5161 22.4991 10.5162L18.0397 14.864L17.8515 15.0475L17.8959 15.3066L18.9497 21.4472L18.9498 21.4476C18.9755 21.5967 18.8754 21.7397 18.7238 21.7658L18.7231 21.7659C18.6628 21.7764 18.6011 21.7662 18.5508 21.7395L18.5486 21.7383L13.0344 18.8392L12.8017 18.7168L12.569 18.8392L7.05488 21.7383L7.05411 21.7387C7.00854 21.7628 6.95714 21.7736 6.90574 21.7699C6.85434 21.7662 6.80499 21.7483 6.76329 21.718C6.7216 21.6877 6.68922 21.6463 6.66984 21.5986C6.65045 21.5508 6.64483 21.4986 6.65362 21.4478L6.65373 21.4472L7.70752 15.3066L7.75198 15.0475L7.56376 14.864L3.10339 10.5153L3.10336 10.5153C3.05056 10.4638 3.02035 10.3935 3.01937 10.3197C3.0184 10.2463 3.04651 10.1755 3.09755 10.1227C3.14098 10.0787 3.19606 10.051 3.25483 10.0426L3.25603 10.0424L9.42091 9.14643L9.6811 9.10861L9.79741 8.87281L12.5521 3.28823C12.5522 3.28792 12.5524 3.28761 12.5525 3.2873C12.6224 3.14893 12.7901 3.0942 12.9252 3.16089L12.9258 3.16118C12.9797 3.18772 13.0234 3.23143 13.05 3.28538L13.0502 3.28581L15.806 8.87281Z" fill="white" stroke="#FFC361"/>
</svg>
