<svg width="26" height="26" viewBox="0 0 26 26" fill="none" xmlns="http://www.w3.org/2000/svg">
    <path d="M16.6106 8.02729L23.0573 8.9642C23.5017 9.03022 23.8114 9.44154 23.7429 9.88588C23.7175 10.0636 23.6337 10.2261 23.5067 10.3505L18.8425 14.898L19.9444 21.3193C20.0206 21.7611 19.7235 22.18 19.2817 22.2562C19.1065 22.2867 18.9237 22.2587 18.7663 22.1749L13.0001 19.1433L7.23388 22.1749C7.09983 22.2457 6.94862 22.2775 6.79742 22.2667C6.64621 22.256 6.50105 22.203 6.37839 22.1139C6.25574 22.0249 6.1605 21.9032 6.10347 21.7627C6.04645 21.6223 6.02992 21.4687 6.05576 21.3193L7.15771 14.898L2.49345 10.3505C2.339 10.2 2.25064 9.99426 2.24778 9.77858C2.24493 9.56291 2.32781 9.35493 2.47822 9.20033C2.60263 9.07338 2.76513 8.98959 2.94287 8.9642L9.38955 8.02729L12.2714 2.1849C12.472 1.78373 12.9595 1.61869 13.3606 1.81674C13.5206 1.89545 13.6501 2.02494 13.7288 2.1849L16.6106 8.02729Z" fill="#FFC361"/>
</svg>
