<svg width="36" height="35" viewBox="0 0 36 35" fill="none" xmlns="http://www.w3.org/2000/svg">
    <path d="M9.76986 19.9768L8.29225 28.5871L9.76986 19.9768ZM9.76986 19.9768L3.51555 13.8791C3.30845 13.6772 3.18996 13.4013 3.18613 13.1121C3.1823 12.823 3.29344 12.5441 3.49512 12.3368L9.76986 19.9768ZM21.9969 10.985L22.1132 11.2208L22.3734 11.2586L31.0162 12.5147C31.0164 12.5147 31.0165 12.5148 31.0167 12.5148C31.3439 12.5637 31.5635 12.864 31.5148 13.1798L31.5147 13.1798L31.5139 13.1853C31.4958 13.3126 31.4357 13.4303 31.3427 13.5216C31.3426 13.5217 31.3424 13.5218 31.3423 13.522L25.0889 19.6188L24.9007 19.8023L24.9452 20.0613L26.4228 28.6716L26.4229 28.672C26.4779 28.9911 26.2635 29.2952 25.942 29.3507L25.9413 29.3508C25.8136 29.373 25.6816 29.3521 25.5708 29.2931L25.5685 29.2919L17.8366 25.2267L17.6039 25.1044L17.3712 25.2267L9.63932 29.2919L9.63855 29.2923C9.54142 29.3436 9.43186 29.3666 9.3223 29.3588C9.21275 29.351 9.10757 29.3126 9.0187 29.2481L8.72487 29.6526L9.0187 29.2481C8.92983 29.1835 8.86082 29.0954 8.8195 28.9936C8.77818 28.8919 8.76621 28.7805 8.78493 28.6723L8.78505 28.6716L10.2627 20.0613L10.3071 19.8023L10.1189 19.6188L3.86459 13.5211L3.86456 13.521C3.75236 13.4117 3.68816 13.2622 3.68609 13.1055C3.68402 12.9492 3.74398 12.7983 3.85284 12.6861C3.94414 12.5932 4.06174 12.5333 4.18888 12.5151L4.19008 12.5149L12.8344 11.2586L13.0946 11.2208L13.2109 10.985L17.074 3.15337C17.0742 3.15301 17.0744 3.15264 17.0746 3.15228C17.2216 2.85973 17.5767 2.74161 17.866 2.88444L17.8666 2.88472C17.9821 2.94154 18.0756 3.03506 18.1324 3.15052L18.1326 3.15095L21.9969 10.985Z" fill="white" stroke="#FFC361"/>
</svg>
