<svg width="35" height="35" viewBox="0 0 35 35" fill="none" xmlns="http://www.w3.org/2000/svg">
    <path d="M22.2732 10.7638L30.9175 12.0201C31.5134 12.1087 31.9287 12.6602 31.8368 13.256C31.8028 13.4943 31.6904 13.7122 31.5202 13.8791L25.2659 19.9768L26.7435 28.5871C26.8456 29.1795 26.4473 29.7413 25.8549 29.8434C25.6199 29.8842 25.3748 29.8468 25.1637 29.7344L17.4318 25.6693L9.69988 29.7344C9.52013 29.8293 9.31738 29.872 9.11462 29.8575C8.91187 29.8431 8.71722 29.7721 8.55275 29.6526C8.38828 29.5332 8.26058 29.3701 8.18411 29.1817C8.10764 28.9934 8.08548 28.7874 8.12013 28.5871L9.59774 19.9768L3.34343 13.8791C3.13633 13.6772 3.01784 13.4013 3.01401 13.1121C3.01018 12.823 3.12132 12.5441 3.323 12.3368C3.48983 12.1665 3.70773 12.0542 3.94605 12.0201L12.5904 10.7638L16.4547 2.92977C16.7236 2.39184 17.3773 2.17053 17.9153 2.4361C18.1297 2.54164 18.3034 2.71528 18.4089 2.92977L22.2732 10.7638Z" fill="#FFC361"/>
</svg>
