<svg width="145" height="162" viewBox="0 0 145 162" fill="none" xmlns="http://www.w3.org/2000/svg">
    <g clip-path="url(#clip0_1716_1761)">
        <path d="M0.777897 146.623C2.02253 124.568 1.40021 68.6519 1.86695 67.5647C2.48927 66.1668 4.82296 63.2157 6.22318 62.4391C9.17918 60.7306 12.6019 60.5752 15.8691 60.4199C31.2715 59.7986 46.8294 60.8859 62.0762 63.837C63.632 64.1476 65.3433 64.6136 66.2768 65.8562C66.8991 66.7881 66.8991 66.0115 66.8991 67.2541C66.8991 99.8715 66.588 124.568 66.588 145.381C66.588 150.662 57.0976 153.613 51.9635 154.389C48.6964 154.855 45.4292 155.321 42.162 155.476C37.1835 155.632 32.0494 155.011 27.0708 154.545C18.3584 153.302 9.49034 149.574 0.777897 146.623Z" fill="white"/>
        <path d="M39.9839 156.098C35.6277 156.098 31.1159 155.632 26.7597 155.011C20.0697 154.234 13.2242 151.749 6.53434 149.419C4.5118 148.642 2.48927 148.021 0.466738 147.244C0.155579 147.244 0 146.934 0 146.468C0.777897 132.8 0.777897 105.308 0.933477 86.9798C0.933477 70.2051 0.933477 67.5647 1.24464 67.0987C1.86695 65.5455 4.5118 62.4391 5.91202 61.6625C8.86803 59.9539 12.4464 59.6433 15.8691 59.488C31.427 58.8667 46.985 59.9539 62.2318 62.905C63.9431 63.2157 65.8101 63.6816 66.8991 65.2349C67.0547 65.5455 67.2103 65.5455 67.2103 65.5455C67.5215 65.8561 67.5215 66.1668 67.5215 66.4774C67.5215 66.6328 67.5215 66.6328 67.5215 66.7881C67.5215 84.8053 67.3659 100.648 67.3659 114.472C67.2103 125.81 67.2103 135.595 67.2103 144.915C67.2103 150.817 57.2532 153.923 51.9635 154.545C48.6964 155.01 45.4292 155.476 42.0064 155.632C41.3841 156.098 40.7618 156.098 39.9839 156.098ZM1.10687 146.468C2.97382 147.089 5.2897 147.244 7.15665 148.021C13.691 150.351 20.5365 152.836 27.0708 153.613C31.8938 154.234 37.0279 154.855 42.0064 154.545C45.2736 154.389 48.5408 153.923 51.8079 153.457C57.2532 152.681 66.4122 149.86 66.4122 145.356C66.4122 136.037 66.2566 125.81 66.4122 114.472C66.5678 100.648 66.4122 85.3026 66.4122 67.1301C66.4122 63.3111 66.1212 66.7881 66.1212 66.7881C65.9657 66.6328 65.8101 66.4774 65.6545 66.3221C64.8766 65.2349 63.3208 64.9242 61.9206 64.6136C46.8294 61.6625 31.2715 60.5752 15.8691 61.1965C12.4464 61.3518 9.33476 61.6625 6.53434 63.2157C5.2897 63.837 2.95601 66.4423 2.33369 67.6849C2.33369 68.6168 1.66031 78.0275 1.66031 87.6575C1.66031 105.675 1.88477 132.489 1.10687 146.468Z" fill="#232F3E"/>
        <path d="M2.33369 67.5647C23.9592 66.1668 45.4292 66.1668 66.8991 67.0987C66.8991 66.4774 66.8991 65.7008 66.7436 65.0796C66.2768 57.3135 64.2543 52.6539 53.0526 53.1198C45.118 53.4305 32.0494 52.4985 14.4689 53.1198C5.13412 53.1198 2.64485 61.3518 1.86695 67.5647C2.02253 67.5647 2.17811 67.5647 2.33369 67.5647Z" fill="#D5F1FF"/>
        <path d="M2.33369 68.3413C2.02253 68.3413 1.86695 68.3413 1.71137 68.3413C1.55579 68.3413 1.40021 68.186 1.24464 68.0307C1.08906 67.8753 1.08906 67.72 1.08906 67.4094C2.64485 54.8284 9.17919 52.1879 14.4689 52.1879C25.0483 51.8773 33.9163 52.0326 41.073 52.1879C45.7403 52.3432 49.941 52.3432 53.0526 52.1879C64.4099 51.7219 67.0547 56.5369 67.5215 64.9242C67.5215 65.5455 67.677 66.3221 67.677 66.9434C67.677 67.0987 67.677 67.4094 67.5215 67.5647C67.3659 67.72 67.2103 67.8753 66.8991 67.72C43.5622 66.9434 22.559 67.0987 2.33369 68.3413ZM27.382 53.5858C23.4925 53.5858 19.0567 53.1049 14.3893 53.2602C7.85498 53.2602 2.76718 58.2534 2.33369 66.9434C26.5649 66.0205 43.6976 66.0115 66.4122 66.9434C66.4122 66.4774 65.9657 65.5455 65.9657 65.0796C65.4989 57.1582 63.4764 53.4305 53.0526 53.7411C49.7854 53.8964 45.7403 53.7411 40.9174 53.7411C37.0279 53.7411 32.3605 53.5858 27.382 53.5858Z" fill="#232F3E"/>
        <path d="M0.777897 146.623C0.777897 146.779 0.777897 146.934 0.777897 146.934C0.777897 149.885 0.933476 152.991 2.02253 155.632C3.26717 158.272 9.64592 161.068 12.7575 161.068C27.382 161.223 38.2725 161.068 52.897 161.068C61.765 161.068 65.0322 155.011 65.8101 151.283C66.2768 149.419 66.4324 147.71 66.588 145.847C44.6513 146.157 22.7146 146.313 0.777897 146.623Z" fill="#D5F1FF"/>
        <path d="M23.8036 162C20.3809 162 16.647 162 12.7575 162C9.49034 162 2.64485 159.049 1.40021 156.098C0.155579 153.147 0 149.885 0 147.089V146.779C0 146.623 0 146.313 0.155579 146.313C0.311159 146.157 0.466738 146.157 0.622318 146.157L66.4324 145.536C66.588 145.536 66.8991 145.691 67.0547 145.847C67.2103 146.002 67.2103 146.157 67.2103 146.468C67.0547 148.642 66.8991 150.351 66.4324 152.059C65.3433 157.03 61.1427 162.311 52.7414 162.311C47.1406 162.311 42.162 162.311 37.3391 162.311C32.9828 161.845 28.471 162 23.8036 162ZM1.10687 147.089C1.10687 149.73 0.494503 153.123 2.21374 155.897C3.14722 158.227 9.8015 160.89 12.7575 160.89C21.9367 161.046 30.6503 160.89 38.7405 160.89C43.5634 160.89 48.6358 160.89 54.2366 160.89C63.645 159.781 65.392 153.079 65.8588 150.904C66.1699 149.506 66.2768 148.176 66.4324 146.468L1.10687 147.089Z" fill="#232F3E"/>
        <path d="M26.9152 154.545C26.4485 154.545 26.1373 154.234 26.1373 153.768C26.1373 153.302 26.4485 152.991 26.9152 152.991C31.2715 152.836 35.6277 152.836 39.9839 152.836C40.4506 152.836 40.7618 153.147 40.7618 153.613C40.7618 154.079 40.4506 154.389 39.9839 154.389C35.6277 154.389 31.2715 154.389 26.9152 154.545Z" fill="#232F3E"/>
        <g opacity="0.1294">
            <path d="M61.4539 66.9434C54.6084 67.0987 47.9185 66.7881 41.073 66.7881C34.5386 66.7881 28.1599 67.254 21.6255 67.254C15.2468 67.0987 8.86803 67.4094 2.48927 67.72C0.311158 67.72 0.311158 70.8264 2.48927 70.9818C8.55687 70.8264 14.6245 70.3605 20.8476 70.5158C25.6706 70.5158 30.4936 70.2051 35.3165 70.0498C44.1846 70.0498 53.2082 70.3605 62.0762 70.3605C62.6985 70.3605 63.4764 70.2052 64.0987 70.3605C64.2543 70.3605 64.2543 70.3605 64.2543 70.3605C64.2543 70.3605 64.2543 70.3605 64.4099 70.3605C65.3434 70.6711 66.4324 70.0498 66.7436 69.1179C67.2103 66.1668 63.7876 66.9434 61.4539 66.9434Z" fill="#232F3E"/>
        </g>
        <path d="M22.2479 129.538C21.3144 129.072 20.2253 129.383 19.4474 130.159C18.8251 130.936 18.5139 131.868 18.6695 132.955C18.6695 133.576 18.9807 134.042 19.4474 134.508C19.7586 134.819 20.0697 134.974 20.5365 135.129C21.3144 135.44 22.2479 135.44 23.1813 134.974C23.9592 134.663 24.5815 133.887 24.7371 132.955C24.8927 131.557 23.9592 130.314 22.2479 129.538Z" fill="white"/>
        <path d="M21.6255 136.061C21.1588 136.061 20.6921 136.061 20.2253 135.906C19.603 135.751 19.2918 135.44 18.8251 135.129C18.3584 134.663 18.0472 133.887 17.8916 133.11C17.7361 131.868 18.0472 130.625 18.9807 129.693C19.9142 128.761 21.47 128.451 22.559 128.917C24.5815 129.848 25.6706 131.402 25.3594 133.11C25.2039 134.197 24.426 135.129 23.3369 135.595C22.8702 135.906 22.2479 136.061 21.6255 136.061ZM21.47 130.159C21.0032 130.159 20.5365 130.314 20.2253 130.78C19.7586 131.246 19.4474 132.178 19.603 132.955C19.603 133.266 19.7586 133.731 20.0697 134.042C20.2253 134.197 20.5365 134.353 20.8476 134.508C21.6255 134.663 22.2479 134.663 22.8702 134.508C23.4925 134.197 23.9592 133.731 23.9592 133.11C24.1148 132.023 23.3369 131.091 22.0923 130.47C21.7811 130.159 21.6255 130.159 21.47 130.159Z" fill="#232F3E"/>
        <path d="M36.0944 129.538C35.1609 129.072 34.0719 129.383 33.294 130.159C32.6717 130.936 32.3605 131.868 32.5161 132.955C32.5161 133.576 32.8273 134.042 33.294 134.508C33.6051 134.819 33.9163 134.974 34.383 135.129C35.1609 135.44 36.0944 135.44 37.0279 134.974C37.8058 134.663 38.4281 133.887 38.5837 132.955C38.7393 131.557 37.8058 130.314 36.0944 129.538Z" fill="white"/>
        <path d="M35.6277 136.061C35.1609 136.061 34.6942 136.061 34.2275 135.906C33.6052 135.751 33.294 135.44 32.8273 135.129C32.3605 134.663 32.0494 133.887 31.8938 133.11C31.7382 131.868 32.0494 130.625 32.9828 129.693C33.9163 128.761 35.4721 128.451 36.5612 128.917C38.5837 129.848 39.6727 131.402 39.3616 133.11C39.206 134.197 38.4281 135.129 37.3391 135.595C36.7167 135.906 36.0944 136.061 35.6277 136.061ZM35.3165 130.159C34.8498 130.159 34.383 130.314 34.0719 130.78C33.6052 131.246 33.294 132.178 33.4496 132.955C33.4496 133.266 33.6051 133.731 33.9163 134.042C34.0719 134.197 34.383 134.353 34.6942 134.508C35.4721 134.663 36.0944 134.663 36.7167 134.508C37.3391 134.197 37.8058 133.731 37.8058 133.11C37.9614 132.023 37.1835 131.091 35.9388 130.47C35.6277 130.159 35.4721 130.159 35.3165 130.159Z" fill="#232F3E"/>
        <path d="M50.0966 129.538C49.1631 129.072 48.074 129.383 47.2961 130.159C46.6738 130.936 46.3627 131.868 46.5182 132.955C46.5182 133.576 46.8294 134.042 47.2961 134.508C47.6073 134.819 47.9185 134.974 48.3852 135.129C49.1631 135.44 50.0966 135.44 51.03 134.974C51.8079 134.663 52.4303 133.887 52.5858 132.955C52.5858 131.557 51.6524 130.314 50.0966 129.538Z" fill="white"/>
        <path d="M49.4742 136.061C49.0075 136.061 48.5408 136.061 48.074 135.906C47.4517 135.751 47.1406 135.44 46.6738 135.129C46.2071 134.663 45.8959 133.887 45.7403 133.11C45.5848 131.868 45.8959 130.625 46.8294 129.693C47.7629 128.761 49.3187 128.451 50.4077 128.917C52.4303 129.848 53.5193 131.402 53.2082 133.11C53.0526 134.197 52.2747 135.129 51.1856 135.595C50.5633 135.906 50.0966 136.061 49.4742 136.061ZM49.1631 130.159C48.6964 130.159 48.2296 130.314 47.9185 130.78C47.4517 131.246 47.1406 132.178 47.2961 132.955C47.2961 133.266 47.4517 133.731 47.7629 134.042C47.9185 134.197 48.2296 134.353 48.5408 134.508C49.3187 134.663 49.941 134.663 50.5633 134.508C51.1856 134.197 51.6524 133.731 51.6524 133.11C51.8079 132.023 51.03 131.091 49.7854 130.47C49.6298 130.159 49.3187 130.159 49.1631 130.159Z" fill="#232F3E"/>
        <g opacity="0.1294">
            <path d="M25.2039 135.751C25.0483 135.129 24.2704 134.819 23.6481 134.974C23.3369 134.974 23.0258 135.129 22.7146 135.129C22.559 135.129 22.4034 135.129 22.2479 135.129C21.9367 135.129 21.7811 134.974 21.47 134.974C21.3144 134.974 21.1588 134.819 21.1588 134.663C21.1588 134.663 21.0032 134.508 20.8476 134.508C20.5365 134.197 20.2253 133.732 19.7586 133.576C18.3584 132.955 16.9582 134.974 18.0472 136.061C18.9807 136.993 20.0697 137.925 21.47 137.925C22.8702 137.925 25.8262 137.615 25.2039 135.751Z" fill="#232F3E"/>
        </g>
        <g opacity="0.1294">
            <path d="M39.206 135.595C39.0504 135.129 38.7393 134.974 38.2725 134.819C37.8058 134.663 37.3391 134.974 36.8723 134.974C36.0944 135.129 36.4056 135.129 35.3165 135.129H35.1609C34.0719 134.819 34.5386 134.819 33.4496 134.508C31.8938 134.197 31.1159 136.527 32.5161 137.304C33.4496 137.77 34.5386 138.08 35.6277 138.08C37.0279 137.77 39.8283 137.459 39.206 135.595Z" fill="#232F3E"/>
        </g>
        <g opacity="0.1294">
            <path d="M50.7189 134.819C50.4077 134.819 49.4743 134.819 49.0075 134.819C48.074 134.663 48.074 134.508 47.9185 134.508C47.6073 134.353 47.2961 134.042 46.985 134.042C45.4292 133.731 44.6513 136.061 46.0515 136.838C47.4517 137.77 49.3187 137.925 51.03 137.459C51.6524 137.304 52.5858 137.304 52.897 136.527C53.3637 135.285 52.1191 134.197 50.7189 134.819Z" fill="#232F3E"/>
        </g>
        <path d="M12.4323 102.8C12.206 102.8 11.9796 102.645 11.9796 102.49C11.9796 102.334 12.206 102.179 12.4323 102.179C18.9969 101.868 25.7878 101.868 32.3524 102.179C32.5787 102.179 32.8051 102.334 32.8051 102.49C32.8051 102.645 32.5787 102.8 32.3524 102.8C25.7878 102.49 18.9969 102.49 12.4323 102.8Z" fill="#232F3E"/>
        <path d="M12.4867 94.0597C12.3312 94.0597 12.1756 93.9044 12.1756 93.7491C12.1756 93.5937 12.3312 93.4384 12.4867 93.4384C16.9985 93.1278 21.6659 93.1278 26.1777 93.4384C26.3333 93.4384 26.4889 93.5937 26.4889 93.7491C26.4889 93.9044 26.3333 94.0597 26.1777 94.0597C21.6659 93.7491 16.9985 93.7491 12.4867 94.0597Z" fill="#232F3E"/>
        <path d="M12.8851 111.077C12.6587 111.077 12.4323 110.922 12.4323 110.766C12.4323 110.611 12.6587 110.456 12.8851 110.456L40.5015 109.834C40.7278 109.834 40.9542 109.99 40.9542 110.145C40.9542 110.3 40.7278 110.456 40.5015 110.456L12.8851 111.077Z" fill="#232F3E"/>
        <path d="M12.6019 119.664C12.4464 119.664 12.4464 119.509 12.4464 119.354C12.4464 119.198 12.6019 119.043 12.7575 119.043L26.1373 118.888C26.2929 118.888 26.4485 119.043 26.4485 119.198C26.4485 119.354 26.2929 119.509 26.1373 119.509L12.6019 119.664Z" fill="#232F3E"/>
        <path d="M25.6706 65.0796C16.3358 56.5369 17.7361 43.024 19.603 31.8409C21.0032 23.7642 21.7811 14.7555 29.2489 9.16398C37.9614 2.64049 56.3198 1.55324 68.2994 1.08727C83.235 0.465989 98.1706 1.08727 112.795 2.79581C120.574 3.72773 128.664 5.12563 134.265 9.47462C138.932 13.2023 141.111 18.3279 142.355 23.4535C145 33.86 145 44.7325 142.2 55.139C141.266 58.7114 139.866 62.2838 136.599 64.9243C133.02 67.7201 127.264 71.7584 122.285 72.535C111.55 74.2436 101.282 72.2244 90.2361 72.535C82.3015 72.8457 73.7446 73.001 67.2103 76.7287C59.7425 81.0777 55.6974 97.2311 47.6073 101.114C45.118 95.9885 49.4742 82.1649 47.1406 76.884C44.4957 70.5158 32.0494 70.8265 25.6706 65.0796Z" fill="white"/>
        <path d="M47.7629 101.891C47.4517 101.891 47.1406 101.735 47.1406 101.425C45.7403 98.629 46.2071 93.814 46.8294 88.6884C47.2961 84.1841 47.7629 79.6798 46.6738 77.1946C45.2736 73.9329 40.9174 72.535 36.25 70.9818C32.2049 69.5839 28.1599 68.3413 25.2039 65.5456C15.5579 56.8476 16.9582 43.4899 18.9807 31.5302C19.1363 30.9089 19.1363 30.1323 19.2918 29.511C20.5365 22.0556 21.7811 13.6683 28.9378 8.38735C37.3391 2.01918 54.4528 0.621292 68.2994 0.155328C83.235 -0.465957 98.1706 0.155328 112.951 1.86386C120.885 2.79579 129.131 4.349 134.732 8.69799C139.866 12.8917 141.888 18.6385 143.133 23.2982C145.778 33.86 145.778 44.8878 142.977 55.4497C142.044 58.8667 140.644 62.9051 137.065 65.5456C133.02 68.652 127.264 72.535 122.441 73.3116C115.907 74.2435 109.528 73.9329 103.305 73.6223C99.1041 73.4669 94.7479 73.1563 90.3916 73.3116H89.147C81.5236 73.6223 73.5891 73.9329 67.677 77.35C64.2543 79.3691 61.4539 84.1841 58.809 88.8437C55.6974 94.1246 52.5858 99.7162 48.074 101.735C48.074 101.891 47.9185 101.891 47.7629 101.891ZM26.1373 64.4583C28.9378 66.9434 32.3605 68.5062 36.25 69.9041C41.2285 71.6126 46.0515 73.1563 47.7629 77.1946C49.0075 79.9904 48.3852 84.3516 47.7629 89.3219C47.2961 93.5156 46.985 98.3321 47.7629 100.973C51.3412 98.7981 55.3103 93.0273 58.1107 88.2123C60.9111 83.3974 63.2317 79.0585 66.9657 76.7287C73.1888 73.001 81.3241 72.4339 89.1031 72.1233H94.084C98.5958 71.9679 100.952 72.3674 105.153 72.6781C111.531 72.9887 117.037 73.0552 123.416 72.1233C126.994 71.502 131.098 68.7051 136.698 64.3561C139.81 61.871 141.455 57.6316 142.233 54.3698C145.033 44.1186 144.878 33.5494 142.233 23.2982C141.144 18.9492 138.201 12.6044 133.378 8.87669C128.088 4.68302 120.126 3.70588 112.347 2.77395C97.7229 1.06542 82.4547 0.488283 67.5191 1.10957C53.8281 1.57553 37.0279 3.37396 28.9378 9.43149C22.4034 14.4018 21.6255 22.3481 20.3809 29.9589C20.2253 30.5802 19.4474 34.3307 19.2918 34.952C18.2634 46.0479 17.1137 56.3816 26.1373 64.4583Z" fill="#232F3E"/>
        <path d="M35.3165 12.4257C35.1609 12.4257 35.0054 12.2704 35.0054 12.1151C35.0054 11.9597 35.1609 11.8044 35.3165 11.8044L50.8745 11.4938C51.03 11.4938 51.1856 11.6491 51.1856 11.8044C51.1856 11.9597 51.03 12.1151 50.8745 12.1151L35.3165 12.4257Z" fill="#232F3E"/>
        <path d="M29.8712 18.7939C29.7157 18.7939 29.5601 18.6386 29.5601 18.4832C29.5601 18.3279 29.7157 18.1726 29.8712 18.1726L37.8058 18.0173C37.9614 18.0173 38.117 18.1726 38.117 18.3279C38.117 18.4832 37.9614 18.6386 37.8058 18.6386L29.8712 18.7939Z" fill="#232F3E"/>
        <path d="M48.9482 26.2492C49.9455 25.7833 51.774 33.5493 51.774 33.5493C51.774 33.5493 59.0879 32.928 59.5865 34.1706C60.2514 35.4132 53.6024 39.4515 53.6024 39.4515C53.6024 39.4515 56.262 47.2176 55.4309 47.6836C54.1011 48.3048 48.7819 43.3346 48.7819 43.3346C48.7819 43.3346 43.1303 48.1495 42.1329 47.6836C41.6343 47.5282 44.1276 39.6068 44.1276 39.6068C44.1276 39.6068 37.8111 35.7238 38.3098 34.6366C38.6422 33.7046 45.9561 33.86 45.9561 33.86C45.9561 33.86 47.6184 26.7152 48.9482 26.2492Z" fill="#FFA500"/>
        <path d="M55.4309 48.6155C54.1011 48.6155 51.9402 47.2176 48.9482 44.4218C43.2965 49.0815 42.2992 48.6155 41.9667 48.4602C41.3018 48.1495 40.9694 47.9942 43.4627 40.0728C37.1462 36.0345 37.6449 34.9472 37.8111 34.4813C37.9773 34.0153 38.3098 33.0834 45.4574 33.0834C46.1223 30.2876 47.2859 26.0939 48.6157 25.4726C48.9482 25.3173 49.2806 25.3173 49.4468 25.4726C50.2779 25.9386 51.2753 28.2684 52.4389 32.6174C57.2594 32.3068 59.919 32.6174 60.4177 33.7047C60.5839 34.1706 61.415 35.4132 54.766 39.6069C57.4256 47.5282 56.5945 47.9942 56.0958 48.3048C55.9296 48.6155 55.5971 48.6155 55.4309 48.6155ZM48.9482 42.7133C49.1144 42.7133 49.4468 42.7133 49.4468 42.8686C51.6077 44.8878 53.9349 46.5963 54.9322 47.0623C54.766 45.8197 53.9349 42.558 52.9376 39.7622C52.7713 39.4515 52.9375 39.1409 53.27 38.8303C55.9296 37.1217 58.423 35.2579 58.9216 34.4813C58.0905 34.1706 55.0985 34.0153 51.9402 34.3259C51.6077 34.3259 51.1091 34.1706 51.1091 33.7047C50.4442 31.2195 49.6131 28.4237 49.1144 27.3365C48.4495 28.4237 47.6184 31.5302 46.9535 34.1706C46.9535 34.4813 46.621 34.7919 46.1223 34.7919C43.629 34.7919 40.6369 34.9472 39.4733 35.1025C40.1382 35.8792 42.6316 37.743 44.7925 39.1409C45.125 39.2962 45.2912 39.6069 45.125 39.9175C44.2939 42.4026 43.4627 45.1984 43.1303 46.7516C44.2939 46.1304 46.621 44.4218 48.2833 42.8686C48.6157 42.7133 48.7819 42.7133 48.9482 42.7133Z" fill="#FFA500"/>
        <path d="M84.0216 26.2492C85.0189 25.7833 86.8474 33.5493 86.8474 33.5493C86.8474 33.5493 94.1613 32.928 94.66 34.1706C95.3249 35.4132 88.6759 39.4515 88.6759 39.4515C88.6759 39.4515 91.3355 47.2176 90.5044 47.6836C89.1746 48.3048 83.8554 43.3346 83.8554 43.3346C83.8554 43.3346 78.2037 48.1495 77.2064 47.6836C76.7077 47.5282 79.2011 39.6068 79.2011 39.6068C79.2011 39.6068 72.8845 35.7238 73.3832 34.6366C73.7157 33.7046 81.0296 33.86 81.0296 33.86C81.0296 33.86 82.858 26.7152 84.0216 26.2492Z" fill="#FFA500"/>
        <path d="M90.5044 48.6155C89.1746 48.6155 87.0136 47.2176 84.0216 44.4218C78.37 49.0815 77.3726 48.6155 77.0402 48.4602C76.3753 48.1495 76.0428 47.9942 78.5362 40.0728C72.2196 36.0345 72.7183 34.9472 72.8845 34.4813C73.0508 34.0153 73.3832 33.0834 80.5309 33.0834C81.1958 30.2876 82.3594 26.0939 83.6892 25.4726C84.0216 25.3173 84.3541 25.3173 84.5203 25.4726C85.3514 25.9386 86.3488 28.2684 87.5123 32.6174C92.3329 32.3068 94.9924 32.6174 95.4911 33.7047C95.6573 34.1706 96.4885 35.4132 89.8395 39.6069C92.4991 47.5282 91.668 47.9942 91.1693 48.3048C91.0031 48.6155 90.8368 48.6155 90.5044 48.6155ZM84.0216 42.7133C84.1878 42.7133 84.5203 42.7133 84.5203 42.8686C86.6812 44.8878 89.0084 46.5963 90.0057 47.0623C89.8395 45.8197 89.0084 42.558 88.011 39.7622C87.8448 39.4515 88.011 39.1409 88.3435 38.8303C91.0031 37.1217 93.4964 35.2579 93.9951 34.4813C93.164 34.1706 90.1719 34.0153 87.0137 34.3259C86.6812 34.3259 86.1825 34.1706 86.1825 33.7047C85.5176 31.2195 84.6865 28.4237 84.1878 27.3365C83.5229 28.4237 82.6918 31.5302 82.0269 34.1706C82.0269 34.4813 81.5282 34.7919 81.1958 34.7919C78.7024 34.7919 75.7104 34.9472 74.5468 35.1025C75.2117 35.8792 77.7051 37.743 79.866 39.1409C80.1984 39.2962 80.3647 39.6069 80.1984 39.9175C79.3673 42.4026 78.5362 45.1984 78.2037 46.7516C79.3673 46.1304 81.6945 44.4218 83.3567 42.8686C83.6892 42.7133 83.8554 42.7133 84.0216 42.7133Z" fill="#FFA500"/>
        <path d="M119.261 26.2492C120.259 25.7833 122.087 33.5493 122.087 33.5493C122.087 33.5493 129.401 32.928 129.9 34.1706C130.565 35.4132 123.916 39.4515 123.916 39.4515C123.916 39.4515 126.575 47.2176 125.744 47.6836C124.414 48.3048 119.095 43.3346 119.095 43.3346C119.095 43.3346 113.443 48.1495 112.446 47.6836C111.947 47.5282 114.441 39.6068 114.441 39.6068C114.441 39.6068 108.29 35.7238 108.789 34.7919C109.122 33.86 116.435 34.0153 116.435 34.0153C116.435 34.0153 117.931 26.7152 119.261 26.2492Z" fill="#FFA500"/>
        <path d="M125.578 48.6155C124.248 48.6155 122.087 47.2176 119.095 44.4218C113.443 49.0815 112.446 48.6155 112.114 48.4602C111.449 48.1495 111.116 47.9942 113.61 40.0728C107.293 36.0345 107.792 34.9472 107.958 34.4813C108.124 34.0153 108.457 33.0834 115.604 33.0834C116.269 30.2876 117.433 26.0939 118.763 25.4726C119.095 25.3173 119.428 25.3173 119.594 25.4726C120.425 25.9386 121.422 28.2684 122.586 32.6174C127.406 32.3068 130.066 32.6174 130.565 33.7047C130.731 34.1706 131.562 35.4132 124.913 39.6069C127.573 47.5282 126.741 47.9942 126.243 48.3048C126.076 48.6155 125.91 48.6155 125.578 48.6155ZM119.261 42.7133C119.428 42.7133 119.76 42.7133 119.76 42.8686C121.921 44.8878 124.248 46.5963 125.245 47.0623C125.079 45.8197 124.248 42.558 123.251 39.7622C123.084 39.4515 123.251 39.1409 123.583 38.8303C126.243 37.1217 128.736 35.2579 129.235 34.4813C128.404 34.1706 125.412 34.0153 122.253 34.3259C121.921 34.3259 121.422 34.1706 121.422 33.7047C120.757 31.2195 119.926 28.4237 119.428 27.3365C118.763 28.4237 117.931 31.5302 117.267 34.1706C117.267 34.4813 116.768 34.7919 116.435 34.7919C113.942 34.7919 110.95 34.9472 109.786 35.1025C110.451 35.8792 112.945 37.743 115.106 39.1409C115.438 39.2962 115.604 39.6069 115.438 39.9175C114.607 42.4026 113.776 45.1984 113.443 46.7516C114.607 46.1304 116.934 44.4218 118.596 42.8686C118.763 42.7133 118.929 42.7133 119.261 42.7133Z" fill="#FFA500"/>
        <g opacity="0.1294">
            <path d="M130.376 67.72C130.064 67.72 128.353 68.4966 128.197 68.4966C126.486 69.1179 125.864 69.2732 124.152 69.5839C120.418 70.2052 114.818 70.2052 110.306 70.0498C96.6148 70.0498 79.5011 66.6328 67.0547 73.6222C58.9646 77.9712 55.5418 88.6884 50.7189 94.4353C49.941 95.3672 49.1631 96.2991 48.2296 97.0757C47.9185 97.3864 47.4517 97.697 47.2961 98.163C46.6738 99.5609 48.5408 100.959 49.7854 99.8715C54.4528 95.5225 57.0976 90.5522 60.5204 84.65C66.2768 75.1755 74.367 73.4669 84.1685 72.6903C88.2135 72.3797 92.2586 72.3797 96.1481 72.535C101.593 72.3797 107.039 72.6903 112.484 72.535C116.373 72.3797 119.796 72.535 122.908 71.9137C125.864 71.4477 127.886 70.6711 130.531 69.4286C130.842 69.2732 131.309 69.1179 131.309 68.8073C131.309 68.186 130.842 67.72 130.376 67.72Z" fill="#232F3E"/>
        </g>
    </g>
    <defs>
        <clipPath id="clip0_1716_1761">
            <rect width="145" height="162" fill="white"/>
        </clipPath>
    </defs>
</svg>
