<svg width="34" height="34" viewBox="0 0 34 34" fill="none" xmlns="http://www.w3.org/2000/svg">
    <path d="M20.8604 4.25V6.375H6.375V27.625H27.625V13.175H29.75V27.625C29.75 28.1917 29.5375 28.6875 29.1125 29.1125C28.6875 29.5375 28.1917 29.75 27.625 29.75H6.375C5.80833 29.75 5.3125 29.5375 4.8875 29.1125C4.4625 28.6875 4.25 28.1917 4.25 27.625V6.375C4.25 5.80833 4.4625 5.3125 4.8875 4.8875C5.3125 4.4625 5.80833 4.25 6.375 4.25H20.8604ZM26.9167 4.25V7.11875H29.7854V9.24375H26.9167V12.1125H24.7917V9.24375H21.9229V7.11875H24.7917V4.25H26.9167ZM8.5 24.0125H25.5L20.4 17.2125L15.9021 23.1271L12.5729 18.7354L8.5 24.0125ZM6.375 6.375V27.625V6.375Z" fill="#FFC361"/>
</svg>
