<svg width="27" height="36" viewBox="0 0 27 36" fill="none" xmlns="http://www.w3.org/2000/svg">
    <path d="M10.4394 2.93512H7.48487H5.31819" stroke="#232F3E" stroke-width="0.5"/>
    <path d="M3.54561 2.5481V16.0941H11.2275" stroke="#232F3E" stroke-width="0.5"/>
    <path d="M17.5306 18.8034V22.2867H4.9245V16.0942" stroke="#232F3E" stroke-width="0.5"/>
    <path d="M7.68184 22.4802V25.9635H15.1667V22.4802" stroke="#232F3E" stroke-width="0.5"/>
    <path d="M9.65149 26.3505V30.9948L11.2273 32.7364L12.4091 31.3818V26.3505" stroke="#232F3E" stroke-width="0.5"/>
    <path d="M0 31.8088L8.27275 31.8088" stroke="#232F3E" stroke-width="0.5"/>
    <path d="M15.3637 31.8088H22.0607" stroke="#232F3E" stroke-width="0.5"/>
    <path d="M2.9547 35.2728H19.8942" stroke="#232F3E" stroke-width="0.5"/>
    <path d="M21.4166 9.70825C21.4166 12.131 19.4163 14.1026 16.9394 14.1026C14.4624 14.1026 12.4621 12.131 12.4621 9.70825C12.4621 7.28547 14.4624 5.3139 16.9394 5.3139C19.4163 5.3139 21.4166 7.28547 21.4166 9.70825Z" fill="#FFA500" stroke="#232F3E" stroke-width="0.5"/>
    <path d="M12.212 2.54812L9.45446 5.06381L11.4242 6.61192L9.65143 7.96652H7.87869L8.07566 11.4498H10.6363L11.4242 12.9979L9.65143 14.7395L12.0151 17.0617L13.5908 15.5136L15.3636 16.6747V18.6098H18.7121L19.106 16.2876L20.6818 15.7071L22.2576 17.2552L24.6212 14.933L23.0454 12.9979L23.8333 11.4498L26 11.2563V8.16004L23.4394 7.96652L23.0454 6.22489L24.6212 4.48326L22.2576 2.16109L20.8788 3.90272L18.7121 3.12866V1H15.3636V3.12866L13.3939 3.90272L12.212 2.54812Z" stroke="#232F3E" stroke-width="0.5"/>
    <path d="M19.0531 9.70816C19.0531 10.8484 18.111 11.7803 16.9395 11.7803C15.768 11.7803 14.8258 10.8484 14.8258 9.70816C14.8258 8.56788 15.768 7.63599 16.9395 7.63599C18.111 7.63599 19.0531 8.56788 19.0531 9.70816Z" fill="#FFA500" stroke="#232F3E" stroke-width="0.5"/>
</svg>
