<svg width="24" height="27" viewBox="0 0 24 27" fill="none" xmlns="http://www.w3.org/2000/svg">
    <path d="M7.67906 15.2489L10.3018 11.3102L13.5206 16.5232C13.9021 19.6742 11.5337 20.4619 10.3018 20.4619C6.01005 19.6278 6.76508 16.6391 7.67906 15.2489Z" fill="#FFA500" stroke="#232F3E" stroke-width="0.5"/>
    <path d="M1.0031 6.09712C1.0031 4.24361 2.27473 4.08915 2.91054 4.24361H13.5207L19.9583 10.2675V25.3273C19.9583 26.6247 18.6866 26.7947 18.0508 26.7174H2.91054C1.28922 26.8101 0.963366 25.8293 1.0031 25.3273V6.09712Z" stroke="#232F3E" stroke-width="0.5"/>
    <path d="M15.5 6.74059L18.4573 3.60253C18.0693 3.39333 17.4485 2.82429 18.0693 2.22178C18.1986 2.05442 18.5607 1.82011 18.9746 2.22178L22.9838 5.98746C23.07 6.69876 22.8545 7.84519 21.3025 6.74059L18.9746 9" stroke="#232F3E" stroke-width="0.5"/>
    <path d="M13.2823 23.2423H19.7199" stroke="#232F3E" stroke-width="0.5"/>
    <path d="M13.0438 25.3275H19.839" stroke="#232F3E" stroke-width="0.5"/>
    <path d="M1.12239 6.32895H7.56" stroke="#232F3E" stroke-width="0.5"/>
    <path d="M7.79843 8.52994H1.12239" stroke="#232F3E" stroke-width="0.5"/>
    <path d="M7.91752 8.52994C6.77306 8.52994 2.83102 8.52994 1.00305 8.52994" stroke="#232F3E" stroke-width="0.5"/>
    <path d="M2.55301 4.1278C2.31458 3.16243 2.40995 1.18535 4.69888 1H10.5404C11.2954 1.11584 12.8055 1.90359 12.8055 4.1278" stroke="#232F3E" stroke-width="0.5"/>
    <path d="M11.6132 4.24371C11.6529 3.58726 11.3032 2.27435 9.58654 2.27435H5.2948C4.73846 2.27435 3.67347 2.66822 3.86422 4.24371" stroke="#232F3E" stroke-width="0.5"/>
</svg>
