<svg width="26" height="32" viewBox="0 0 26 32" fill="none" xmlns="http://www.w3.org/2000/svg">
    <path d="M19.24 12.6545V22.5409H14.44V30.8454C14.76 31.2409 15.496 31.7945 15.88 30.8454V23.7273H19.24V30.8454C19.4 31.2409 20.296 31.7945 20.68 30.8454V23.7273H23.56V30.8454C23.72 31.2409 24.616 31.7945 25 30.8454V22.5409H20.68V12.6545" stroke="#232F3E" stroke-width="0.5"/>
    <path d="M6.28 11.0728H2.44C1.96 11.0728 1 10.9146 1 10.2818V8.70003C1.16 7.64548 1.864 5.22003 3.4 3.95458L6.28 1.1864C6.6 0.790941 7.432 0.237305 8.2 1.1864L10.12 2.76823C11.24 3.55913 13.48 6.01095 13.48 9.49095V10.2818C13.48 10.5455 13.288 11.0728 12.52 11.0728H8.2" stroke="#232F3E" stroke-width="0.5"/>
    <path d="M6.52997 5.70548C6.52997 5.31336 6.84785 4.99548 7.23997 4.99548C7.63209 4.99548 7.94997 5.31336 7.94997 5.70548V18.7318H6.52997V5.70548Z" stroke="#232F3E" stroke-width="0.5"/>
    <rect x="4.60995" y="19.2318" width="5.26" height="1.87273" rx="0.75" stroke="#232F3E" stroke-width="0.5"/>
    <rect x="17.0901" y="10.5318" width="5.26" height="1.87273" rx="0.75" stroke="#232F3E" stroke-width="0.5"/>
    <path d="M4.60995 22.3546C4.60995 21.9403 4.94574 21.6046 5.35995 21.6046H9.11995C9.53417 21.6046 9.86995 21.9403 9.86995 22.3546V29.6364C9.86995 30.6029 9.08645 31.3864 8.11995 31.3864H6.35996C5.39346 31.3864 4.60995 30.6029 4.60995 29.6364V22.3546Z" fill="#FFA500" stroke="#232F3E" stroke-width="0.5"/>
    <path d="M22.3499 9.2818C22.3499 9.69601 22.0141 10.0318 21.5999 10.0318L17.8399 10.0318C17.4257 10.0318 17.0899 9.69601 17.0899 9.2818L17.0899 1.99998C17.0899 1.03348 17.8734 0.249983 18.8399 0.249984L20.5999 0.249984C21.5664 0.249984 22.3499 1.03349 22.3499 1.99998L22.3499 9.2818Z" fill="#FFA500" stroke="#232F3E" stroke-width="0.5"/>
</svg>
