<svg width="27" height="26" viewBox="0 0 27 26" fill="none" xmlns="http://www.w3.org/2000/svg">
    <path d="M5.27531 2.8876H7.34779" stroke="#232F3E" stroke-width="0.5"/>
    <path d="M8.64296 2.8876H15.508" stroke="#232F3E" stroke-width="0.5"/>
    <path d="M4.62762 3.56171H1.00079L2.81421 10.0333" stroke="#232F3E" stroke-width="0.5"/>
    <path d="M14.0834 22.8416H2.68479C2.20985 22.7068 1.25996 22.9764 1.25996 25.1336" stroke="#232F3E" stroke-width="0.5"/>
    <path d="M16.2853 22.5719H18.3578C18.8327 22.6169 19.7567 23.1652 19.6531 24.9988" stroke="#232F3E" stroke-width="0.5"/>
    <path d="M23.8334 25.538H0" stroke="#232F3E" stroke-width="0.5"/>
    <path d="M2.2961 22.8416V16.7745C2.25292 14.1229 2.78831 7.63337 5.27528 2.88754C5.36163 2.25836 5.89701 1 7.34774 1H13.5652C14.3855 1 16.2076 2.0786 16.9329 6.39298" stroke="#232F3E" stroke-width="0.5"/>
    <path d="M17.8397 9.08945C18.3578 11.6961 19.2386 18.0688 18.6169 22.7067" stroke="#232F3E" stroke-width="0.5"/>
    <path d="M19.1349 21.2237L20.4302 20.1451C20.5597 18.1676 20.6116 13.296 19.7826 9.62876C19.4803 8.68499 19.2904 7.01316 20.9483 7.87604C21.6392 8.5951 23.0726 11.5702 23.2799 17.7182C23.7116 18.6171 24.8601 19.8754 26 17.7182C25.8273 13.4038 24.5752 4.64025 20.9483 4.10095C20.3007 3.92119 18.4873 3.66951 16.4148 4.10095" stroke="#232F3E" stroke-width="0.5"/>
    <path d="M16.933 3.96613L17.8397 2.75271L19.9122 2.34824L20.6893 3.96613" stroke="#232F3E" stroke-width="0.5"/>
    <rect x="8.65813" y="6.05466" width="4.30465" height="13.9139" rx="2.15232" fill="#FFA500" stroke="#232F3E" stroke-width="0.5"/>
</svg>
