<svg width="27" height="30" viewBox="0 0 27 30" fill="none" xmlns="http://www.w3.org/2000/svg">
    <path d="M20.0909 9.26049V1.05916C16.7697 0.690565 16.3764 2.13424 16.5949 2.90216V6.68029C16.5075 8.96561 18.8892 9.35264 20.0909 9.26049Z" stroke="#232F3E" stroke-width="0.5"/>
    <path d="M26 3.76717L22.4545 2.1818L20.0909 3.76717V6.3614L22.4545 8.09089L26 6.3614" stroke="#232F3E" stroke-width="0.5"/>
    <circle cx="10.6364" cy="22.2727" r="2.11364" fill="#FFA500" stroke="#232F3E" stroke-width="0.5"/>
    <path d="M6.91409 4.23441H16.7302M23.6364 29.3636H1.77281C1.72782 28.3224 2.48736 25.0582 4.75471 25.0582H20.091C21.1032 24.9425 23.6364 26.5871 23.6364 29.3636Z" stroke="#232F3E" stroke-width="0.5"/>
    <path d="M16.5456 7.65552H6.84215" stroke="#232F3E" stroke-width="0.5"/>
    <path d="M7.68175 10.4546L11.8181 19.2871H13.5908L15.9545 25.2273" stroke="#232F3E" stroke-width="0.5"/>
    <path d="M6.84215 19.2871H12.3158" stroke="#232F3E" stroke-width="0.5"/>
    <path d="M3.5455 11.0454L6.84211 19.3601L4.78948 25.1029" stroke="#232F3E" stroke-width="0.5"/>
    <circle cx="5.31819" cy="6.3182" r="2.70455" fill="#FFA500" stroke="#232F3E" stroke-width="0.5"/>
    <circle cx="5.31818" cy="6.31818" r="5.06818" stroke="#232F3E" stroke-width="0.5"/>
</svg>
