<svg width="23" height="28" viewBox="0 0 23 28" fill="none" xmlns="http://www.w3.org/2000/svg">
    <path d="M15.5078 6.83421L8.43991 13.9021L11.798 15.2134L10.007 21.8655L16.4033 15.2134L13.7488 14.126L15.5078 6.83421Z" fill="#FFA500"/>
    <path d="M21 3H18.5H17M2.17154 5.71485L1.00005 6.83421V11L2.17154 12M8.43991 13.9021L15.5078 6.83421L13.7488 14.126L16.4033 15.2134L10.007 21.8655L11.798 15.2134L8.43991 13.9021Z" stroke="#232F3E" stroke-width="0.5"/>
    <path d="M2.20359 17.1863L1 18V22L2.20359 23" stroke="#232F3E" stroke-width="0.5"/>
    <path d="M3.25005 2C3.25005 1.0335 4.03355 0.25 5.00005 0.25H21C21.9665 0.25 22.75 1.0335 22.75 2V26C22.75 26.9665 21.9665 27.75 21 27.75H5.00005C4.03355 27.75 3.25005 26.9665 3.25005 26V2Z" stroke="#232F3E" stroke-width="0.5"/>
    <path d="M21 3V23C21 24.1046 20.1046 25 19 25H7C5.89543 25 5 24.1046 5 23V5C5 3.89543 5.89543 3 7 3H15.735" stroke="#232F3E" stroke-width="0.5"/>
</svg>
