<svg width="27" height="25" viewBox="0 0 27 25" fill="none" xmlns="http://www.w3.org/2000/svg">
    <path d="M17.5455 1.60567H18.9637V1.11133H22.2728L23.2182 2.10001C23.691 2.10001 24.6364 2.39661 24.6364 3.58303C24.6364 4.07737 24.3528 5.06605 23.2182 5.06605L22.2728 6.05473H18.9637V5.06605H17.5455" stroke="#232F3E" stroke-width="0.5"/>
    <path d="M21.3272 2.59448V6.05486" stroke="#232F3E" stroke-width="0.5"/>
    <path d="M18.9636 1.60571V5.06609" stroke="#232F3E" stroke-width="0.5"/>
    <path d="M23.2182 2.1001V5.06614" stroke="#232F3E" stroke-width="0.5"/>
    <path d="M27 3.58319H24.6364" stroke="#232F3E" stroke-width="0.5"/>
    <path d="M2.89096 19.8963V18.4133H5.72732V19.8963H2.89096Z" stroke="#232F3E" stroke-width="0.5"/>
    <path d="M4.30915 19.8963C4.15157 20.885 4.40369 22.9612 6.67278 23.3567C7.93339 23.0271 10.7382 22.6646 11.8728 23.851" stroke="#232F3E" stroke-width="0.5"/>
    <path d="M5.42563 8.36174C5.80381 7.17533 4.23878 6.53738 3.76606 6.70216L2.10649 6.70215L1.5533 11.6809L1.00011 15.4473C1.00011 15.4473 1.00011 16.1064 3.21287 16.1064C5.42563 16.1064 4.87244 15.5532 4.87244 15C4.87244 14.4468 5.11048 10.0095 5.42563 8.36174Z" fill="#FFA500"/>
    <path d="M9.03645 8.03216L8.56372 10.5039H6.67282M2.10649 6.70215L3.76606 6.70216C4.23878 6.53738 5.80381 7.17533 5.42563 8.36174C5.11048 10.0095 4.87244 14.4468 4.87244 15C4.87244 15.5532 5.42563 16.1064 3.21287 16.1064C1.00011 16.1064 1.00011 15.4473 1.00011 15.4473L1.5533 11.6809L2.10649 6.70215Z" stroke="#232F3E" stroke-width="0.3"/>
    <path d="M12.3454 2.10009H3.83638C3.52123 1.77053 3.17456 1.01254 4.3091 0.617065H16.6C16.9152 0.617065 17.5455 0.814801 17.5455 1.60575V7.53782C17.0728 7.7026 16.0328 8.2299 15.6546 9.02084H12.8182L11.8728 8.03216" stroke="#232F3E" stroke-width="0.5"/>
    <path d="M14.2364 3.08878V8.03218H9.0364C8.4061 7.8674 7.1455 8.13104 7.1455 10.5039C6.83035 10.5039 6.20005 10.6027 6.20005 10.9982V15.9416C6.83035 16.436 7.71277 17.6224 6.20005 18.4133H2.89097C2.26067 18.4133 1 18.2415 1 16.6596C1 14.1879 1.18915 8.62539 1.94552 7.0435L3.36369 4.07746C3.52127 3.7479 3.83642 2.89104 3.83642 2.1001" stroke="#232F3E" stroke-width="0.5"/>
    <path d="M4.78194 4.07751H6.20011" stroke="#232F3E"/>
    <path d="M4.30925 5.5603H6.20015" stroke="#232F3E"/>
</svg>
