<svg width="26" height="28" viewBox="0 0 26 28" fill="none" xmlns="http://www.w3.org/2000/svg">
    <rect x="0.25" y="5.45" width="2.1" height="9.03334" rx="1.05" fill="#FFA500" stroke="#232F3E" stroke-width="0.5"/>
    <path d="M21.7252 12.1333V12.1333C22.6502 12.1333 23.4 12.8832 23.4 13.8081L23.4 13.8667C23.4 14.824 22.624 15.6 21.6667 15.6L15.6 15.6C14.6427 15.6 13.8667 14.824 13.8667 13.8667V13.8667C13.8667 12.9094 14.6427 12.1333 15.6 12.1333L15.7991 12.1333" stroke="#232F3E" stroke-width="0.5"/>
    <path d="M15.6 12.0874V6.27901C15.7294 4.84795 16.9194 1.93534 20.6448 1.73331H24.2667V7.92051C23.4906 7.71006 21.9384 7.81949 21.9384 9.94082V12.0874M21.4209 20.8C21.5934 20.6737 21.9384 19.9666 21.9384 18.1483V15.3833" stroke="#232F3E" stroke-width="0.5"/>
    <path d="M19.9334 23.5582C18.3729 25.4037 14.0375 28.451 9.1791 25.8759C7.95607 25.2321 5.35818 23.0947 4.75088 19.6955V15.1889C4.8774 14.5451 4.62435 13.206 2.60002 13" stroke="#232F3E" stroke-width="0.5"/>
    <path d="M2.60002 6.93916H5.91014C7.54476 6.85362 10.8385 7.68343 10.9366 11.6871V18.6164C10.9366 19.3008 11.4515 20.6953 13.5111 20.7979C14.2467 20.8407 15.6934 20.259 15.5953 17.5899L15.6 15.6001" stroke="#232F3E" stroke-width="0.5"/>
    <rect x="23.65" y="0.25" width="2.1" height="9.03334" rx="1.05" fill="#FFA500" stroke="#232F3E" stroke-width="0.5"/>
</svg>
