<svg width="27" height="18" viewBox="0 0 27 18" fill="none" xmlns="http://www.w3.org/2000/svg">
    <path d="M15.2962 6.24674L14.6171 0H13.2067H12.5091L11.2933 6.33117L15.2962 6.24674Z" fill="#FAA51A"/>
    <path d="M24.9631 15.3637C24.9631 11.6177 23.4282 7.80793 20.4208 5.31061C19.6801 4.69084 18.8591 4.18044 17.9846 3.77941L17.7258 2.12973C16.5746 1.58287 15.8696 1.30942 14.888 1.20005L15.3855 6.08533H11.3826L12.2643 1.20005C10.2832 1.38234 9.42653 2.12973 9.42653 2.12973L9.14096 3.77941C6.13359 5.19213 3.95615 7.9173 2.9299 10.925C2.43016 12.356 2.19814 13.8598 2.19814 15.3637H24.9631Z" stroke="#232F3E" stroke-width="0.5" stroke-miterlimit="10"/>
    <path d="M17.5836 2.11035L18.713 7.97489" stroke="#232F3E" stroke-width="0.5" stroke-miterlimit="10"/>
    <path d="M8.59583 7.97494L9.59779 2.05017" stroke="#232F3E" stroke-width="0.5" stroke-miterlimit="10"/>
    <path d="M6.26083 8.9093C6.26083 8.9093 5.11699 11.0441 5.20566 12.6711H12.2815" stroke="#232F3E" stroke-width="0.5" stroke-miterlimit="10"/>
    <path d="M25.148 15.3636H13.5806H2.03125C2.03125 15.3636 0.991091 15.4153 1.00006 17.7273H13.5806H26.1612C26.1702 15.4153 25.148 15.3636 25.148 15.3636Z" stroke="#232F3E" stroke-width="0.5" stroke-miterlimit="10"/>
</svg>
