<svg width="28" height="24" viewBox="0 0 28 24" fill="none" xmlns="http://www.w3.org/2000/svg">
    <rect x="16.4876" y="15.7256" width="0.854377" height="3.44747" stroke="#232F3E" stroke-width="0.2"/>
    <path d="M25.8182 23.4546L1.61287 23.4546C1.61287 20.8128 4.3671 20.0809 4.67721 20.1524H22.2727C24.1698 20.0495 25.9216 22.9062 25.8182 23.4546Z" stroke="#232F3E" stroke-width="0.5"/>
    <path d="M2.22574 12.851V4.74244C1.5559 4.57079 1.07236 5.52953 1 5.89905V10.5478C1 11.4346 1.87428 12.7557 2.22574 12.851Z" stroke="#232F3E" stroke-width="0.5"/>
    <path d="M20.6118 16.019V1H22.1624C23.4028 1 23.837 2.2635 23.899 2.89525V13.4086C23.9734 15.2967 22.9376 15.9356 22.4105 16.019H20.6118Z" stroke="#232F3E" stroke-width="0.5"/>
    <path d="M25.1393 12.9795V4.07539C26.479 3.76071 26.9379 4.87402 26.9999 5.47001V8.50957V11.5491C26.9255 12.9223 25.7285 13.0749 25.1393 12.9795Z" stroke="#232F3E" stroke-width="0.5"/>
    <path d="M6.80072 15.9117V1H5.6223C4.05934 1 3.62725 2.21582 3.60658 2.82374L3.45152 13.9449C3.60038 15.8617 5.74634 16.0548 6.80072 15.9117Z" stroke="#232F3E" stroke-width="0.5"/>
    <rect x="9.7891" y="15.7256" width="0.854377" height="3.44747" stroke="#232F3E" stroke-width="0.2"/>
    <rect x="8.6044" y="1.25" width="10.5316" height="14.0294" stroke="#232F3E" stroke-width="0.5"/>
    <rect x="9.58018" y="2.32089" width="8.58016" height="1.32086" rx="0.660428" fill="#FFA500"/>
    <rect x="9.58018" y="4.96257" width="8.58016" height="1.32086" rx="0.660428" fill="#FFA500"/>
    <rect x="9.58018" y="7.60431" width="8.58016" height="1.32086" rx="0.660428" fill="#FFA500"/>
    <rect x="9.58018" y="10.246" width="8.58016" height="1.32086" rx="0.660428" fill="#FFA500"/>
    <rect x="9.58018" y="12.8877" width="8.58016" height="1.32086" rx="0.660428" fill="#FFA500"/>
</svg>
