<svg width="28" height="27" viewBox="0 0 28 27" fill="none" xmlns="http://www.w3.org/2000/svg">
    <rect x="0.35547" y="0.00314839" width="7.77561" height="17.1479" rx="0.75" transform="matrix(0.717168 -0.6969 0.704712 0.709493 8.25498 7.94817)" stroke="#232F3E" stroke-width="0.5"/>
    <path d="M19.62 10.5762C19.62 11.9402 18.5018 13.0479 17.12 13.0479C15.7383 13.0479 14.62 11.9402 14.62 10.5762C14.62 9.21215 15.7383 8.10452 17.12 8.10452C18.5018 8.10452 19.62 9.21215 19.62 10.5762Z" fill="#FFA500" stroke="#232F3E" stroke-width="0.2"/>
    <path d="M18.6801 2.86112L20.2401 1.31812L21.8001 2.86112" stroke="#232F3E" stroke-width="0.5"/>
    <path d="M18.16 6.46141L22.32 2.34668C22.6667 2.00379 23.36 1.83242 23.88 2.34668L25.44 3.88973C25.7867 4.1469 26.064 5.43274 24.4 6.46141L27 9.03311" stroke="#232F3E" stroke-width="0.5"/>
    <path d="M23.88 6.97589L21.28 9.54757" stroke="#232F3E" stroke-width="0.5"/>
    <path d="M15.56 15.2051L4.28909 26.0061C4.11575 26.1776 3.56109 26.3147 2.72909 25.4918L1.68909 24.4631C1.16909 24.1202 0.441085 23.2287 1.68909 22.4058L12.0891 12.1191" stroke="#232F3E" stroke-width="0.5"/>
</svg>
