<svg width="28" height="20" viewBox="0 0 28 20" fill="none" xmlns="http://www.w3.org/2000/svg">
    <path d="M19.2812 14.0984H27V19.2584H13.6821M18.0625 14.0984L13.1875 19.2584H3.03125L1 16.8769V7.74766C1 4.9143 2.54905 0.999983 9.53125 1C14.5652 1.00001 18.0625 2.02761 18.0625 7.78379V14.0984Z" stroke="#232F3E" stroke-width="0.5"/>
    <path d="M18.0625 16.4799V18.4645" stroke="#232F3E" stroke-width="0.5"/>
    <path d="M20.9062 16.083V18.4645" stroke="#232F3E" stroke-width="0.5"/>
    <path d="M23.75 16.4799V18.4645" stroke="#232F3E" stroke-width="0.5"/>
    <path d="M15.4456 10.1103C15.4456 13.4847 12.7689 16.211 9.47816 16.211C6.18744 16.211 3.51077 13.4847 3.51077 10.1103C3.51077 6.73592 6.18744 4.00955 9.47816 4.00955C12.7689 4.00955 15.4456 6.73592 15.4456 10.1103Z" stroke="#232F3E" stroke-width="0.5"/>
    <ellipse cx="9.47833" cy="10.1103" rx="3.95652" ry="4.04138" fill="#FFA500"/>
</svg>
