<svg width="28" height="38" viewBox="0 0 28 38" fill="none" xmlns="http://www.w3.org/2000/svg">
    <path d="M19.2 14L8.8 17.9" stroke="#232F3E" stroke-width="0.5"/>
    <path d="M19.2 17.9L8.8 21.8" stroke="#232F3E" stroke-width="0.5"/>
    <path d="M19.2 21.8L8.8 25.7" stroke="#232F3E" stroke-width="0.5"/>
    <path d="M19.2 25.7L8.8 29.6" stroke="#232F3E" stroke-width="0.5"/>
    <path d="M19.2 8.79999V31.2607L14.4 37.4L8.8 31.7099V8.79999" stroke="#232F3E" stroke-width="0.5"/>
    <path d="M1 4.42857C1 1.68571 4.46667 1 6.2 1H21.8C25.96 1 27 3.28571 27 4.42857V8.8H1V4.42857Z" fill="#FFA500"/>
    <path d="M12.6341 1.01397C13.4406 1.01397 19.355 1.01397 22.2114 1.01397C23.6395 0.895997 26.5967 1.47405 27 4.73001V8.8H1.0405V4.37614C0.788466 3.25541 1.59497 1.01397 6.83728 1.01397" stroke="#232F3E" stroke-width="0.5"/>
</svg>
