<svg width="28" height="26" viewBox="0 0 28 26" fill="none" xmlns="http://www.w3.org/2000/svg">
    <path d="M4.54546 15.5095H14" stroke="#232F3E" stroke-width="0.5"/>
    <path d="M6.12119 15.5095V4.98053L7.50071 5.81112L8.52908 5.27368L9.48221 5.81112L10.5858 5.27368L11.5891 5.81112L12.8182 5.27368V15.5095" stroke="#232F3E" stroke-width="0.5"/>
    <path d="M7.69707 8.36481H9.66676" stroke="#232F3E" stroke-width="0.5"/>
    <path d="M7.69707 10.621H11.2425" stroke="#232F3E" stroke-width="0.5"/>
    <path d="M7.69707 13.2532H11.2425" stroke="#232F3E" stroke-width="0.5"/>
    <path d="M4.14596 7.61285H3.24343L2.7277 12.5336L1 19.2699H26.6061L24.8784 12.7247L24.3884 7.63674H14.409" stroke="#232F3E" stroke-width="0.5"/>
    <path d="M1 19.2697V24.6623C1 25.2146 1.44772 25.6623 2 25.6623H26C26.5523 25.6623 27 25.2146 27 24.6623V19.2697" stroke="#232F3E" stroke-width="0.5"/>
    <path d="M10.4618 21.9019C10.4122 22.2901 10.5955 23.0588 11.7251 23.0278H16.159C16.5058 23.0537 17.1895 22.8647 17.1499 21.9019" stroke="#232F3E" stroke-width="0.5"/>
    <rect x="14.6652" y="9.57656" width="8.84348" height="1.9581" rx="0.979051" fill="#FFA500" stroke="#232F3E" stroke-width="0.2"/>
    <path d="M18.7273 4.72729V7.09093" stroke="#232F3E" stroke-width="0.5"/>
    <path d="M21.0909 4.72729V7.09093" stroke="#232F3E" stroke-width="0.5"/>
    <rect x="15.4318" y="0.25" width="8.56061" height="4.0124" rx="2.0062" stroke="#232F3E" stroke-width="0.5"/>
    <rect x="18.7273" y="2.36365" width="3.54545" height="1.18182" rx="0.590909" fill="#FFA500"/>
    <path d="M16.7261 17.0299C16.7261 17.5663 16.2692 18.009 15.6957 18.009C15.1221 18.009 14.6652 17.5663 14.6652 17.0299C14.6652 16.4935 15.1221 16.0509 15.6957 16.0509C16.2692 16.0509 16.7261 16.4935 16.7261 17.0299Z" fill="#D9D9D9" stroke="#232F3E" stroke-width="0.2"/>
    <path d="M16.7261 13.7928C16.7261 14.3292 16.2692 14.7718 15.6957 14.7718C15.1221 14.7718 14.6652 14.3292 14.6652 13.7928C14.6652 13.2564 15.1221 12.8137 15.6957 12.8137C16.2692 12.8137 16.7261 13.2564 16.7261 13.7928Z" fill="#D9D9D9" stroke="#232F3E" stroke-width="0.2"/>
    <path d="M20.1174 17.0299C20.1174 17.5663 19.6605 18.009 19.087 18.009C18.5134 18.009 18.0565 17.5663 18.0565 17.0299C18.0565 16.4935 18.5134 16.0509 19.087 16.0509C19.6605 16.0509 20.1174 16.4935 20.1174 17.0299Z" fill="#D9D9D9" stroke="#232F3E" stroke-width="0.2"/>
    <path d="M20.1174 13.7928C20.1174 14.3292 19.6605 14.7718 19.087 14.7718C18.5134 14.7718 18.0565 14.3292 18.0565 13.7928C18.0565 13.2564 18.5134 12.8137 19.087 12.8137C19.6605 12.8137 20.1174 13.2564 20.1174 13.7928Z" fill="#D9D9D9" stroke="#232F3E" stroke-width="0.2"/>
    <path d="M23.5087 17.0299C23.5087 17.5663 23.0518 18.009 22.4783 18.009C21.9047 18.009 21.4478 17.5663 21.4478 17.0299C21.4478 16.4935 21.9047 16.0509 22.4783 16.0509C23.0518 16.0509 23.5087 16.4935 23.5087 17.0299Z" fill="#D9D9D9" stroke="#232F3E" stroke-width="0.2"/>
    <path d="M23.5087 13.7928C23.5087 14.3292 23.0518 14.7718 22.4783 14.7718C21.9047 14.7718 21.4478 14.3292 21.4478 13.7928C21.4478 13.2564 21.9047 12.8137 22.4783 12.8137C23.0518 12.8137 23.5087 13.2564 23.5087 13.7928Z" fill="#D9D9D9" stroke="#232F3E" stroke-width="0.2"/>
</svg>
