<svg width="20" height="20" viewBox="0 0 20 20" fill="none" xmlns="http://www.w3.org/2000/svg">
    <path d="M3.75 18.3334C3.41667 18.3334 3.125 18.2084 2.875 17.9584C2.625 17.7084 2.5 17.4167 2.5 17.0834V4.16669C2.5 3.83335 2.625 3.54169 2.875 3.29169C3.125 3.04169 3.41667 2.91669 3.75 2.91669H5.10417V1.66669H6.45833V2.91669H13.5417V1.66669H14.8958V2.91669H16.25C16.5833 2.91669 16.875 3.04169 17.125 3.29169C17.375 3.54169 17.5 3.83335 17.5 4.16669V17.0834C17.5 17.4167 17.375 17.7084 17.125 17.9584C16.875 18.2084 16.5833 18.3334 16.25 18.3334H3.75ZM3.75 17.0834H16.25V8.12502H3.75V17.0834ZM3.75 6.87502H16.25V4.16669H3.75V6.87502ZM3.75 6.87502V4.16669V6.87502ZM10 11.6667C9.76389 11.6667 9.56597 11.5868 9.40625 11.4271C9.24653 11.2674 9.16667 11.0695 9.16667 10.8334C9.16667 10.5972 9.24653 10.3993 9.40625 10.2396C9.56597 10.0799 9.76389 10 10 10C10.2361 10 10.434 10.0799 10.5937 10.2396C10.7535 10.3993 10.8333 10.5972 10.8333 10.8334C10.8333 11.0695 10.7535 11.2674 10.5937 11.4271C10.434 11.5868 10.2361 11.6667 10 11.6667ZM6.66667 11.6667C6.43056 11.6667 6.23264 11.5868 6.07292 11.4271C5.91319 11.2674 5.83333 11.0695 5.83333 10.8334C5.83333 10.5972 5.91319 10.3993 6.07292 10.2396C6.23264 10.0799 6.43056 10 6.66667 10C6.90278 10 7.10069 10.0799 7.26042 10.2396C7.42014 10.3993 7.5 10.5972 7.5 10.8334C7.5 11.0695 7.42014 11.2674 7.26042 11.4271C7.10069 11.5868 6.90278 11.6667 6.66667 11.6667ZM13.3333 11.6667C13.0972 11.6667 12.8993 11.5868 12.7396 11.4271C12.5799 11.2674 12.5 11.0695 12.5 10.8334C12.5 10.5972 12.5799 10.3993 12.7396 10.2396C12.8993 10.0799 13.0972 10 13.3333 10C13.5694 10 13.7674 10.0799 13.9271 10.2396C14.0868 10.3993 14.1667 10.5972 14.1667 10.8334C14.1667 11.0695 14.0868 11.2674 13.9271 11.4271C13.7674 11.5868 13.5694 11.6667 13.3333 11.6667ZM10 15C9.76389 15 9.56597 14.9202 9.40625 14.7604C9.24653 14.6007 9.16667 14.4028 9.16667 14.1667C9.16667 13.9306 9.24653 13.7327 9.40625 13.5729C9.56597 13.4132 9.76389 13.3334 10 13.3334C10.2361 13.3334 10.434 13.4132 10.5937 13.5729C10.7535 13.7327 10.8333 13.9306 10.8333 14.1667C10.8333 14.4028 10.7535 14.6007 10.5937 14.7604C10.434 14.9202 10.2361 15 10 15ZM6.66667 15C6.43056 15 6.23264 14.9202 6.07292 14.7604C5.91319 14.6007 5.83333 14.4028 5.83333 14.1667C5.83333 13.9306 5.91319 13.7327 6.07292 13.5729C6.23264 13.4132 6.43056 13.3334 6.66667 13.3334C6.90278 13.3334 7.10069 13.4132 7.26042 13.5729C7.42014 13.7327 7.5 13.9306 7.5 14.1667C7.5 14.4028 7.42014 14.6007 7.26042 14.7604C7.10069 14.9202 6.90278 15 6.66667 15ZM13.3333 15C13.0972 15 12.8993 14.9202 12.7396 14.7604C12.5799 14.6007 12.5 14.4028 12.5 14.1667C12.5 13.9306 12.5799 13.7327 12.7396 13.5729C12.8993 13.4132 13.0972 13.3334 13.3333 13.3334C13.5694 13.3334 13.7674 13.4132 13.9271 13.5729C14.0868 13.7327 14.1667 13.9306 14.1667 14.1667C14.1667 14.4028 14.0868 14.6007 13.9271 14.7604C13.7674 14.9202 13.5694 15 13.3333 15Z" fill="#D9D9D9"/>
</svg>
