<svg width="26" height="26" viewBox="0 0 26 26" fill="none" xmlns="http://www.w3.org/2000/svg">
    <circle cx="13.5" cy="13.5" r="9.75" stroke="#FFA500" stroke-width="1.5"/>
    <path d="M19.9334 18.4251C19.5957 17.6392 19.1057 16.9254 18.4906 16.3234C17.8774 15.7196 17.151 15.2382 16.3515 14.9058C16.3443 14.9023 16.3371 14.9005 16.33 14.897C17.4452 14.1055 18.1702 12.8163 18.1702 11.3618C18.1702 8.95226 16.1832 7 13.7308 7C11.2784 7 9.29136 8.95226 9.29136 11.3618C9.29136 12.8163 10.0163 14.1055 11.1316 14.8987C11.1244 14.9023 11.1172 14.904 11.1101 14.9075C10.3081 15.2399 9.58851 15.7166 8.97093 16.3251C8.35641 16.9276 7.86645 17.6414 7.52812 18.4269C7.19574 19.1959 7.01648 20.0204 7.00004 20.8558C6.99957 20.8745 7.00292 20.8932 7.0099 20.9107C7.01688 20.9282 7.02736 20.9441 7.0407 20.9576C7.05405 20.971 7.07 20.9817 7.08761 20.989C7.10522 20.9963 7.12414 21 7.14325 21H8.2173C8.29607 21 8.35872 20.9384 8.36051 20.8628C8.39631 19.505 8.95124 18.2334 9.93221 17.2696C10.9472 16.2724 12.2951 15.7236 13.7308 15.7236C15.1664 15.7236 16.5144 16.2724 17.5293 17.2696C18.5103 18.2334 19.0652 19.505 19.101 20.8628C19.1028 20.9402 19.1655 21 19.2442 21H20.3183C20.3374 21 20.3563 20.9963 20.3739 20.989C20.3915 20.9817 20.4075 20.971 20.4208 20.9576C20.4342 20.9441 20.4447 20.9282 20.4516 20.9107C20.4586 20.8932 20.462 20.8745 20.4615 20.8558C20.4436 20.0151 20.2664 19.1972 19.9334 18.4251ZM13.7308 14.3869C12.9091 14.3869 12.1358 14.0721 11.554 13.5005C10.9722 12.9289 10.6518 12.1691 10.6518 11.3618C10.6518 10.5545 10.9722 9.79472 11.554 9.22312C12.1358 8.65151 12.9091 8.33668 13.7308 8.33668C14.5524 8.33668 15.3257 8.65151 15.9075 9.22312C16.4893 9.79472 16.8097 10.5545 16.8097 11.3618C16.8097 12.1691 16.4893 12.9289 15.9075 13.5005C15.3257 14.0721 14.5524 14.3869 13.7308 14.3869Z" fill="#FFA500"/>
</svg>
