<svg width="26" height="26" viewBox="0 0 26 26" fill="none" xmlns="http://www.w3.org/2000/svg">
    <g opacity="0.7">
        <path d="M15.892 2.91992C15.7422 2.91992 15.5898 2.96055 15.4502 3.05449L6.44922 8.9375H2.28516C2.06172 8.9375 1.87891 9.12031 1.87891 9.34375V16.6562C1.87891 16.8797 2.06172 17.0625 2.28516 17.0625H6.44922L15.4502 22.9455C15.5898 23.0369 15.7447 23.0801 15.892 23.0801C16.316 23.0801 16.707 22.7424 16.707 22.265V3.73496C16.707 3.25762 16.316 2.91992 15.892 2.91992ZM14.8789 20.3887L7.44961 15.5314L6.99258 15.2344H3.70703V10.7656H6.99258L7.44707 10.4686L14.8789 5.61133V20.3887ZM23.7148 12.0859H20.4648C20.2414 12.0859 20.0586 12.2688 20.0586 12.4922V13.5078C20.0586 13.7312 20.2414 13.9141 20.4648 13.9141H23.7148C23.9383 13.9141 24.1211 13.7312 24.1211 13.5078V12.4922C24.1211 12.2688 23.9383 12.0859 23.7148 12.0859ZM22.651 18.7332L19.8504 17.1158C19.8044 17.0895 19.7536 17.0725 19.701 17.0657C19.6484 17.059 19.595 17.0627 19.5439 17.0766C19.4927 17.0905 19.4448 17.1144 19.4028 17.1468C19.3609 17.1792 19.3258 17.2196 19.2994 17.2656L18.7941 18.1416C18.6824 18.3346 18.7484 18.5834 18.9414 18.6951L21.742 20.3125C21.788 20.3388 21.8388 20.3559 21.8913 20.3626C21.9439 20.3693 21.9973 20.3656 22.0485 20.3517C22.0997 20.3378 22.1476 20.314 22.1895 20.2815C22.2315 20.2491 22.2666 20.2087 22.293 20.1627L22.7982 19.2867C22.91 19.0938 22.8414 18.8449 22.651 18.7332ZM19.2969 8.73438C19.3232 8.78039 19.3584 8.82077 19.4003 8.8532C19.4422 8.88564 19.4902 8.90949 19.5413 8.9234C19.5925 8.93731 19.6459 8.94101 19.6985 8.93428C19.7511 8.92755 19.8018 8.91052 19.8479 8.88418L22.6484 7.2668C22.8414 7.15508 22.9074 6.90625 22.7957 6.71328L22.293 5.83984C22.2666 5.79383 22.2315 5.75345 22.1895 5.72101C22.1476 5.68858 22.0997 5.66473 22.0485 5.65082C21.9973 5.63691 21.9439 5.63321 21.8913 5.63994C21.8388 5.64667 21.788 5.66369 21.742 5.69004L18.9414 7.30742C18.8487 7.36148 18.7811 7.45006 18.7535 7.55378C18.7259 7.65751 18.7405 7.76795 18.7941 7.86094L19.2969 8.73438Z" fill="#232F3E"/>
    </g>
</svg>
