<svg width="26" height="26" viewBox="0 0 26 26" fill="none" xmlns="http://www.w3.org/2000/svg">
    <path d="M11.7812 3.65625H4.0625C3.83906 3.65625 3.65625 3.83906 3.65625 4.0625V11.7812C3.65625 12.0047 3.83906 12.1875 4.0625 12.1875H11.7812C12.0047 12.1875 12.1875 12.0047 12.1875 11.7812V4.0625C12.1875 3.83906 12.0047 3.65625 11.7812 3.65625ZM10.4609 10.4609H5.38281V5.38281H10.4609V10.4609ZM21.9375 3.65625H14.2188C13.9953 3.65625 13.8125 3.83906 13.8125 4.0625V11.7812C13.8125 12.0047 13.9953 12.1875 14.2188 12.1875H21.9375C22.1609 12.1875 22.3438 12.0047 22.3438 11.7812V4.0625C22.3438 3.83906 22.1609 3.65625 21.9375 3.65625ZM20.6172 10.4609H15.5391V5.38281H20.6172V10.4609ZM21.9375 13.8125H14.2188C13.9953 13.8125 13.8125 13.9953 13.8125 14.2188V21.9375C13.8125 22.1609 13.9953 22.3438 14.2188 22.3438H21.9375C22.1609 22.3438 22.3438 22.1609 22.3438 21.9375V14.2188C22.3438 13.9953 22.1609 13.8125 21.9375 13.8125ZM20.6172 20.6172H15.5391V15.5391H20.6172V20.6172ZM10.7656 18.0781H7.51562V14.8281C7.51562 14.7164 7.42422 14.625 7.3125 14.625H6.09375C5.98203 14.625 5.89062 14.7164 5.89062 14.8281V18.0781H2.64062C2.52891 18.0781 2.4375 18.1695 2.4375 18.2812V19.5C2.4375 19.6117 2.52891 19.7031 2.64062 19.7031H5.89062V22.9531C5.89062 23.0648 5.98203 23.1562 6.09375 23.1562H7.3125C7.42422 23.1562 7.51562 23.0648 7.51562 22.9531V19.7031H10.7656C10.8773 19.7031 10.9688 19.6117 10.9688 19.5V18.2812C10.9688 18.1695 10.8773 18.0781 10.7656 18.0781Z" fill="#232F3E"/>
</svg>
