<svg width="105" height="32" viewBox="0 0 105 32" fill="none" xmlns="http://www.w3.org/2000/svg">
    <g clip-path="url(#clip0_810_40)">
        <path d="M50.6643 21.8948H47.6049C47.3601 21.8948 47.1154 21.8948 46.993 21.7652C46.8706 21.6357 46.8706 21.5061 46.8706 21.247V7.25511C46.8706 6.996 46.8706 6.73689 46.993 6.73689C47.2377 6.60734 47.3601 6.47778 47.6049 6.47778H50.9091C51.1538 6.47778 51.2762 6.47778 51.521 6.60734C51.6433 6.73689 51.7657 6.86645 51.8881 7.12556L53.7238 10.6235C53.7238 10.7531 53.8461 10.8826 53.8461 10.8826C53.8461 10.8826 53.9685 11.0122 54.0909 11.0122H54.2133C54.3356 11.0122 54.3356 11.0122 54.458 10.8826C54.458 10.8826 54.5804 10.7531 54.5804 10.6235L56.4161 7.12556C56.5384 6.86645 56.6608 6.73689 56.7832 6.60734C57.028 6.60734 57.1503 6.47778 57.3951 6.47778H60.6993C60.944 6.47778 61.1888 6.47778 61.3112 6.60734C61.4335 6.73689 61.4335 6.86645 61.4335 7.12556V20.9879C61.4335 21.247 61.4335 21.5061 61.3112 21.5061C61.1888 21.6357 61.0664 21.6357 60.6993 21.6357H57.5175C57.2727 21.6357 57.0279 21.6357 56.9056 21.5061C56.7832 21.3766 56.7832 21.247 56.7832 20.9879V13.4737L55.5594 15.8057C55.437 16.0648 55.3147 16.1944 55.0699 16.3239C54.9475 16.4535 54.7028 16.4535 54.458 16.4535H53.6014C53.3566 16.4535 53.1119 16.4535 52.9895 16.3239C52.8671 16.1944 52.6224 16.0648 52.5 15.8057L51.2762 13.4737V20.9879C51.2762 21.247 51.2762 21.5061 51.1538 21.5061C51.1538 21.8948 50.9091 21.8948 50.6643 21.8948Z" fill="#232F3E"/>
        <path d="M68.4091 21.1175C68.4091 21.3766 68.4091 21.6357 68.2867 21.6357C68.1643 21.7652 68.0419 21.7652 67.6748 21.7652H64.7377C64.493 21.7652 64.2482 21.7652 64.1259 21.6357C64.0035 21.5061 64.0035 21.3766 64.0035 21.1175V15.5466C64.0035 15.1579 64.0035 14.6397 64.2482 14.1215C64.3706 13.6033 64.6154 12.9555 64.8601 12.1782L66.5734 7.38467C66.6958 7.12556 66.8182 6.996 66.9405 6.86645C67.0629 6.60734 67.3077 6.47778 67.5524 6.47778H73.0594C73.3042 6.47778 73.5489 6.47778 73.6713 6.60734C73.7937 6.73689 73.9161 6.86645 74.0384 7.12556L75.8741 12.0486C76.1189 12.826 76.3636 13.4737 76.486 13.992C76.6084 14.5102 76.7308 15.0284 76.7308 15.4171V21.1175C76.7308 21.3766 76.7307 21.6357 76.6084 21.6357C76.486 21.7652 76.3636 21.7652 75.9965 21.7652H72.937C72.6923 21.7652 72.4475 21.7652 72.3252 21.6357C72.2028 21.5061 72.0804 21.3766 72.0804 21.1175V18.1377H68.5315L68.4091 21.1175ZM69.5105 11.0122L68.5315 14.2511H71.7133L70.7342 11.0122C70.7342 10.8826 70.6119 10.7531 70.6119 10.7531C70.6119 10.7531 70.4895 10.6235 70.3671 10.6235H69.8776C69.7552 10.6235 69.7552 10.6235 69.6329 10.7531C69.6329 10.7531 69.6328 10.8826 69.5105 11.0122Z" fill="#232F3E"/>
        <path d="M82.9721 21.8948H79.7902C79.5455 21.8948 79.3007 21.8948 79.1783 21.7652C79.056 21.6357 79.056 21.5061 79.056 21.247V7.25511C79.056 6.996 79.056 6.73689 79.1783 6.73689C79.4231 6.60734 79.5455 6.47778 79.7902 6.47778H86.6434C88.1119 6.47778 89.2133 6.86645 89.8252 7.51422C90.4371 8.16199 90.6818 9.06888 90.6818 10.1053V11.1418C90.6818 11.7895 90.5595 12.1782 90.4371 12.6964C90.3147 13.0851 89.9476 13.4737 89.5804 13.6033C90.3147 13.7328 90.9266 13.992 91.2937 14.5102C91.7832 15.0284 92.028 15.8057 92.028 16.7126V21.247C92.028 21.5061 92.028 21.7652 91.9056 21.7652C91.7832 21.8948 91.6609 21.8948 91.2937 21.8948H88.1119C87.8672 21.8948 87.6224 21.8948 87.5 21.7652C87.3776 21.6357 87.3776 21.5061 87.3776 21.247V18.0081C87.3776 17.749 87.3777 17.4899 87.2553 17.3604C87.1329 17.2308 86.8881 17.1013 86.6434 17.1013H83.8287V21.247C83.8287 21.5061 83.8287 21.7652 83.7063 21.7652C83.4616 21.8948 83.2168 21.8948 82.9721 21.8948ZM83.7063 10.3644V13.0851H85.2972C85.6644 13.0851 85.9091 12.9555 86.0315 12.826C86.1539 12.6964 86.1539 12.4373 86.1539 12.0486V11.4009C86.1539 11.1418 86.1539 10.8826 86.0315 10.6235C85.7867 10.494 85.6644 10.3644 85.2972 10.3644H83.7063Z" fill="#232F3E"/>
        <path d="M100.594 21.8948H97.2902C97.0455 21.8948 96.8007 21.8948 96.6783 21.7652C96.556 21.6357 96.556 21.5061 96.556 21.247V10.6235H93.6189C93.3742 10.6235 93.1294 10.6235 93.007 10.494C92.8846 10.3644 92.8846 10.2349 92.8846 9.97576V7.38467C92.8846 7.12556 92.8846 6.86645 93.007 6.86645C93.1294 6.60734 93.2518 6.47778 93.4965 6.47778H104.266C104.511 6.47778 104.755 6.47778 104.878 6.60734C105 6.73689 105 6.86645 105 7.12556V9.71665C105 9.97576 105 10.2349 104.878 10.2349C104.755 10.3644 104.633 10.3644 104.266 10.3644H101.329V20.8584C101.329 21.1175 101.329 21.3766 101.206 21.3766C100.962 21.8948 100.839 21.8948 100.594 21.8948Z" fill="#232F3E"/>
        <path d="M12.3601 9.71665L13.4615 6.47778H0.734266C0.48951 6.47778 0.244755 6.47778 0.122378 6.60734C0 6.86645 0 6.996 0 7.25511V9.8462C0 10.1053 0 10.3644 0.122378 10.494C0.244755 10.6235 0.367133 10.6235 0.734266 10.6235H3.67133V21.1175C3.67133 21.3766 3.67133 21.6357 3.79371 21.6357C3.91608 21.7652 4.03846 21.7652 4.40559 21.7652H7.70979C7.95454 21.7652 8.1993 21.7652 8.32168 21.6357C8.44406 21.5061 8.44406 21.3766 8.44406 21.1175V10.6235H11.8706C12.1154 10.3644 12.2378 9.97576 12.3601 9.71665Z" fill="white"/>
        <path d="M33.2867 9.71665L32.0629 6.47778H44.7902C45.035 6.47778 45.2797 6.47778 45.4021 6.60734C45.5245 6.73689 45.5245 6.86645 45.5245 7.12556V9.71665C45.5245 9.97576 45.5245 10.2349 45.4021 10.2349C45.2797 10.3644 45.1573 10.3644 44.7902 10.3644H41.8531V20.8584C41.8531 21.1175 41.8531 21.3766 41.7308 21.3766C41.6084 21.5061 41.486 21.5061 41.1189 21.5061H37.8147C37.5699 21.5061 37.3252 21.5061 37.2028 21.3766C37.0804 21.247 37.0804 21.1175 37.0804 20.8584V10.6235H33.6538C33.4091 10.3644 33.4091 9.97576 33.2867 9.71665Z" fill="white"/>
        <path d="M32.6749 12.0486C32.4301 11.1417 32.1853 10.1053 31.6958 8.93927L28.7588 1.03644C28.6364 0.647773 28.3916 0.388664 28.1469 0.129555C28.0245 0.129555 27.6574 0 27.1679 0H18.3567C17.8672 0 17.6224 0.129555 17.2553 0.259109C17.0105 0.388664 16.7658 0.777328 16.6434 1.16599L13.8287 9.06882C13.3392 10.2348 13.0944 11.2713 12.8497 12.1781C12.6049 13.085 12.4825 13.8623 12.4825 14.5101V23.5789C12.4825 23.9676 12.6049 24.3563 12.7273 24.4858C12.8497 24.6154 13.2168 24.7449 13.5839 24.7449H16.0315H18.3567H19.8252V15.1579C17.3777 13.6032 16.521 9.97571 18.2343 7.38461C18.3567 7.12551 18.6014 6.99595 18.7238 6.73684C18.9686 6.47773 19.2133 6.34818 19.4581 6.47773C19.7028 6.60729 19.8252 6.8664 19.8252 7.12551C19.8252 8.16194 19.8252 9.19838 19.8252 10.2348C19.8252 10.3644 19.8252 10.3644 19.8252 10.4939C21.6609 10.4939 23.3742 10.4939 25.0874 10.4939C25.0874 10.4939 25.0874 10.3644 25.0874 10.2348C25.0874 9.19838 25.0874 8.16194 25.0874 7.12551C25.0874 6.8664 25.2098 6.60729 25.4546 6.47773C25.6993 6.34818 25.9441 6.47773 26.1888 6.60729C26.3112 6.73684 26.556 6.99595 26.6783 7.25506C28.0245 9.19838 28.0245 11.6599 26.6783 13.6032C26.1888 14.251 25.6993 14.7692 24.9651 15.1579V24.6154H26.4336H28.1469H31.8182C32.1853 24.6154 32.5525 24.4858 32.6749 24.3563C32.7972 24.2267 32.9196 23.8381 32.9196 23.4494V14.3806C33.042 13.8623 32.9196 13.085 32.6749 12.0486Z" fill="white"/>
        <path d="M83.8287 31.8705H81.8706C81.7482 31.8705 81.6259 31.8705 81.6259 31.7409C81.6259 31.7409 81.5035 31.6114 81.5035 31.4818V29.4089C81.5035 29.2794 81.5035 29.1498 81.6259 29.1498C81.6259 29.1498 81.7482 29.0203 81.8706 29.0203H83.8287C83.951 29.0203 84.0734 29.0203 84.0734 29.1498C84.0734 29.1498 84.1958 29.2794 84.1958 29.4089V31.4818C84.1958 31.6114 84.1958 31.7409 84.0734 31.7409C84.0734 31.7409 83.951 31.8705 83.8287 31.8705Z" fill="white"/>
        <path d="M89.8252 31.8704H87.5C86.7657 31.8704 86.1538 31.7409 85.7867 31.3522C85.4196 30.9635 85.1748 30.4453 85.1748 29.7975V26.6882C85.1748 26.0405 85.4196 25.5222 85.7867 25.1336C86.1538 24.7449 86.7657 24.6154 87.5 24.6154H89.8252C89.9475 24.6154 90.0699 24.6154 90.0699 24.7449C90.0699 24.7449 90.1923 24.8745 90.1923 25.004V26.17C90.1923 26.2996 90.1923 26.4291 90.0699 26.4291C90.0699 26.4291 89.9475 26.5587 89.8252 26.5587H87.8671C87.6224 26.5587 87.5 26.5587 87.3776 26.6882C87.2552 26.8178 87.2552 26.9473 87.2552 27.0769V29.4089C87.2552 29.5384 87.2552 29.668 87.3776 29.7975C87.5 29.9271 87.6224 29.9271 87.8671 29.9271H89.8252C89.9475 29.9271 90.0699 29.9271 90.0699 30.0567C90.0699 30.0567 90.1923 30.1862 90.1923 30.3158V31.4818C90.1923 31.6113 90.1923 31.7409 90.0699 31.7409C90.0699 31.7409 90.0699 31.8704 89.8252 31.8704Z" fill="white"/>
        <path d="M97.0455 29.9271C97.0455 30.1862 97.0454 30.4453 96.9231 30.7044C96.8007 30.9635 96.6783 31.2226 96.4336 31.3522C96.1888 31.4818 95.9441 31.6113 95.5769 31.7409C95.2098 31.8704 94.7203 31.8704 94.1084 31.8704C93.4965 31.8704 93.007 31.8704 92.6399 31.7409C92.2727 31.6113 91.9056 31.4818 91.7832 31.3522C91.5385 31.2226 91.4161 30.9635 91.2937 30.7044C91.1713 30.4453 91.1713 30.1862 91.1713 29.9271V26.5587C91.1713 26.2996 91.1713 26.0405 91.2937 25.7813C91.4161 25.5222 91.5385 25.2631 91.7832 25.1336C92.028 25.004 92.2727 24.8745 92.6399 24.7449C93.007 24.6154 93.4965 24.6154 94.1084 24.6154C94.7203 24.6154 95.2098 24.6154 95.5769 24.7449C95.9441 24.8745 96.3112 25.004 96.4336 25.1336C96.6783 25.2631 96.8007 25.5222 96.9231 25.7813C97.0454 26.0405 97.0455 26.2996 97.0455 26.5587V29.9271ZM93.3741 29.5384C93.3741 29.668 93.3741 29.7975 93.4965 29.9271C93.6189 30.0567 93.8636 30.0567 94.1084 30.0567C94.4755 30.0567 94.7203 30.0567 94.7203 29.9271C94.8427 29.7975 94.8427 29.668 94.8427 29.5384V26.8178C94.8427 26.6882 94.8427 26.5587 94.7203 26.4291C94.5979 26.2996 94.3531 26.2996 94.1084 26.2996C93.7413 26.2996 93.4965 26.2996 93.4965 26.4291C93.3741 26.5587 93.3741 26.5587 93.3741 26.8178V29.5384Z" fill="white"/>
        <path d="M99.9825 31.8704H98.514C98.3916 31.8704 98.2692 31.8704 98.2692 31.7409C98.2692 31.7409 98.1469 31.6113 98.1469 31.4818V25.004C98.1469 24.8745 98.1469 24.7449 98.2692 24.7449C98.2692 24.7449 98.3916 24.6154 98.514 24.6154H100.105C100.227 24.6154 100.227 24.6154 100.35 24.6154C100.472 24.6154 100.472 24.7449 100.472 24.8745L101.329 26.4291C101.329 26.4291 101.329 26.5587 101.451 26.5587C101.451 26.5587 101.451 26.5587 101.573 26.5587H101.696C101.696 26.5587 101.696 26.5587 101.818 26.5587C101.818 26.5587 101.818 26.5587 101.941 26.4291L102.797 24.8745C102.797 24.7449 102.92 24.7449 102.92 24.6154C102.92 24.6154 103.042 24.6154 103.164 24.6154H104.755C104.878 24.6154 105 24.6154 105 24.7449C105 24.7449 105.122 24.8745 105.122 25.004V31.4818C105.122 31.6113 105.122 31.7409 105 31.7409C105 31.7409 104.878 31.8704 104.755 31.8704H103.287C103.164 31.8704 103.042 31.8704 103.042 31.7409C103.042 31.7409 102.92 31.6113 102.92 31.4818V27.9838L102.308 29.0202C102.308 29.1498 102.185 29.1498 102.063 29.2793C101.941 29.2793 101.941 29.2793 101.818 29.2793H101.451C101.329 29.2793 101.206 29.2793 101.206 29.2793C101.084 29.2793 101.084 29.1498 100.962 29.0202L100.35 27.9838V31.4818C100.35 31.6113 100.35 31.7409 100.227 31.7409C100.227 31.7409 100.105 31.8704 99.9825 31.8704Z" fill="white"/>
    </g>
    <defs>
        <clipPath id="clip0_810_40">
            <rect width="105" height="32" fill="white"/>
        </clipPath>
    </defs>
</svg>
