<svg width="18" height="18" viewBox="0 0 18 18" fill="none" xmlns="http://www.w3.org/2000/svg">
    <path d="M11.4997 5.55733L15.9628 6.20596C16.2704 6.25167 16.4849 6.53643 16.4374 6.84405C16.4198 6.9671 16.3618 7.0796 16.2739 7.16573L13.0448 10.314L13.8077 14.7595C13.8605 15.0653 13.6548 15.3554 13.3489 15.4081C13.2276 15.4292 13.1011 15.4099 12.9921 15.3519L9.00011 13.253L5.00812 15.3519C4.91531 15.4009 4.81063 15.4229 4.70595 15.4154C4.60127 15.408 4.50077 15.3713 4.41585 15.3096C4.33094 15.248 4.265 15.1637 4.22552 15.0665C4.18605 14.9692 4.1746 14.8629 4.19249 14.7595L4.95538 10.314L1.72628 7.16573C1.61935 7.0615 1.55818 6.91908 1.5562 6.76977C1.55422 6.62046 1.6116 6.47647 1.71573 6.36944C1.80187 6.28155 1.91437 6.22354 2.03741 6.20596L6.5005 5.55733L8.49562 1.5126C8.63448 1.23487 8.97198 1.12061 9.24972 1.25772C9.36046 1.31221 9.45011 1.40186 9.5046 1.5126L11.4997 5.55733Z" fill="#FFC361"/>
</svg>
