<svg width="32" height="32" viewBox="0 0 32 32" fill="none" xmlns="http://www.w3.org/2000/svg">
    <path d="M11.0001 22.1583L16.0001 17.2123L21.0001 22.1583L22.4001 20.7734L17.4001 15.8274L22.4001 10.8813L21.0001 9.49645L16.0001 14.4425L11.0001 9.49645L9.60008 10.8813L14.6001 15.8274L9.60008 20.7734L11.0001 22.1583ZM16.0001 29.0168C14.1112 29.0168 12.3556 28.6816 10.7334 28.0111C9.11119 27.3407 7.70008 26.4119 6.50008 25.2249C5.30008 24.0378 4.36119 22.6419 3.68341 21.0372C3.00564 19.4325 2.66675 17.6959 2.66675 15.8274C2.66675 13.9809 3.00564 12.2552 3.68341 10.6505C4.36119 9.04581 5.30008 7.64993 6.50008 6.46288C7.70008 5.27583 9.11119 4.34158 10.7334 3.66012C12.3556 2.97867 14.1112 2.63794 16.0001 2.63794C17.8667 2.63794 19.6112 2.97867 21.2334 3.66012C22.8556 4.34158 24.2667 5.27583 25.4667 6.46288C26.6667 7.64993 27.6112 9.04581 28.3001 10.6505C28.989 12.2552 29.3334 13.9809 29.3334 15.8274C29.3334 17.6959 28.989 19.4325 28.3001 21.0372C27.6112 22.6419 26.6667 24.0378 25.4667 25.2249C24.2667 26.4119 22.8556 27.3407 21.2334 28.0111C19.6112 28.6816 17.8667 29.0168 16.0001 29.0168ZM16.0001 27.0384C19.1112 27.0384 21.7779 25.9393 24.0001 23.7411C26.2223 21.5428 27.3334 18.9049 27.3334 15.8274C27.3334 12.7499 26.2223 10.112 24.0001 7.91372C21.7779 5.71548 19.1112 4.61636 16.0001 4.61636C12.889 4.61636 10.2223 5.71548 8.00008 7.91372C5.77786 10.112 4.66675 12.7499 4.66675 15.8274C4.66675 18.9049 5.77786 21.5428 8.00008 23.7411C10.2223 25.9393 12.889 27.0384 16.0001 27.0384Z" fill="#FFA500"/>
</svg>
