<svg width="23" height="20" viewBox="0 0 23 20" fill="none" xmlns="http://www.w3.org/2000/svg">
    <path d="M21.1832 13.9503H7.22617L7.92695 12.5229L19.5707 12.5019C19.9644 12.5019 20.3019 12.2206 20.3723 11.8315L21.9848 2.80576C22.0269 2.56904 21.9637 2.32529 21.809 2.14014C21.7325 2.04901 21.6372 1.97561 21.5295 1.92502C21.4219 1.87443 21.3045 1.84787 21.1855 1.84717L6.37304 1.79795L6.24648 1.20264C6.16679 0.822949 5.82461 0.546387 5.43554 0.546387H1.81445C1.59502 0.546387 1.38459 0.633553 1.22943 0.78871C1.07427 0.943867 0.987106 1.15431 0.987106 1.37373C0.987106 1.59316 1.07427 1.80359 1.22943 1.95875C1.38459 2.11391 1.59502 2.20107 1.81445 2.20107H4.76523L5.31836 4.83076L6.68007 11.4237L4.92695 14.2854C4.83591 14.4083 4.78107 14.5542 4.76865 14.7067C4.75622 14.8591 4.7867 15.0119 4.85664 15.1479C4.99726 15.4269 5.28086 15.6026 5.59492 15.6026H7.06679C6.75301 16.0194 6.58352 16.527 6.58398 17.0487C6.58398 18.3753 7.66211 19.4534 8.98867 19.4534C10.3152 19.4534 11.3934 18.3753 11.3934 17.0487C11.3934 16.5261 11.2199 16.0175 10.9105 15.6026H14.6863C14.3725 16.0194 14.2031 16.527 14.2035 17.0487C14.2035 18.3753 15.2816 19.4534 16.6082 19.4534C17.9348 19.4534 19.0129 18.3753 19.0129 17.0487C19.0129 16.5261 18.8394 16.0175 18.5301 15.6026H21.1855C21.6402 15.6026 22.0129 15.2323 22.0129 14.7753C22.0115 14.5561 21.9235 14.3463 21.7681 14.1918C21.6127 14.0372 21.4024 13.9504 21.1832 13.9503ZM6.71758 3.4292L20.2129 3.47373L18.891 10.8753L8.29023 10.894L6.71758 3.4292ZM8.98867 17.7894C8.58086 17.7894 8.24804 17.4565 8.24804 17.0487C8.24804 16.6409 8.58086 16.3081 8.98867 16.3081C9.39648 16.3081 9.72929 16.6409 9.72929 17.0487C9.72929 17.2452 9.65126 17.4335 9.51237 17.5724C9.37348 17.7113 9.18509 17.7894 8.98867 17.7894ZM16.6082 17.7894C16.2004 17.7894 15.8676 17.4565 15.8676 17.0487C15.8676 16.6409 16.2004 16.3081 16.6082 16.3081C17.016 16.3081 17.3488 16.6409 17.3488 17.0487C17.3488 17.2452 17.2708 17.4335 17.1319 17.5724C16.993 17.7113 16.8046 17.7894 16.6082 17.7894Z" fill="#FFC361"/>
</svg>
