<svg width="22" height="22" viewBox="0 0 20 18" fill="none" xmlns="http://www.w3.org/2000/svg">
    <path d="M10 17.2271L9.06042 16.3792C6.57014 14.1028 4.57639 12.1167 3.07917 10.4209C1.58195 8.72503 0.833336 7.00628 0.833336 5.26462C0.833336 3.88962 1.29549 2.73996 2.21979 1.81566C3.1441 0.891352 4.28611 0.429199 5.64584 0.429199C6.425 0.429199 7.19653 0.616352 7.96042 0.990658C8.72431 1.36496 9.40417 1.97989 10 2.83545C10.6722 1.97989 11.3674 1.36496 12.0854 0.990658C12.8035 0.616352 13.5597 0.429199 14.3542 0.429199C15.7139 0.429199 16.8559 0.891352 17.7802 1.81566C18.7045 2.73996 19.1667 3.88962 19.1667 5.26462C19.1667 7.00628 18.4181 8.72503 16.9208 10.4209C15.4236 12.1167 13.4299 14.1028 10.9396 16.3792L10 17.2271Z" fill="#EB5757"/>
</svg>
