<svg width="22" height="22" viewBox="0 0 22 22" fill="none" xmlns="http://www.w3.org/2000/svg">
    <path d="M10.3845 5.48282L10.9637 6.31438L11.5897 5.51757C12.2787 4.6407 12.9593 4.05205 13.6217 3.70676C14.3001 3.35311 15.0064 3.1792 15.75 3.1792C17.0433 3.1792 18.0957 3.61053 18.9572 4.47203C19.8169 5.3318 20.25 6.39163 20.25 7.7042C20.25 9.37228 19.5371 11.0779 17.9878 12.8328C16.3788 14.6552 14.2254 16.8015 11.5208 19.274C11.5202 19.2745 11.5196 19.2751 11.519 19.2756L11 19.744L10.481 19.2756C10.4804 19.2751 10.4798 19.2745 10.4792 19.274C7.77456 16.8015 5.62119 14.6552 4.01223 12.8328C2.46288 11.0779 1.75 9.37228 1.75 7.7042C1.75 6.39163 2.18307 5.33179 3.04283 4.47203C3.90432 3.61053 4.95666 3.1792 6.25 3.1792C6.97539 3.1792 7.7048 3.3525 8.44499 3.71519C9.14081 4.05614 9.79107 4.63065 10.3845 5.48282Z" stroke="#EB5757" stroke-width="1.5"/>
</svg>
