<svg width="28" height="28" viewBox="0 0 28 28" fill="none" xmlns="http://www.w3.org/2000/svg">
    <path d="M14 19.3084C16.0222 17.675 17.5486 16.1049 18.5792 14.598C19.6097 13.091 20.125 11.6862 20.125 10.3834C20.125 9.23615 19.916 8.26393 19.4979 7.46671C19.0799 6.66949 18.5646 6.0181 17.9521 5.51254C17.3396 5.00699 16.6736 4.6424 15.9542 4.41879C15.2347 4.19518 14.5833 4.08337 14 4.08337C13.4167 4.08337 12.7653 4.19518 12.0458 4.41879C11.3264 4.6424 10.6604 5.00699 10.0479 5.51254C9.43542 6.0181 8.92014 6.66949 8.50208 7.46671C8.08403 8.26393 7.875 9.23615 7.875 10.3834C7.875 11.6862 8.39028 13.091 9.42083 14.598C10.4514 16.1049 11.9778 17.675 14 19.3084ZM14 21.525C11.3361 19.5223 9.35764 17.607 8.06458 15.7792C6.77153 13.9514 6.125 12.1528 6.125 10.3834C6.125 9.06115 6.36319 7.89935 6.83958 6.89796C7.31597 5.89657 7.93333 5.0556 8.69167 4.37504C9.45 3.69449 10.2958 3.18407 11.2292 2.84379C12.1625 2.50351 13.0861 2.33337 14 2.33337C14.9139 2.33337 15.8375 2.50351 16.7708 2.84379C17.7042 3.18407 18.55 3.69449 19.3083 4.37504C20.0667 5.0556 20.684 5.89657 21.1604 6.89796C21.6368 7.89935 21.875 9.06115 21.875 10.3834C21.875 12.1528 21.2285 13.9514 19.9354 15.7792C18.6424 17.607 16.6639 19.5223 14 21.525ZM14 12.25C14.5639 12.25 15.0451 12.0507 15.4438 11.6521C15.8424 11.2535 16.0417 10.7723 16.0417 10.2084C16.0417 9.64449 15.8424 9.16324 15.4438 8.76462C15.0451 8.36601 14.5639 8.16671 14 8.16671C13.4361 8.16671 12.9549 8.36601 12.5562 8.76462C12.1576 9.16324 11.9583 9.64449 11.9583 10.2084C11.9583 10.7723 12.1576 11.2535 12.5562 11.6521C12.9549 12.0507 13.4361 12.25 14 12.25Z" fill="#FFA500"/>
</svg>
