<svg width="24" height="24" viewBox="0 0 24 24" fill="none" xmlns="http://www.w3.org/2000/svg">
    <path d="M20.5899 3.98203L12.6258 1.26797C12.5297 1.23516 12.4008 1.21875 12.2719 1.21875C12.143 1.21875 12.0141 1.23516 11.918 1.26797L3.95391 3.98203C3.75938 4.04766 3.60001 4.27266 3.60001 4.47891V15.7852C3.60001 15.9914 3.7336 16.2633 3.89532 16.3922L11.9742 22.6875C12.0563 22.7508 12.1617 22.7836 12.2695 22.7836C12.3773 22.7836 12.4852 22.7508 12.5648 22.6875L20.6438 16.3922C20.8055 16.2656 20.9391 15.9937 20.9391 15.7852V4.47891C20.9438 4.27266 20.7844 4.05 20.5899 3.98203ZM19.2563 15.3352L12.2719 20.7773L5.28751 15.3352V5.31328L12.2719 2.93203L19.2563 5.31328V15.3352ZM9.74532 10.6242C9.67501 10.5281 9.56251 10.4695 9.44063 10.4695H8.14688C7.99454 10.4695 7.90547 10.643 7.99454 10.7672L10.957 14.8453C10.9921 14.8933 11.0379 14.9323 11.0909 14.9591C11.1438 14.986 11.2023 15 11.2617 15C11.3211 15 11.3796 14.986 11.4326 14.9591C11.4855 14.9323 11.5314 14.8933 11.5664 14.8453L16.5492 7.98516C16.6383 7.86094 16.5492 7.6875 16.3969 7.6875H15.1031C14.9836 7.6875 14.8688 7.74609 14.7984 7.84219L11.2617 12.7125L9.74532 10.6242Z" fill="#FFA500"/>
</svg>
