<svg width="23" height="22" viewBox="0 0 23 22" fill="none" xmlns="http://www.w3.org/2000/svg">
    <path d="M16.9905 20.1667C16.2724 20.1667 15.6575 19.9108 15.1457 19.399C14.6339 18.8872 14.378 18.2723 14.378 17.5542C14.378 17.4473 14.3895 17.3212 14.4124 17.1761C14.4353 17.0309 14.4697 16.8973 14.5155 16.775L7.57174 12.7417C7.34258 13.0014 7.05994 13.2115 6.72383 13.3719C6.38772 13.5323 6.04397 13.6125 5.69258 13.6125C4.97452 13.6125 4.35959 13.3566 3.84779 12.8448C3.33598 12.333 3.08008 11.7181 3.08008 11C3.08008 10.2667 3.33598 9.64796 3.84779 9.14379C4.35959 8.63962 4.97452 8.38754 5.69258 8.38754C6.04397 8.38754 6.38008 8.45629 6.70091 8.59379C7.02174 8.73129 7.31202 8.9299 7.57174 9.18962L14.5155 5.20212C14.4697 5.09518 14.4353 4.97296 14.4124 4.83546C14.3895 4.69796 14.378 4.5681 14.378 4.44587C14.378 3.71254 14.6339 3.09379 15.1457 2.58962C15.6575 2.08546 16.2724 1.83337 16.9905 1.83337C17.7238 1.83337 18.3426 2.08546 18.8467 2.58962C19.3509 3.09379 19.603 3.71254 19.603 4.44587C19.603 5.16393 19.3509 5.77886 18.8467 6.29067C18.3426 6.80247 17.7238 7.05837 16.9905 7.05837C16.6391 7.05837 16.2992 7.00108 15.9707 6.8865C15.6422 6.77192 15.3634 6.58476 15.1342 6.32504L8.19049 10.175C8.22105 10.2973 8.24779 10.4386 8.2707 10.599C8.29362 10.7594 8.30508 10.8931 8.30508 11C8.30508 11.107 8.29362 11.2216 8.2707 11.3438C8.24779 11.466 8.22105 11.5882 8.19049 11.7105L15.1342 15.6521C15.3634 15.4382 15.6308 15.2664 15.9363 15.1365C16.2419 15.0066 16.5933 14.9417 16.9905 14.9417C17.7238 14.9417 18.3426 15.1938 18.8467 15.698C19.3509 16.2021 19.603 16.8209 19.603 17.5542C19.603 18.2723 19.3509 18.8872 18.8467 19.399C18.3426 19.9108 17.7238 20.1667 16.9905 20.1667ZM16.9905 5.68337C17.3419 5.68337 17.636 5.56497 17.8728 5.32817C18.1096 5.09136 18.228 4.79726 18.228 4.44587C18.228 4.09449 18.1096 3.80039 17.8728 3.56358C17.636 3.32678 17.3419 3.20837 16.9905 3.20837C16.6391 3.20837 16.345 3.32678 16.1082 3.56358C15.8714 3.80039 15.753 4.09449 15.753 4.44587C15.753 4.79726 15.8714 5.09136 16.1082 5.32817C16.345 5.56497 16.6391 5.68337 16.9905 5.68337ZM5.69258 12.2375C6.04397 12.2375 6.33806 12.1191 6.57487 11.8823C6.81168 11.6455 6.93008 11.3514 6.93008 11C6.93008 10.6487 6.81168 10.3546 6.57487 10.1177C6.33806 9.88094 6.04397 9.76254 5.69258 9.76254C5.34119 9.76254 5.04709 9.88094 4.81029 10.1177C4.57348 10.3546 4.45508 10.6487 4.45508 11C4.45508 11.3514 4.57348 11.6455 4.81029 11.8823C5.04709 12.1191 5.34119 12.2375 5.69258 12.2375ZM16.9905 18.7917C17.3419 18.7917 17.636 18.6733 17.8728 18.4365C18.1096 18.1997 18.228 17.9056 18.228 17.5542C18.228 17.2028 18.1096 16.9087 17.8728 16.6719C17.636 16.4351 17.3419 16.3167 16.9905 16.3167C16.6391 16.3167 16.345 16.4351 16.1082 16.6719C15.8714 16.9087 15.753 17.2028 15.753 17.5542C15.753 17.9056 15.8714 18.1997 16.1082 18.4365C16.345 18.6733 16.6391 18.7917 16.9905 18.7917Z" fill="#858585"/>
</svg>
