<svg width="22" height="21" viewBox="0 0 22 21" fill="none" xmlns="http://www.w3.org/2000/svg">
    <path d="M13.8784 6.39939L19.0177 7.1463C19.3719 7.19892 19.6189 7.52683 19.5642 7.88106C19.544 8.02275 19.4772 8.1523 19.376 8.25148L15.6576 11.8767L16.5361 16.9958C16.5968 17.348 16.36 17.682 16.0078 17.7427C15.8681 17.767 15.7224 17.7447 15.5969 17.6779L11.0001 15.2611L6.40323 17.6779C6.29636 17.7344 6.17582 17.7597 6.05528 17.7511C5.93473 17.7425 5.81901 17.7003 5.72123 17.6293C5.62345 17.5583 5.54752 17.4613 5.50206 17.3493C5.4566 17.2373 5.44342 17.1149 5.46402 16.9958L6.3425 11.8767L2.62414 8.25148C2.50101 8.13146 2.43057 7.96746 2.42829 7.79552C2.42602 7.62359 2.49209 7.45778 2.612 7.33454C2.71118 7.23333 2.84073 7.16654 2.98242 7.1463L8.12173 6.39939L10.4191 1.74182C10.579 1.42201 10.9677 1.29044 11.2875 1.44832C11.415 1.51107 11.5182 1.6143 11.581 1.74182L13.8784 6.39939Z" fill="#FFC361"/>
</svg>
