<svg width="16" height="16" viewBox="0 0 16 16" fill="none" xmlns="http://www.w3.org/2000/svg">
    <path d="M10.2219 4.93985L14.1891 5.51641C14.4626 5.55704 14.6532 5.81016 14.611 6.0836C14.5954 6.19297 14.5438 6.29297 14.4657 6.36954L11.5954 9.16797L12.2735 13.1195C12.3204 13.3914 12.1376 13.6492 11.8657 13.6961C11.7579 13.7148 11.6454 13.6977 11.5485 13.6461L8.00005 11.7805L4.45161 13.6461C4.36912 13.6897 4.27607 13.7092 4.18302 13.7026C4.08997 13.696 4.00064 13.6634 3.92516 13.6086C3.84968 13.5537 3.79107 13.4789 3.75598 13.3924C3.72088 13.306 3.71071 13.2115 3.72661 13.1195L4.40474 9.16797L1.53443 6.36954C1.43938 6.27689 1.385 6.15029 1.38325 6.01757C1.38149 5.88485 1.43249 5.75686 1.52505 5.66172C1.60161 5.5836 1.70161 5.53204 1.81099 5.51641L5.77818 4.93985L7.55161 1.34454C7.67505 1.09766 7.97505 0.9961 8.22193 1.11797C8.32036 1.16641 8.40005 1.2461 8.44849 1.34454L10.2219 4.93985Z" fill="#FFC361"/>
</svg>
