<svg width="14" height="13" viewBox="0 0 14 13" fill="none" xmlns="http://www.w3.org/2000/svg">
    <path d="M8.94419 4.05315L12.4155 4.49571C12.6547 4.52689 12.8215 4.72118 12.7846 4.93107C12.7709 5.01503 12.7258 5.09178 12.6575 5.15055L10.1459 7.29859L10.7393 10.3317C10.7803 10.5404 10.6204 10.7383 10.3825 10.7743C10.2881 10.7887 10.1897 10.7755 10.1049 10.7359L7.00004 9.3039L3.89516 10.7359C3.82298 10.7694 3.74156 10.7844 3.66014 10.7793C3.57872 10.7742 3.50056 10.7492 3.43451 10.7071C3.36847 10.665 3.31719 10.6076 3.28648 10.5412C3.25577 10.4749 3.24687 10.4023 3.26079 10.3317L3.85415 7.29859L1.34262 5.15055C1.25946 5.07944 1.21188 4.98226 1.21034 4.88039C1.2088 4.77851 1.25343 4.68027 1.33442 4.60725C1.40141 4.54728 1.48891 4.5077 1.58462 4.49571L5.0559 4.05315L6.60766 1.29344C6.71567 1.10395 6.97817 1.02599 7.19418 1.11954C7.28032 1.15672 7.35004 1.21789 7.39243 1.29344L8.94419 4.05315Z" fill="#FFC361"/>
</svg>
