<svg width="21" height="21" viewBox="0 0 21 21" fill="none" xmlns="http://www.w3.org/2000/svg">
    <path d="M13.5148 6.39939L18.6541 7.1463C19.0083 7.19892 19.2552 7.52683 19.2006 7.88106C19.1804 8.02275 19.1136 8.1523 19.0124 8.25148L15.294 11.8767L16.1725 16.9958C16.2332 17.348 15.9964 17.682 15.6442 17.7427C15.5045 17.767 15.3588 17.7447 15.2333 17.6779L10.6364 15.2611L6.03959 17.6779C5.93272 17.7344 5.81218 17.7597 5.69164 17.7511C5.57109 17.7425 5.45537 17.7003 5.35759 17.6293C5.25981 17.5583 5.18388 17.4613 5.13842 17.3493C5.09296 17.2373 5.07978 17.1149 5.10038 16.9958L5.97886 11.8767L2.2605 8.25148C2.13737 8.13146 2.06693 7.96746 2.06466 7.79552C2.06238 7.62359 2.12845 7.45778 2.24836 7.33454C2.34754 7.23333 2.47709 7.16654 2.61878 7.1463L7.75809 6.39939L10.0555 1.74182C10.2154 1.42201 10.604 1.29044 10.9239 1.44832C11.0514 1.51107 11.1546 1.6143 11.2174 1.74182L13.5148 6.39939Z" fill="#858585"/>
</svg>
