<svg width="15" height="15" viewBox="0 0 15 15" fill="none" xmlns="http://www.w3.org/2000/svg">
    <path d="M13.6911 5.206L9.66024 4.55736L7.85835 0.512635C7.80913 0.401893 7.72817 0.312244 7.62815 0.257752C7.37732 0.120642 7.0725 0.2349 6.94709 0.512635L5.1452 4.55736L1.11437 5.206C1.00324 5.22358 0.901639 5.28158 0.823848 5.36947C0.729803 5.4765 0.67798 5.62049 0.679767 5.7698C0.681553 5.91911 0.736802 6.06153 0.833373 6.16576L3.74973 9.31401L3.06073 13.7595C3.04457 13.8629 3.0549 13.9693 3.09056 14.0665C3.12622 14.1638 3.18577 14.248 3.26246 14.3097C3.33915 14.3713 3.42991 14.408 3.52445 14.4155C3.619 14.4229 3.71354 14.4009 3.79736 14.3519L7.40272 12.2531L11.0081 14.3519C11.1065 14.4099 11.2208 14.4292 11.3304 14.4081C11.6066 14.3554 11.7923 14.0654 11.7447 13.7595L11.0557 9.31401L13.9721 6.16576C14.0514 6.07963 14.1038 5.96713 14.1197 5.84408C14.1626 5.53647 13.9689 5.2517 13.6911 5.206ZM9.82852 8.87104L10.4016 12.5677L7.40272 10.824L4.40381 12.5695L4.97692 8.8728L2.55112 6.25365L5.90406 5.714L7.40272 2.35131L8.90138 5.714L12.2543 6.25365L9.82852 8.87104Z" fill="#FFC361"/>
</svg>
