<svg width="17" height="19" viewBox="0 0 17 19" fill="none" xmlns="http://www.w3.org/2000/svg">
    <path d="M10.5766 5.61349L14.6481 6.26868C14.9287 6.31484 15.1244 6.60248 15.0811 6.91321C15.065 7.0375 15.0121 7.15114 14.9319 7.23814L11.9861 10.4182L12.6821 14.9086C12.7302 15.2175 12.5426 15.5105 12.2635 15.5638C12.1529 15.5851 12.0374 15.5656 11.938 15.507L8.29624 13.3869L4.65447 15.507C4.5698 15.5565 4.4743 15.5787 4.37881 15.5712C4.28331 15.5636 4.19163 15.5266 4.11416 15.4643C4.0367 15.402 3.97655 15.3169 3.94053 15.2187C3.90451 15.1205 3.89407 15.013 3.9104 14.9086L4.60636 10.4182L1.66054 7.23814C1.563 7.13285 1.50719 6.989 1.50539 6.83818C1.50358 6.68736 1.55593 6.54191 1.65092 6.43381C1.7295 6.34503 1.83213 6.28643 1.94438 6.26868L6.01592 5.61349L7.83601 1.52791C7.96269 1.24737 8.27058 1.13196 8.52395 1.27045C8.62498 1.3255 8.70676 1.41605 8.75647 1.52791L10.5766 5.61349Z" fill="#FFC361"/>
</svg>
