<svg width="17" height="16" viewBox="0 0 17 16" fill="none" xmlns="http://www.w3.org/2000/svg">
    <path d="M5.83333 12L8.5 9.96665L11.1667 12L10.1 8.71665L12.7667 6.83331H9.51667L8.5 3.44998L7.46667 6.83331H4.21667L6.88333 8.71665L5.83333 12ZM8.5 14.6666C7.58889 14.6666 6.72778 14.4916 5.91667 14.1416C5.10556 13.7916 4.39722 13.3139 3.79167 12.7083C3.18611 12.1028 2.70833 11.3944 2.35833 10.5833C2.00833 9.7722 1.83333 8.91109 1.83333 7.99998C1.83333 7.07776 2.00833 6.21109 2.35833 5.39998C2.70833 4.58887 3.18611 3.88331 3.79167 3.28331C4.39722 2.68331 5.10556 2.20831 5.91667 1.85831C6.72778 1.50831 7.58889 1.33331 8.5 1.33331C9.42222 1.33331 10.2889 1.50831 11.1 1.85831C11.9111 2.20831 12.6167 2.68331 13.2167 3.28331C13.8167 3.88331 14.2917 4.58887 14.6417 5.39998C14.9917 6.21109 15.1667 7.07776 15.1667 7.99998C15.1667 8.91109 14.9917 9.7722 14.6417 10.5833C14.2917 11.3944 13.8167 12.1028 13.2167 12.7083C12.6167 13.3139 11.9111 13.7916 11.1 14.1416C10.2889 14.4916 9.42222 14.6666 8.5 14.6666ZM8.5 13.6666C10.0778 13.6666 11.4167 13.1139 12.5167 12.0083C13.6167 10.9028 14.1667 9.56665 14.1667 7.99998C14.1667 6.4222 13.6167 5.08331 12.5167 3.98331C11.4167 2.88331 10.0778 2.33331 8.5 2.33331C6.93333 2.33331 5.59722 2.88331 4.49167 3.98331C3.38611 5.08331 2.83333 6.4222 2.83333 7.99998C2.83333 9.56665 3.38611 10.9028 4.49167 12.0083C5.59722 13.1139 6.93333 13.6666 8.5 13.6666Z" fill="white"/>
</svg>
