<svg width="107" height="123" viewBox="0 0 107 123" fill="none" xmlns="http://www.w3.org/2000/svg">
    <path d="M102 13.2563H17.5897C15.3806 13.2563 13.5897 15.0472 13.5897 17.2564V66.9358L15.4855 118.122C15.5651 120.272 17.3312 121.974 19.4828 121.974H72.7051H73.3846H102C104.209 121.974 106 120.183 106 117.974V17.2563C106 15.0472 104.209 13.2563 102 13.2563Z" fill="white"/>
    <path d="M68.6282 121.974H102C104.209 121.974 106 120.183 106 117.974V17.2563C106 15.0472 104.209 13.2563 102 13.2563H17.5897C15.3806 13.2563 13.5897 15.0472 13.5897 17.2564V66.9358M36.6923 121.974H18.2692C16.0601 121.974 14.2692 120.183 14.2692 117.974V84.6025" stroke="#232F3E" stroke-width="1.5"/>
    <path d="M40.0513 8.57056H79.5384C80.2288 8.57056 80.7884 9.1302 80.7884 9.82056V22.1282C80.7884 22.8186 80.2288 23.3782 79.5384 23.3782H64.7793C64.4189 23.3782 64.076 23.2226 63.8386 22.9514L61.3046 20.0553C60.1536 18.74 58.0837 18.818 57.035 20.2162L55.0384 22.8782C54.8024 23.193 54.4319 23.3782 54.0384 23.3782H40.0513C39.3609 23.3782 38.8013 22.8186 38.8013 22.1282V9.82056C38.8013 9.1302 39.3609 8.57056 40.0513 8.57056Z" fill="white" stroke="#232F3E" stroke-width="1.5"/>
    <path d="M48.2437 3.74358V8.49999H69.9871V4.42307C69.9871 1.70512 67.7222 1.02563 66.5897 1.02563H52.3206C48.5155 1.02563 48.0172 2.8376 48.2437 3.74358Z" fill="white" stroke="#232F3E" stroke-width="1.5"/>
    <rect y="85.282" width="14.9487" height="31.2564" fill="#7ECAF0"/>
    <path d="M0 85.282H14.9487V116.538H0" stroke="#232F3E" stroke-width="1.5"/>
    <path d="M14.9487 88C15.6282 85.5085 19.0257 79.982 24.4616 77.8077C26.7265 77.1282 31.3923 73.5948 31.9359 64.8974V56.0641C31.7094 54.7051 32.4795 52.3948 37.3718 54.0256C39.1838 54.4786 42.9436 57.0154 43.4872 63.5384V79.8461" stroke="#232F3E" stroke-width="1.5"/>
    <path d="M40.0897 96.8334C39.8632 99.0983 38.3231 103.764 33.9743 104.308H28.5385" stroke="#232F3E" stroke-width="1.5"/>
    <rect x="38.8013" y="83.3141" width="28.3974" height="10.7308" rx="3.25" fill="white" stroke="#232F3E" stroke-width="1.5"/>
    <rect x="38.8013" y="94.1859" width="28.3974" height="9.37179" rx="3.25" fill="white" stroke="#232F3E" stroke-width="1.5"/>
    <rect x="38.8013" y="103.699" width="28.3974" height="9.37179" rx="3.25" fill="white" stroke="#232F3E" stroke-width="1.5"/>
    <rect x="38.8013" y="113.212" width="28.3974" height="8.01282" rx="3.25" fill="white" stroke="#232F3E" stroke-width="1.5"/>
    <rect x="24.4615" y="35" width="43.4872" height="4.07692" rx="2" fill="#7ECAF0"/>
    <rect x="47.5641" y="59.4615" width="20.3846" height="4.07692" rx="2" fill="#7ECAF0"/>
    <rect x="47.5641" y="68.9744" width="20.3846" height="4.07692" rx="2" fill="#7ECAF0"/>
    <path d="M78.1409 37.0385C77.0537 36.4949 75.8759 36.812 75.4229 37.0385C73.7922 38.1257 74.2905 40.2095 74.7435 41.1154L79.4999 46.5513C82.2178 49.2693 84.7093 48.1368 85.6153 47.2308C87.8802 44.5129 92.546 39.077 93.0896 39.077C95.264 36.9026 94.4486 34.5471 93.7691 33.6411C92.1383 31.4667 89.9187 33.1881 89.0127 34.3206L82.8973 41.1154L78.1409 37.0385Z" fill="#FFA500"/>
    <path d="M77.2252 65.2617C76.1381 64.7181 74.9603 65.0352 74.5073 65.2617C72.8765 66.3489 73.3748 68.4326 73.8278 69.3386L78.5842 74.7745C81.3022 77.4924 83.7936 76.36 84.6996 75.454C86.9646 72.736 91.6304 67.3001 92.174 67.3001C94.3483 65.1258 93.5329 62.7702 92.8535 61.8642C91.2227 59.6899 89.003 61.4112 88.097 62.5437L81.9817 69.3386L77.2252 65.2617Z" fill="#FFA500"/>
    <path d="M78.5843 92.4411C77.4971 91.8975 76.3193 92.2146 75.8663 92.4411C74.2355 93.5283 74.7338 95.6121 75.1868 96.518L79.9432 101.954C82.6612 104.672 85.1526 103.539 86.0586 102.633C88.3236 99.9155 92.9894 94.4796 93.533 94.4796C95.7073 92.3052 94.8919 89.9497 94.2125 89.0437C92.5817 86.8693 90.362 88.5907 89.4561 89.7232L83.3407 96.518L78.5843 92.4411Z" fill="#FFA500"/>
    <rect x="24.4615" y="43.1538" width="27.1795" height="4.07692" rx="2" fill="#7ECAF0"/>
    <rect x="55.7179" y="43.1538" width="13.5897" height="4.07692" rx="2" fill="#7ECAF0"/>
    <circle cx="13.5897" cy="71.6923" r="1.35897" fill="#232F3E"/>
</svg>
