<svg width="22" height="22" viewBox="0 0 22 22" fill="none" xmlns="http://www.w3.org/2000/svg">
    <g clip-path="url(#clip0_1850_2138)">
        <path d="M4.125 19.25C3.75833 19.25 3.4375 19.1125 3.1625 18.8375C2.8875 18.5625 2.75 18.2417 2.75 17.875V4.125C2.75 3.75833 2.8875 3.4375 3.1625 3.1625C3.4375 2.8875 3.75833 2.75 4.125 2.75H17.875C18.2417 2.75 18.5625 2.8875 18.8375 3.1625C19.1125 3.4375 19.25 3.75833 19.25 4.125V17.875C19.25 18.2417 19.1125 18.5625 18.8375 18.8375C18.5625 19.1125 18.2417 19.25 17.875 19.25H4.125ZM9.60208 14.6438L16.225 8.02083L15.2396 7.03542L9.60208 12.6729L6.875 9.94583L5.88958 10.9313L9.60208 14.6438Z" fill="#FFA500"/>
    </g>
    <defs>
        <clipPath id="clip0_1850_2138">
            <rect width="22" height="22" fill="white"/>
        </clipPath>
    </defs>
</svg>
