<svg width="135" height="152" viewBox="0 0 135 152" fill="none" xmlns="http://www.w3.org/2000/svg">
    <path d="M1.01172 129.929C2.63011 99.736 1.82091 23.1892 2.42781 21.7008C3.237 19.7871 6.27149 15.7471 8.09217 14.684C11.9359 12.345 16.3864 12.1324 20.6347 11.9198C40.6623 11.0693 60.8921 12.5577 80.7174 16.5976C82.7404 17.0229 84.9657 17.6608 86.1795 19.3618C86.9887 20.6376 86.9887 19.5745 86.9887 21.2755C86.9887 65.9278 86.5841 99.736 86.5841 128.228C86.5841 135.458 74.2439 139.498 67.568 140.561C63.3197 141.199 59.0715 141.837 54.8232 142.049C48.3496 142.262 41.6738 141.411 35.2002 140.774C23.8715 139.073 12.3404 133.969 1.01172 129.929Z" fill="white"/>
    <path d="M51.9908 142.9C46.3264 142.9 40.4598 142.262 34.7954 141.412C26.0965 140.349 17.1954 136.947 8.49655 133.757C5.86666 132.694 3.23678 131.843 0.606896 130.78C0.202299 130.78 0 130.355 0 129.717C1.01149 111.006 1.01149 73.3701 1.21379 48.2798C1.21379 25.3157 1.21379 21.701 1.61839 21.0631C2.42759 18.9368 5.86666 14.6842 7.68735 13.6211C11.531 11.2822 16.1839 10.8569 20.6345 10.6443C40.8643 9.79375 61.0942 11.2822 80.9195 15.3221C83.1448 15.7474 85.5724 16.3853 86.9885 18.5116C87.1908 18.9368 87.3931 18.9368 87.3931 18.9368C87.7977 19.3621 87.7977 19.7874 87.7977 20.2126C87.7977 20.4253 87.7977 20.4253 87.7977 20.6379C87.7977 45.303 87.5954 66.9912 87.5954 85.9153C87.3931 101.437 87.3931 114.833 87.3931 127.591C87.3931 135.671 74.4459 139.923 67.5678 140.774C63.3195 141.412 59.0712 142.05 54.6207 142.262C53.8115 142.9 53.0023 142.9 51.9908 142.9ZM1.43926 129.717C3.86684 130.568 6.87816 130.78 9.30574 131.843C17.8023 135.033 26.7034 138.435 35.2 139.498C41.4712 140.349 48.1471 141.199 54.6207 140.774C58.8689 140.561 63.1172 139.923 67.3655 139.285C74.4459 138.222 86.3553 134.361 86.3553 128.195C86.3553 115.437 86.153 101.437 86.3553 85.9153C86.5576 66.9912 86.3553 45.9838 86.3553 21.1061C86.3553 15.878 85.977 20.6379 85.977 20.6379C85.7747 20.4253 85.5724 20.2126 85.3701 20C84.3586 18.5116 82.3356 18.0863 80.5149 17.6611C60.8919 13.6211 40.662 12.1327 20.6345 12.9832C16.1839 13.1958 12.1379 13.6211 8.49655 15.7474C6.87816 16.5979 3.84368 20.1645 3.03448 21.8656C3.03448 23.1413 2.5 36.3167 2.5 49.4998C2.5 74.1648 2.45075 110.58 1.43926 129.717Z" fill="#232F3E"/>
    <path d="M3.03463 21.7008C31.1542 19.7871 59.0714 19.7871 86.9886 21.0629C86.9886 20.2124 87.6103 19.2254 87.408 18.3749C86.8011 7.74339 83.5495 1.28829 68.984 1.92618C58.6668 2.35144 41.6737 1.07566 18.8139 1.92618C6.67601 1.92618 3.43923 13.1956 2.42773 21.7008C2.63003 21.7008 2.83233 21.7008 3.03463 21.7008Z" fill="#D5F1FF"/>
    <path d="M3.03441 22.764C2.62981 22.764 2.42751 22.764 2.22521 22.764C2.02291 22.764 1.82061 22.5513 1.61831 22.3387C1.41602 22.1261 1.41602 21.9135 1.41602 21.4882C3.439 4.26515 12 0.999878 18.8137 0.650431C32.57 0.225171 44.101 0.437801 53.4068 0.650431C59.4757 0.863061 64.9378 0.863061 68.9838 0.650431C83.7516 0.0125409 87.1907 6.60408 87.7976 18.0861C87.7976 18.9366 87.9999 19.9998 87.9999 20.8503C87.9999 21.0629 87.9999 21.4882 87.7976 21.7008C87.5953 21.9134 87.393 22.1261 86.9884 21.9134C56.6436 20.8503 29.3332 21.0629 3.03441 22.764ZM38.5 1.99988C33.4425 1.99988 24.7792 1.90578 18.7102 2.11841C10.7798 2.39626 3.31401 9.59499 2.75035 21.4914C35.3109 19.6216 56.9644 19.2241 86.5 20.4999C86.5 19.862 86.5 19.0874 86.5 17.9999C85.1434 7.58389 83.7936 1.69315 70.2395 2.11841C65.9913 2.33104 61.7105 2.11841 55.4393 2.11841C50.3818 2.11841 44.9736 1.99988 38.5 1.99988Z" fill="#232F3E"/>
    <path d="M1.01172 129.929C1.01172 130.142 1.01172 130.354 1.01172 130.354C1.01172 134.394 1.21402 138.647 2.63011 142.262C4.2485 145.876 12.5427 149.704 16.5887 149.704C35.6048 149.916 49.7657 149.704 68.7818 149.704C80.3128 149.704 84.5611 141.411 85.5726 136.308C86.1795 133.756 86.3818 131.417 86.5841 128.866C58.06 129.291 29.5358 129.504 1.01172 129.929Z" fill="#D5F1FF"/>
    <path d="M31.5 151.405C27.0494 151.405 21.646 150.98 16.5885 150.98C12.3402 150.98 3.43908 146.94 1.82069 142.9C0.202299 138.86 0 134.395 0 130.567V130.142C0 129.929 0 129.504 0.202299 129.504C0.404597 129.291 0.797701 128.5 1 128.5L86.3815 128.441C86.5838 128.441 86.9884 128.654 87.1907 128.866C87.393 129.079 87.393 129.291 87.393 129.717C87.1907 132.694 86.9884 135.032 86.3815 137.371C84.9655 144.176 81 150.5 68.5793 151.405C61.2965 151.405 54.8229 151.405 48.5517 151.405C42.8873 150.767 37.569 151.405 31.5 151.405ZM1.82069 131C1.82069 134.614 1.76449 139.102 4 142.9C5.21379 146.089 13.1563 149 17 149C28.9356 149.212 39.8544 149.461 50.3739 149.461C56.6452 149.461 63.2407 149.461 70.5235 149.461C82.7572 147.942 83.8931 139.977 84.5 137C84.9046 135.086 85.4334 132.056 85.6357 129.717L1.82069 131Z" fill="#232F3E"/>
    <path d="M34.9976 140.773C34.3907 140.773 33.9861 140.348 33.9861 139.71C33.9861 139.072 34.3907 138.647 34.9976 138.647C40.6619 138.435 46.3263 138.435 51.9907 138.435C52.5976 138.435 53.0022 138.86 53.0022 139.498C53.0022 140.136 52.5976 140.561 51.9907 140.561C46.3263 140.561 40.6619 140.561 34.9976 140.773Z" fill="#232F3E"/>
    <g opacity="0.1294">
        <path d="M79.9079 20.8503C71.0068 21.063 62.3079 20.6377 53.4068 20.6377C44.9102 20.6377 36.616 21.2756 28.1194 21.2756C19.8252 21.063 11.5309 21.4882 3.23669 21.9135C0.404503 21.9135 0.404503 26.1661 3.23669 26.3787C11.1263 26.1661 19.016 25.5282 27.1079 25.7408C33.3792 25.7408 39.6505 25.3156 45.9217 25.1029C57.4528 25.1029 69.1861 25.5282 80.7171 25.5282C81.5263 25.5282 82.5378 25.3156 83.347 25.5282C83.5493 25.5282 83.5493 25.5282 83.5493 25.5282C83.5493 25.5282 83.5493 25.5282 83.7516 25.5282C84.9654 25.9534 86.3815 25.1029 86.7861 23.8271C87.393 19.7872 82.9424 20.8503 79.9079 20.8503Z" fill="#232F3E"/>
    </g>
    <path d="M6.58868 69.0634C6.29434 69.0634 6 68.6882 6 68.313C6 67.9378 6.29434 67.5626 6.58868 67.5626C15.1245 66.8123 23.9547 66.8123 32.4905 67.5626C32.7849 67.5626 33.0792 67.9378 33.0792 68.313C33.0792 68.6882 32.7849 69.0634 32.4905 69.0634C23.9547 68.313 15.1245 68.313 6.58868 69.0634Z" fill="#232F3E"/>
    <path d="M6.41304 45.9999C6.20652 45.9999 6 45.6362 6 45.2726C6 44.909 6.20652 44.5453 6.41304 44.5453C12.4022 43.8181 18.5978 43.8181 24.587 44.5453C24.7935 44.5453 25 44.909 25 45.2726C25 45.6362 24.7935 45.9999 24.587 45.9999C18.5978 45.2726 12.4022 45.2726 6.41304 45.9999Z" fill="#232F3E"/>
    <path d="M6.31746 91.7106C6.15873 91.7106 6 91.3717 6 91.0329C6 90.694 6.15873 90.3552 6.31746 90.3552L25.6825 88.9999C25.8413 88.9999 26 89.3387 26 89.6775C26 90.0164 25.8413 90.3552 25.6825 90.3552L6.31746 91.7106Z" fill="#232F3E"/>
    <path d="M6.44445 113C6 113 6 112.6 6 112.2C6 111.8 6.44444 111.4 6.88889 111.4L45.1111 111C45.5556 111 46 111.4 46 111.8C46 112.2 45.5556 112.6 45.1111 112.6L6.44445 113Z" fill="#232F3E"/>
    <path d="M58.2842 100.552L56.8432 123.669L77.3249 109.309C92.5575 113.395 108.589 107.606 114.701 104.201C143.88 87.0065 134.712 55.6305 124.839 45.4149C104.388 24.2544 71.9479 30.1878 60.3999 39.2596C29.9346 63.193 46.2956 90.0937 58.2842 100.552Z" fill="white" stroke="#232F3E"/>
    <path d="M88.6627 90.8206L86.5447 88.8611C82.9023 85.432 79.891 82.4739 77.5108 79.9868C75.1306 77.4998 73.2345 75.2765 71.8226 73.3169C70.4106 71.3573 69.4206 69.5831 68.8523 67.9942C68.2841 66.4054 68 64.7989 68 63.1748C68 59.9916 69.0417 57.3333 71.1252 55.2C73.2087 53.0666 75.7829 51.9999 78.8479 51.9999C80.8109 51.9999 82.6274 52.4765 84.2977 53.4298C85.9679 54.3831 87.4229 55.7601 88.6627 57.5608C90.1091 55.6542 91.6415 54.2507 93.2601 53.3504C94.8787 52.4501 96.6178 51.9999 98.4774 51.9999C101.542 51.9999 104.117 53.0666 106.2 55.2C108.284 57.3333 109.325 59.9916 109.325 63.1748C109.325 64.7989 109.041 66.4054 108.473 67.9942C107.905 69.5831 106.915 71.3573 105.503 73.3169C104.091 75.2765 102.195 77.4998 99.8145 79.9868C97.4343 82.4739 94.423 85.432 90.7806 88.8611L88.6627 90.8206Z" fill="#FFA500"/>
    <path opacity="0.8" d="M121.302 93.9999C133 82.9999 133.382 76.9999 134 71.9999C133.5 106.5 90 114 77.5 108.5L57.5 122.5C62 117 61 117.5 64.3022 114C67.7963 110.297 73.5 104 79.8022 104.5L88.3022 105.5C90.7508 105.706 95.542 104.994 97.8022 104.5C100.062 104.006 110.051 101.647 112.5 99.9999L121.302 93.9999Z" fill="#E2E4E6"/>
</svg>
