<svg width="23" height="22" viewBox="0 0 23 22" fill="none" xmlns="http://www.w3.org/2000/svg">
    <mask id="path-1-inside-1_647_3157" fill="white">
        <path d="M15.5561 10.6111L9.05606 17.1111L7.89148 15.9465L13.254 10.6111L7.91856 5.27567L9.08315 4.11108L15.5561 10.6111Z"/>
    </mask>
    <path d="M15.5561 10.6111L9.05606 17.1111L7.89148 15.9465L13.254 10.6111L7.91856 5.27567L9.08315 4.11108L15.5561 10.6111Z" fill="#858585"/>
    <path d="M15.5561 10.6111L19.7987 14.8537L24.0325 10.6199L19.8076 6.37731L15.5561 10.6111ZM9.05606 17.1111L4.81342 21.3537L9.05606 25.5964L13.2987 21.3537L9.05606 17.1111ZM7.89148 15.9465L3.65959 11.6931L-0.604556 15.9357L3.64884 20.1891L7.89148 15.9465ZM13.254 10.6111L17.4859 14.8645L21.75 10.6218L17.4966 6.36844L13.254 10.6111ZM7.91856 5.27567L3.67592 1.03303L-0.566718 5.27567L3.67592 9.51831L7.91856 5.27567ZM9.08315 4.11108L13.3346 -0.12269L9.09201 -4.38307L4.8405 -0.131555L9.08315 4.11108ZM11.3134 6.36844L4.81342 12.8684L13.2987 21.3537L19.7987 14.8537L11.3134 6.36844ZM13.2987 12.8684L12.1341 11.7039L3.64884 20.1891L4.81342 21.3537L13.2987 12.8684ZM12.1234 20.1999L17.4859 14.8645L9.02209 6.35772L3.65959 11.6931L12.1234 20.1999ZM17.4966 6.36844L12.1612 1.03303L3.67592 9.51831L9.01134 14.8537L17.4966 6.36844ZM12.1612 9.51831L13.3258 8.35372L4.8405 -0.131555L3.67592 1.03303L12.1612 9.51831ZM4.83166 8.34486L11.3046 14.8449L19.8076 6.37731L13.3346 -0.12269L4.83166 8.34486Z" fill="#858585" mask="url(#path-1-inside-1_647_3157)"/>
</svg>
