<svg width="38" height="38" viewBox="0 0 38 38" fill="none" xmlns="http://www.w3.org/2000/svg">
    <path d="M26.0803 7.125C25.0123 7.12434 23.9681 7.44707 23.0798 8.05238C22.1915 8.6577 21.499 9.5184 21.0899 10.5256C20.6807 11.5328 20.5734 12.6413 20.7813 13.7108C20.9893 14.7804 21.5033 15.7628 22.2583 16.5341C23.0133 17.3053 23.9753 17.8306 25.0227 18.0435C26.0702 18.2564 27.156 18.1474 28.1426 17.7302C29.1294 17.3131 29.9728 16.6064 30.5661 15.6999C31.1594 14.7932 31.4762 13.7273 31.4761 12.6369C31.4764 11.9132 31.3372 11.1965 31.0661 10.5278C30.7952 9.85907 30.3977 9.25144 29.8967 8.73958C29.3956 8.22771 28.8007 7.82166 28.1458 7.54463C27.491 7.2676 26.7892 7.125 26.0803 7.125ZM26.0803 15.0316C25.6162 15.0312 25.1627 14.8903 24.777 14.6267C24.3913 14.3631 24.0909 13.9887 23.9135 13.5508C23.7363 13.1128 23.6902 12.6311 23.7811 12.1664C23.8719 11.7018 24.0957 11.275 24.4242 10.9403C24.7525 10.6054 25.1708 10.3775 25.6261 10.2853C26.0813 10.1933 26.5531 10.241 26.9818 10.4226C27.4104 10.6042 27.7768 10.9115 28.0343 11.3056C28.292 11.6998 28.4294 12.163 28.4291 12.6369C28.4281 13.272 28.1805 13.8808 27.7405 14.3297C27.3005 14.7786 26.704 15.0311 26.082 15.0316" fill="#AD2070"/>
    <path d="M9.84551 18.1493V11.0026C9.84551 10.5834 10.2074 10.2393 10.6535 10.2393C11.0996 10.2393 11.4528 10.5804 11.4574 10.9984V18.1493H14.7509V11.0026V10.998C14.7509 10.5804 15.1119 10.2388 15.5556 10.2388C15.9992 10.2388 16.3607 10.583 16.3607 11.0022V18.1493H19.6518V11.0026C19.6518 8.86601 17.8148 7.12544 15.5556 7.12544C14.6815 7.12232 13.8273 7.39255 13.108 7.89977C12.3858 7.39323 11.5298 7.12302 10.6535 7.12501C8.39516 7.12501 6.55692 8.86559 6.55692 11.0022V18.1493H9.84551Z" fill="#AD2070"/>
    <path d="M26.0804 19.8451C25.0128 19.8446 23.969 20.1673 23.0809 20.7725C22.193 21.3776 21.5007 22.238 21.0916 23.2449C20.6825 24.2518 20.5751 25.3598 20.7828 26.429C20.9906 27.4982 21.5042 28.4805 22.2587 29.2517C23.0133 30.0229 23.9748 30.5483 25.0218 30.7615C26.0688 30.9748 27.1543 30.8663 28.1409 30.4498C29.1274 30.0332 29.9709 29.3272 30.5646 28.4213C31.1582 27.5153 31.4754 26.45 31.4761 25.3599C31.4769 24.636 31.3379 23.919 31.067 23.25C30.7963 22.5809 30.3989 21.9729 29.8978 21.4607C29.3966 20.9485 28.8016 20.5422 28.1465 20.265C27.4916 19.9878 26.7894 19.8451 26.0804 19.8451ZM26.0804 27.758C25.6153 27.7585 25.1604 27.618 24.7735 27.3544C24.3866 27.0908 24.085 26.716 23.9068 26.2774C23.7286 25.8386 23.6818 25.3559 23.7724 24.8901C23.8632 24.4243 24.087 23.9964 24.416 23.6607C24.7449 23.3248 25.164 23.0962 25.6202 23.0037C26.0764 22.9111 26.5493 22.9588 26.9789 23.1407C27.4086 23.3227 27.7756 23.6307 28.0339 24.0257C28.292 24.4207 28.4296 24.885 28.4292 25.3599C28.4282 25.9954 28.1807 26.6045 27.7408 27.054C27.3008 27.5034 26.7044 27.7566 26.082 27.758" fill="#AD2070"/>
    <path d="M9.84552 30.8698V23.7266C9.84552 23.3048 10.2074 22.9623 10.6535 22.9623C11.0997 22.9623 11.4529 23.3027 11.4574 23.7214V30.8698H14.751V23.7266C14.751 23.7266 14.751 23.7266 14.751 23.7231C14.751 23.3014 15.112 22.964 15.5557 22.964C15.9993 22.964 16.3607 23.3044 16.3607 23.7282V30.8698H19.6518V23.7266C19.6518 21.5891 17.8148 19.8464 15.5557 19.8464C14.6809 19.8417 13.8261 20.113 13.1081 20.6233C12.3876 20.1142 11.5315 19.843 10.6552 19.8464C8.39686 19.8464 6.55862 21.5887 6.55862 23.7266V30.8698H9.84552Z" fill="#AD2070"/>
</svg>
