<svg width="40" height="23" viewBox="0 0 40 23" fill="none" xmlns="http://www.w3.org/2000/svg">
    <rect x="0.842468" y="0.5" width="38.1781" height="22" rx="3.5" fill="white" stroke="#B3C5DD"/>
    <rect x="4.07382" y="17.4797" width="6.06327" height="1.84" fill="#FFA500"/>
    <rect x="12.4695" y="17.48" width="6.06327" height="1.84" fill="#FFA500"/>
    <rect x="11.8641" y="17.48" width="6.06327" height="1.84" fill="#FFA500"/>
    <rect x="20.2593" y="17.4797" width="6.06327" height="1.84" fill="#FFA500"/>
    <rect x="19.3272" y="4.13989" width="6.99609" height="5.06" rx="2" fill="#F86C3B"/>
    <path d="M10.5698 6.43989C10.5698 7.42751 9.75613 8.23989 8.73779 8.23989C7.71945 8.23989 6.90576 7.42751 6.90576 6.43989C6.90576 5.45228 7.71945 4.63989 8.73779 4.63989C9.75613 4.63989 10.5698 5.45228 10.5698 6.43989Z" fill="#0CC1C8" stroke="white"/>
    <path d="M8.23788 6.43989C8.23788 7.42751 7.42419 8.23989 6.40585 8.23989C5.38751 8.23989 4.57382 7.42751 4.57382 6.43989C4.57382 5.45228 5.38751 4.63989 6.40585 4.63989C7.42419 4.63989 8.23788 5.45228 8.23788 6.43989Z" fill="#FE6D3E" stroke="white"/>
</svg>
