<svg width="40" height="24" viewBox="0 0 40 24" fill="none" xmlns="http://www.w3.org/2000/svg">
    <rect x="0.883575" y="0.5" width="38.1781" height="22.3043" rx="1.5" fill="white" stroke="#FEABAB"/>
    <path d="M32.1354 3H7.34208C7.34208 5.63226 5.31495 6.47312 4.30139 6.56452V16.4355C6.54682 16.2161 7.26411 18.7204 7.34208 20H32.8371C32.2757 17.8065 34.4744 15.9785 35.6439 15.3387V6.56452C33.2113 6.56452 32.2913 4.18817 32.1354 3Z" fill="#FF6D3A"/>
    <path d="M27.3082 11C27.3082 14.5997 24.4528 17.5 20.9521 17.5C17.4514 17.5 14.5959 14.5997 14.5959 11C14.5959 7.40031 17.4514 4.5 20.9521 4.5C24.4528 4.5 27.3082 7.40031 27.3082 11Z" fill="white" stroke="#FEABAB"/>
    <ellipse cx="10.0993" cy="11.9139" rx="0.900646" ry="0.913896" fill="#EB5757"/>
    <path d="M22.5684 11.9139C22.5684 12.4186 22.1652 12.8278 21.6678 12.8278C21.1704 12.8278 20.7672 12.4186 20.7672 11.9139C20.7672 11.4092 21.1704 11 21.6678 11C22.1652 11 22.5684 11.4092 22.5684 11.9139Z" fill="#EB5757"/>
    <path d="M20.9115 15.9091V6.81818H21.4938V15.9091H20.9115ZM22.8717 9.54545C22.8291 9.18561 22.6563 8.90625 22.3532 8.70739C22.0502 8.50852 21.6785 8.40909 21.2382 8.40909C20.9162 8.40909 20.6345 8.46117 20.393 8.56534C20.1539 8.66951 19.9669 8.81274 19.8319 8.99503C19.6993 9.17732 19.6331 9.38447 19.6331 9.61648C19.6331 9.81061 19.6792 9.97751 19.7715 10.1172C19.8662 10.2545 19.987 10.3693 20.1338 10.4616C20.2805 10.5516 20.4344 10.6262 20.5954 10.6854C20.7564 10.7422 20.9044 10.7884 21.0393 10.8239L21.7779 11.0227C21.9673 11.0724 22.178 11.1411 22.41 11.2287C22.6444 11.3163 22.8681 11.4358 23.0812 11.5874C23.2966 11.7365 23.4742 11.9283 23.6139 12.1626C23.7536 12.397 23.8234 12.6847 23.8234 13.0256C23.8234 13.4186 23.7204 13.7737 23.5144 14.0909C23.3108 14.4081 23.0125 14.6603 22.6196 14.8473C22.2289 15.0343 21.7543 15.1278 21.1956 15.1278C20.6747 15.1278 20.2237 15.0438 19.8426 14.8757C19.4638 14.7076 19.1655 14.4732 18.9477 14.1726C18.7322 13.8719 18.6103 13.5227 18.5819 13.125H19.491C19.5147 13.3996 19.607 13.6269 19.768 13.8068C19.9313 13.9844 20.1373 14.117 20.3859 14.2045C20.6368 14.2898 20.9067 14.3324 21.1956 14.3324C21.5317 14.3324 21.8336 14.2779 22.1011 14.169C22.3686 14.0578 22.5805 13.9039 22.7367 13.7074C22.893 13.5085 22.9711 13.2765 22.9711 13.0114C22.9711 12.7699 22.9036 12.5734 22.7687 12.4219C22.6338 12.2704 22.4562 12.1473 22.236 12.0526C22.0159 11.9579 21.7779 11.875 21.5223 11.804L20.6274 11.5483C20.0592 11.3849 19.6094 11.1518 19.2779 10.8487C18.9465 10.5457 18.7808 10.1491 18.7808 9.65909C18.7808 9.25189 18.8909 8.89678 19.111 8.59375C19.3336 8.28835 19.6319 8.05161 20.0059 7.88352C20.3823 7.71307 20.8026 7.62784 21.2666 7.62784C21.7353 7.62784 22.152 7.71188 22.5166 7.87997C22.8812 8.04569 23.17 8.27296 23.3831 8.56179C23.5985 8.85062 23.7121 9.1785 23.724 9.54545H22.8717Z" fill="#EB5757"/>
</svg>
