<svg width="42" height="42" viewBox="0 0 42 42" fill="none" xmlns="http://www.w3.org/2000/svg">
    <path d="M15.1375 39.375L11.8125 33.6875L5.20625 32.3313L5.95 25.9L1.75 21L5.95 16.1438L5.20625 9.7125L11.8125 8.35625L15.1375 2.625L21 5.3375L26.8625 2.625L30.2312 8.35625L36.7938 9.7125L36.05 16.1438L40.25 21L36.05 25.9L36.7938 32.3313L30.2312 33.6875L26.8625 39.375L21 36.6625L15.1375 39.375ZM16.3187 35.9188L21 33.95L25.8125 35.9188L28.7437 31.5437L33.8625 30.2312L33.3375 25.025L36.8813 21L33.3375 16.8875L33.8625 11.6813L28.7437 10.4562L25.725 6.08125L21 8.05L16.1875 6.08125L13.2562 10.4562L8.1375 11.6813L8.6625 16.8875L5.11875 21L8.6625 25.025L8.1375 30.3188L13.2562 31.5437L16.3187 35.9188ZM19.1187 26.8188L29.05 16.975L27.0813 15.1813L19.1187 23.0562L14.9625 18.725L12.95 20.6938L19.1187 26.8188Z" fill="#33B44A"/>
</svg>
