<svg width="58" height="41" viewBox="0 0 58 41" fill="none" xmlns="http://www.w3.org/2000/svg">
    <path d="M40.375 29.2119H57V40.3257H28.3152M37.75 29.2119L27.25 40.3257H5.375L1 35.1963V15.5334C1 9.4308 4.33641 0.999963 19.375 1C30.2174 1.00003 37.75 3.21332 37.75 15.6112V29.2119Z" stroke="#232F3E" stroke-width="0.5"/>
    <path d="M37.75 34.3413V38.6158" stroke="#232F3E" stroke-width="0.5"/>
    <path d="M43.875 33.4863V38.6158" stroke="#232F3E" stroke-width="0.5"/>
    <path d="M50 34.3413V38.6158" stroke="#232F3E" stroke-width="0.5"/>
    <path d="M32.402 20.6219C32.402 28.0433 26.5135 34.0504 19.2607 34.0504C12.0079 34.0504 6.11938 28.0433 6.11938 20.6219C6.11938 13.2005 12.0079 7.19336 19.2607 7.19336C26.5135 7.19336 32.402 13.2005 32.402 20.6219Z" stroke="#232F3E" stroke-width="0.5"/>
    <ellipse cx="19.261" cy="20.622" rx="8.52174" ry="8.70451" fill="#F8A31D"/>
</svg>
