<svg width="42" height="45" viewBox="0 0 42 45" fill="none" xmlns="http://www.w3.org/2000/svg">
    <rect x="0.25" y="9.58301" width="3.70002" height="14.9001" rx="1.75" fill="#F8A31D" stroke="#232F3E" stroke-width="0.5"/>
    <path d="M35.0946 20.5332L35.8 20.5332C36.9046 20.5332 37.8 21.4286 37.8 22.5332L37.8 24.1332C37.8 25.2378 36.9046 26.1332 35.8 26.1332L24.4 26.1332C23.2954 26.1332 22.4 25.2378 22.4 24.1332L22.4 22.5332C22.4 21.4286 23.2954 20.5332 24.4 20.5332L25.5216 20.5332" stroke="#232F3E" stroke-width="0.5"/>
    <path d="M25.2002 20.4588V11.076C25.4092 8.76428 27.3315 4.05927 33.3495 3.73291H39.2003V13.7277C37.9465 13.3877 35.4391 13.5645 35.4391 16.9913V20.4588M34.6032 34.5331C34.8818 34.3291 35.4391 33.1868 35.4391 30.2496V25.783" stroke="#232F3E" stroke-width="0.5"/>
    <path d="M32.2003 38.9887C29.6796 41.97 22.6762 46.8925 14.828 42.7326C12.8523 41.6926 8.65569 38.2399 7.67467 32.7489V25.469C7.87905 24.429 7.47028 22.2659 4.2002 21.9331" stroke="#232F3E" stroke-width="0.5"/>
    <path d="M4.2002 12.1426H9.54733C12.1879 12.0045 17.5086 13.3449 17.667 19.8124V31.006C17.667 32.1116 18.4988 34.3641 21.8259 34.53C23.0142 34.599 25.3511 33.6593 25.1926 29.3477L25.2003 26.1334" stroke="#232F3E" stroke-width="0.5"/>
    <rect x="38.05" y="1.18311" width="3.70002" height="14.9001" rx="1.75" fill="#F8A31D" stroke="#232F3E" stroke-width="0.5"/>
</svg>
