<svg width="35" height="47" viewBox="0 0 35 47" fill="none" xmlns="http://www.w3.org/2000/svg">
    <path d="M13.6516 3.53076H9.78794H6.95459" stroke="#232F3E" stroke-width="0.5"/>
    <path d="M4.63647 3.02441V20.7385H14.682" stroke="#232F3E" stroke-width="0.5"/>
    <path d="M22.9247 24.2816V28.8366H6.4397V20.7388" stroke="#232F3E" stroke-width="0.5"/>
    <path d="M10.0454 29.0894V33.6444H19.8334V29.0894" stroke="#232F3E" stroke-width="0.5"/>
    <path d="M12.6211 34.1509V40.2243L14.6817 42.5018L16.2272 40.7304V34.1509" stroke="#232F3E" stroke-width="0.5"/>
    <path d="M0 41.2886L10.8182 41.2886" stroke="#232F3E" stroke-width="0.5"/>
    <path d="M20.0911 41.2886H28.8487" stroke="#232F3E" stroke-width="0.5"/>
    <path d="M3.86377 45.8184H26.0154" stroke="#232F3E" stroke-width="0.5"/>
    <path d="M28.0835 12.3878C28.0835 15.5999 25.4319 18.2112 22.1516 18.2112C18.8713 18.2112 16.2197 15.5999 16.2197 12.3878C16.2197 9.17583 18.8713 6.56445 22.1516 6.56445C25.4319 6.56445 28.0835 9.17583 28.0835 12.3878Z" fill="#F8A31D" stroke="#232F3E" stroke-width="0.5"/>
    <path d="M15.9694 3.02446L12.3634 6.31422L14.9391 8.33868L12.6209 10.1101H10.3027L10.5603 14.6651H13.9088L14.9391 16.6896L12.6209 18.9671L15.7119 22.0038L17.7725 19.9793L20.0907 21.4977V24.0283H24.4695L24.9847 20.9916L27.0453 20.2324L29.1059 22.2569L32.1968 19.2202L30.1362 16.6896L31.1665 14.6651L33.9999 14.4121V10.3631L30.6514 10.1101L30.1362 7.83256L32.1968 5.55504L29.1059 2.51835L27.3029 4.79587L24.4695 3.78364V1H20.0907V3.78364L17.5149 4.79587L15.9694 3.02446Z" stroke="#232F3E" stroke-width="0.5"/>
    <path d="M24.9927 12.3878C24.9927 13.9227 23.7249 15.1745 22.1517 15.1745C20.5785 15.1745 19.3108 13.9227 19.3108 12.3878C19.3108 10.8529 20.5785 9.60107 22.1517 9.60107C23.7249 9.60107 24.9927 10.8529 24.9927 12.3878Z" fill="#F8A31D" stroke="#232F3E" stroke-width="0.5"/>
</svg>
