<svg width="60" height="40" viewBox="0 0 60 40" fill="none" xmlns="http://www.w3.org/2000/svg">
    <path d="M33.976 13.9441L32.4096 0H29.1562H27.5472L24.7427 14.1326L33.976 13.9441Z" fill="#FAA51A"/>
    <path d="M56.2741 34.295C56.2741 25.9332 52.7336 17.4289 45.7967 11.8544C44.0882 10.4709 42.1945 9.33156 40.1772 8.43638L39.5803 4.75391C36.9249 3.53321 35.2987 2.92281 33.0345 2.67866L34.1821 13.5837H24.9488L26.9827 2.67866C22.413 3.08557 20.4369 4.75391 20.4369 4.75391L19.7782 8.43638C12.8413 11.5899 7.81877 17.6731 5.45158 24.387C4.29886 27.5811 3.76367 30.9381 3.76367 34.295H56.2741Z" stroke="#232F3E" stroke-width="0.5" stroke-miterlimit="10"/>
    <path d="M39.2522 4.71094L41.8575 17.8019" stroke="#232F3E" stroke-width="0.5" stroke-miterlimit="10"/>
    <path d="M18.5208 17.8021L20.8319 4.57666" stroke="#232F3E" stroke-width="0.5" stroke-miterlimit="10"/>
    <path d="M13.1349 19.8872C13.1349 19.8872 10.4965 24.6526 10.701 28.2843H27.0223" stroke="#232F3E" stroke-width="0.5" stroke-miterlimit="10"/>
    <path d="M56.7005 34.2949H30.0189H3.37872C3.37872 34.2949 0.97945 34.4102 1.00013 39.5711H30.0189H59.0377C59.0584 34.4102 56.7005 34.2949 56.7005 34.2949Z" stroke="#232F3E" stroke-width="0.5" stroke-miterlimit="10"/>
</svg>
