<svg width="24" height="24" viewBox="0 0 24 24" fill="none" xmlns="http://www.w3.org/2000/svg">
    <path d="M12 14.75C12.85 14.75 13.6208 14.55 14.3125 14.15C15.0042 13.75 15.5583 13.2167 15.975 12.55C15.4083 12.1167 14.7917 11.7917 14.125 11.575C13.4583 11.3583 12.75 11.25 12 11.25C11.25 11.25 10.5417 11.3583 9.875 11.575C9.20833 11.7917 8.59167 12.1167 8.025 12.55C8.44167 13.2167 8.99583 13.75 9.6875 14.15C10.3792 14.55 11.15 14.75 12 14.75ZM12 9.75C12.4833 9.75 12.8958 9.57917 13.2375 9.2375C13.5792 8.89583 13.75 8.48333 13.75 8C13.75 7.51667 13.5792 7.10417 13.2375 6.7625C12.8958 6.42083 12.4833 6.25 12 6.25C11.5167 6.25 11.1042 6.42083 10.7625 6.7625C10.4208 7.10417 10.25 7.51667 10.25 8C10.25 8.48333 10.4208 8.89583 10.7625 9.2375C11.1042 9.57917 11.5167 9.75 12 9.75ZM12 20.025C14.2167 18.0083 15.8542 16.1792 16.9125 14.5375C17.9708 12.8958 18.5 11.45 18.5 10.2C18.5 8.23333 17.8708 6.625 16.6125 5.375C15.3542 4.125 13.8167 3.5 12 3.5C10.1833 3.5 8.64583 4.125 7.3875 5.375C6.12917 6.625 5.5 8.23333 5.5 10.2C5.5 11.45 6.04167 12.8958 7.125 14.5375C8.20833 16.1792 9.83333 18.0083 12 20.025ZM12 22C9.31667 19.7167 7.3125 17.5958 5.9875 15.6375C4.6625 13.6792 4 11.8667 4 10.2C4 7.7 4.80417 5.70833 6.4125 4.225C8.02083 2.74167 9.88333 2 12 2C14.1167 2 15.9792 2.74167 17.5875 4.225C19.1958 5.70833 20 7.7 20 10.2C20 11.8667 19.3375 13.6792 18.0125 15.6375C16.6875 17.5958 14.6833 19.7167 12 22Z" fill="#FFA500"/>
</svg>
