<svg width="112" height="116" viewBox="0 0 112 116" fill="none" xmlns="http://www.w3.org/2000/svg">
    <path d="M1 113.689L15.5918 52.4999H43.1222H70.6525H94.861L111 115L80.8456 102.325L55.3629 113.689L29.8803 102.325L1 113.689Z" fill="#F4F4F4"/>
    <path d="M70.6525 52.5001H94.861L111 115L80.8456 102.325L55.3629 113.689L29.8803 102.325L1 113.689L15.5918 52.5001H39.1633" stroke="#444444"/>
    <path d="M33.5 62.4999L29.6224 102.092" stroke="#666666" stroke-width="0.5" stroke-dasharray="2 2"/>
    <path d="M6 91.0576L31.8673 79.0815L55.1814 92.4999L79.5714 79.0815L103.5 91.0576" stroke="#666666" stroke-width="0.5" stroke-dasharray="2 2"/>
    <path d="M78.5 62.4999L81 102.5" stroke="#666666" stroke-width="0.5" stroke-dasharray="2 2"/>
    <path d="M27.784 12.4999C24 17.5 20.5688 29.6303 29 42.4999" stroke="#232F3E"/>
    <path d="M21.5 7.49988C17.7269 12.2718 12.4445 26.9525 21.5 47.4999" stroke="#232F3E"/>
    <path d="M81.5 11.4999C86 15.5 89.5555 29.1665 80.5 41.4999" stroke="#232F3E"/>
    <path d="M88 6C93.5 13.0001 97.0555 29.4786 88 46.4999" stroke="#232F3E"/>
    <ellipse cx="55" cy="68.5" rx="15" ry="5.5" fill="#7ECAF0"/>
    <path d="M69.7172 48.0793L54.8238 68L38.8393 46.872C27.7231 32.9877 30.9597 19.7233 33.3917 14.8122C39.0917 3.30204 49.1976 0.999953 54.8238 1C70.3345 1.00013 76.8429 12.9646 78.3629 19.1034C81.0534 29.9694 74.6577 41.439 69.7172 48.0793Z" fill="#FFBE46" stroke="#232F3E"/>
    <circle cx="55" cy="26" r="10.5" fill="white" stroke="#232F3E"/>
</svg>
