<svg width="22" height="22" viewBox="0 0 22 22" fill="none" xmlns="http://www.w3.org/2000/svg">
    <mask id="mask0_2274_2692" style="mask-type:alpha" maskUnits="userSpaceOnUse" x="0" y="0" width="22" height="22">
        <rect width="22" height="22" fill="#D9D9D9"/>
    </mask>
    <g mask="url(#mask0_2274_2692)">
        <path d="M11.0569 18.7C9.03992 18.7 7.28837 18.062 5.8022 16.7859C4.31604 15.5104 3.48197 13.8838 3.29999 11.9059H4.57384C4.78615 13.5063 5.4989 14.835 6.7121 15.8918C7.9253 16.9487 9.35838 17.4771 11.0114 17.4771C12.8008 17.4771 14.3249 16.8466 15.5836 15.5856C16.8423 14.3252 17.4716 12.7967 17.4716 11C17.4716 9.21848 16.8499 7.69358 15.6063 6.42534C14.3628 5.15711 12.8463 4.52299 11.0569 4.52299C10.0408 4.52299 9.08541 4.73799 8.19068 5.16798C7.29595 5.59857 6.5377 6.19887 5.91594 6.96887H8.32717V8.19181H3.91417V3.79828H5.14253V6.0177C5.85528 5.12691 6.73121 4.45112 7.77031 3.99033C8.8088 3.53014 9.90432 3.30005 11.0569 3.30005C12.1184 3.30005 13.1117 3.49995 14.0368 3.89974C14.9618 4.30014 15.7732 4.85122 16.4707 5.55298C17.1683 6.25534 17.7143 7.07456 18.1086 8.01064C18.5028 8.94672 18.7 9.94319 18.7 11C18.7 12.0569 18.5028 13.0534 18.1086 13.9895C17.7143 14.9255 17.1683 15.7448 16.4707 16.4471C15.7732 17.1489 14.9618 17.6997 14.0368 18.0994C13.1117 18.4998 12.1184 18.7 11.0569 18.7ZM13.5363 14.85L9.89674 11.2718V6.10828H11.1251V10.7283L14.4007 13.9895L13.5363 14.85Z" fill="#FFC361"/>
    </g>
</svg>
